<svg width="315" height="184" viewBox="0 0 315 184" fill="none" xmlns="http://www.w3.org/2000/svg">
<g clip-path="url(#clip0_16_9143)">
<path d="M88.1038 86.5997C90.477 90.8895 93.3686 94.4799 98.0092 96.4845C97.3338 96.6425 96.834 96.5331 96.3398 96.3905C94.6627 95.9065 93.1514 95.039 91.8923 93.8765C90.6418 92.7217 89.3597 91.5028 88.6952 89.864C88.2587 88.7866 87.8474 87.6583 88.0558 86.3908C89.0651 86.5842 90.0548 86.677 91.0543 86.6538C93.1122 86.6074 94.9256 85.9178 96.6573 84.7818C98.1412 83.8083 99.4932 82.6645 100.95 81.6744C102.691 80.492 104.5 79.3758 106.617 78.9526C107.932 78.6896 109.248 78.6929 110.574 78.8531C112.748 79.1173 114.808 79.8654 116.926 80.366C118.873 80.8268 120.803 80.8699 122.755 80.4279C123.427 80.2754 123.984 79.9195 124.551 79.5703C124.843 79.3913 124.773 79.0896 124.723 78.8222C124.651 78.4387 124.376 78.231 124.024 78.1481C123.604 78.0498 123.187 78.1492 122.795 78.294C122.343 78.4597 121.86 78.5647 121.488 78.9183C121.389 79.0134 121.221 79.0078 121.075 78.9714C121.711 76.9403 123.36 75.7214 125.449 75.6717C126.845 75.6385 128.193 75.9579 129.56 76.1413C130.536 76.2728 131.427 76.0617 132.295 75.6252C133.073 75.234 133.833 74.7799 134.704 74.6263C135.459 74.4937 136.185 74.5379 136.793 75.1898C135.969 75.8882 134.983 76.2386 134.071 76.6983C132.992 77.2431 131.859 77.6873 130.659 77.9381C129.569 78.1658 128.533 78.0575 127.517 77.6243C127.238 77.505 126.953 77.4011 126.606 77.2652C127.126 78.1978 127.907 78.6929 129.501 79.1526C128.288 80.2776 124.572 81.9363 119.055 81.7318C119.907 82.4645 120.809 82.9529 121.78 83.3077C124.175 84.1829 126.601 84.0248 129.029 83.4767C130.751 83.0878 132.404 82.4767 134.035 81.8037C134.37 81.6655 134.629 81.344 135.064 81.3738C135.041 81.6291 134.821 81.7208 134.672 81.8468C133.912 82.4899 133.093 83.0391 132.234 83.5453C130.206 84.742 127.622 85.5288 125.357 85.4835C123.649 85.4493 121.959 85.2194 120.337 84.6337C119.146 84.2039 117.968 83.732 116.774 83.3132C114.817 82.6292 112.886 81.8622 110.805 81.6092C108.275 81.302 105.912 81.7407 103.662 82.9905C101.75 84.0536 99.9482 85.2924 98.0725 86.4129C95.229 88.1114 92.3025 88.3236 89.2397 87.1389C88.8862 87.0052 88.5763 86.7765 88.1038 86.5997Z" fill="#B31821"/>
<path d="M159.788 105.555C158.39 105.555 157.082 105.544 155.776 105.561C155.405 105.567 155.364 105.286 155.325 105.071C155.062 103.642 154.515 102.291 154.201 100.878C154.195 100.852 154.163 100.832 154.096 100.755C153.866 101.34 153.646 101.888 153.435 102.438C153.067 103.393 152.698 104.348 152.346 105.308C152.263 105.534 152.118 105.557 151.924 105.556C150.889 105.551 149.855 105.554 148.746 105.554C148.833 104.917 149.083 104.375 149.292 103.823C149.655 102.862 150.036 101.906 150.41 100.949C151.159 99.0349 151.911 97.1231 152.656 95.2069C153.251 93.6731 153.85 92.1404 154.412 90.5933C154.536 90.2551 154.687 90.1479 155.025 90.1512C156.733 90.1656 158.443 90.1214 160.151 90.1766C161.132 90.2087 162.15 90.2463 162.942 91.0043C163.76 91.7878 163.897 92.778 163.763 93.8333C163.551 95.5196 162.785 96.975 161.668 98.1873C160.672 99.268 159.449 100.084 157.937 100.33C158.551 102.067 159.156 103.77 159.788 105.555ZM155.22 97.8679C155.805 97.8679 156.294 97.8966 156.777 97.8624C158.302 97.7563 159.455 96.7794 159.819 95.3119C160.039 94.4245 159.662 93.8201 158.756 93.7118C158.201 93.6455 157.635 93.6819 157.074 93.6631C156.899 93.6576 156.81 93.7383 156.751 93.8908C156.253 95.1859 155.755 96.4799 155.22 97.8679Z" fill="#5B595C"/>
<path d="M147.131 90.1592C147.051 95.3066 146.971 100.397 146.892 105.521C145.541 105.521 144.241 105.521 142.936 105.521C142.713 104.815 143.038 104.118 142.971 103.339C142.404 103.339 141.847 103.339 141.291 103.339C140.346 103.339 139.4 103.348 138.455 103.334C138.173 103.329 137.963 103.381 137.844 103.669C137.574 104.318 136.969 104.721 136.638 105.33C136.556 105.48 136.428 105.562 136.239 105.56C135.041 105.554 133.842 105.557 132.598 105.557C132.758 104.955 133.175 104.569 133.499 104.136C134.786 102.415 136.06 100.681 137.403 99.0052C138.775 97.2935 140 95.4679 141.416 93.7904C142.075 93.0103 142.623 92.1339 143.236 91.3129C143.498 90.9626 143.804 90.6454 144.08 90.305C144.187 90.1724 144.317 90.1592 144.466 90.1603C145.318 90.1603 146.171 90.1592 147.131 90.1592ZM140.356 100.156C141.382 100.156 142.315 100.156 143.273 100.156C143.453 98.4549 143.63 96.7796 143.823 94.9585C142.63 96.7454 141.519 98.4107 140.356 100.156Z" fill="#5B595C"/>
<path d="M107.124 90.1658C107.051 95.3231 106.978 100.401 106.906 105.52C105.574 105.52 104.274 105.52 102.94 105.52C102.813 104.817 103.057 104.114 103 103.338C102.353 103.338 101.722 103.338 101.091 103.338C100.237 103.338 99.3816 103.355 98.5283 103.33C98.1966 103.322 97.9773 103.442 97.7973 103.701C97.5267 104.087 97.1971 104.442 96.9865 104.859C96.6723 105.48 96.2031 105.604 95.5681 105.573C94.5719 105.525 93.5724 105.56 92.502 105.56C92.7551 104.925 93.221 104.517 93.568 104.041C94.6231 102.592 95.7459 101.195 96.8349 99.7721C98.1333 98.0736 99.4253 96.3685 100.718 94.6645C101.757 93.2953 102.79 91.9206 103.833 90.5548C103.972 90.3735 104.111 90.1636 104.388 90.1636C105.273 90.1669 106.16 90.1658 107.124 90.1658ZM103.274 100.151C103.453 98.4726 103.627 96.8293 103.803 95.1872C103.767 95.1773 103.731 95.1673 103.695 95.1585C102.597 96.8028 101.498 98.4471 100.36 100.152C101.364 100.151 102.282 100.151 103.274 100.151Z" fill="#5B595C"/>
<path d="M132.346 69.2411C133.376 68.4002 134.561 67.8819 135.822 67.5117C138.71 66.6641 141.387 67.0995 143.872 68.8544C143.583 68.1283 143.028 67.5979 142.104 67.0885C141.355 66.6763 140.54 66.4442 139.743 66.1381C140.488 65.9226 141.233 65.9934 141.966 66.1249C142.681 66.2541 143.353 66.5348 144.028 66.8122C145.422 67.3879 146.643 68.3007 148.042 68.8698C149.379 69.4135 150.74 69.608 152.148 69.2721C152.709 69.1384 153.211 68.7836 153.814 68.7792C153.679 69.7462 153.103 70.2633 151.502 70.8059C152.317 71.0855 153.054 71.3573 153.803 71.5905C154.356 71.7629 154.86 72.0646 155.433 72.1884C155.6 72.2248 155.778 72.4149 155.868 72.5795C156.991 74.6725 158.842 75.8715 160.915 76.7799C161.736 77.1391 162.598 77.4021 163.464 77.7181C163.443 78.3834 163.632 79.0221 163.833 79.6453C163.998 80.1581 163.873 80.5449 163.539 80.8996C163.278 81.1781 162.992 81.4333 162.67 81.745C162.584 81.4002 162.512 81.0742 162.419 80.7537C161.642 78.0596 159.753 76.5014 157.243 75.592C155.341 74.9024 153.357 74.6946 151.355 74.6051C151.157 74.5963 150.96 74.5852 150.698 74.572C150.908 73.668 151.932 73.3984 152.167 72.5166C149.284 70.7507 146.238 69.8025 142.735 70.2423C143.41 70.8678 144.18 71.1164 144.871 71.5673C144.143 72.1663 143.407 72.0314 142.634 71.7994C141.71 71.5209 140.857 71.0369 139.907 70.8391C137.469 70.3307 135.265 70.9352 133.23 72.311C132.868 72.5552 132.514 72.8083 132.166 73.0945C134.765 72.4403 137.351 71.5839 140.01 72.8569C139.615 73.6868 138.452 74.2128 137.668 73.962C136.804 73.6846 135.935 73.7951 135.08 73.983C133.573 74.3134 132.076 74.688 130.574 75.0416C129.755 75.2339 128.951 75.1168 128.153 74.9101C126.553 74.4957 125.277 73.6073 124.339 72.2303C124.308 72.1861 124.293 72.1309 124.276 72.0801C124.272 72.0712 124.294 72.0535 124.332 72.0049C124.804 72.3 125.276 72.5994 125.833 72.7508C127.212 73.1266 128.519 72.8116 129.823 72.4061C131.857 71.774 133.754 70.7982 135.719 69.9904C136.352 69.7296 136.974 69.439 137.642 69.1439C136.905 68.6245 136.124 68.724 135.361 68.7836C134.362 68.8621 133.4 69.1494 132.424 69.3594C132.398 69.3174 132.372 69.2787 132.346 69.2411Z" fill="#B31821"/>
<path d="M177.134 100.436C177.069 100.796 176.99 101.098 176.962 101.405C176.892 102.181 177.325 102.598 178.075 102.501C178.881 102.399 179.748 101.537 179.886 100.726C179.968 100.247 179.737 99.9377 179.378 99.7178C178.712 99.3078 178.02 98.9398 177.353 98.5331C175.812 97.596 175.353 96.2932 175.976 94.5825C176.876 92.1127 178.72 90.7413 181.159 90.0849C182.133 89.823 183.099 89.7655 184.1 90.0407C185.878 90.5303 186.531 91.8961 186.121 93.6576C185.882 94.6853 185.867 94.682 184.804 94.6831C183.951 94.6842 183.098 94.6831 182.252 94.6831C182.086 94.3836 182.16 94.0852 182.147 93.7968C182.13 93.42 181.966 93.241 181.567 93.2421C180.687 93.2454 180.007 93.6697 179.724 94.44C179.516 95.0013 179.643 95.3362 180.132 95.6412C180.878 96.1075 181.611 96.5949 182.352 97.07C183.844 98.027 184.106 99.3741 183.478 101.023C182.644 103.219 181.157 104.707 178.981 105.485C177.595 105.981 176.179 106.012 174.761 105.621C173.86 105.372 172.887 104.444 172.858 103.134C172.84 102.258 173.133 101.491 173.39 100.698C173.44 100.544 173.506 100.433 173.686 100.433C174.827 100.436 175.967 100.436 177.134 100.436Z" fill="#5B595C"/>
<path d="M175.572 90.1591C175.628 90.5459 175.404 90.8177 175.298 91.1183C175.06 91.7968 174.765 92.4555 174.538 93.1373C174.408 93.5274 174.222 93.6843 173.796 93.6721C172.651 93.6401 171.505 93.6788 170.36 93.6511C169.985 93.6423 169.808 93.7661 169.691 94.1197C169.491 94.723 169.245 95.3098 168.987 95.9828C170.455 95.9828 171.842 95.9828 173.295 95.9828C172.86 97.1155 172.448 98.1709 172.051 99.2317C171.945 99.5146 171.729 99.477 171.514 99.477C170.387 99.477 169.26 99.4914 168.133 99.4693C167.773 99.4627 167.575 99.5489 167.454 99.9213C167.227 100.615 166.94 101.288 166.651 102.04C168.123 102.04 169.545 102.04 171.087 102.04C170.818 102.739 170.581 103.347 170.351 103.957C170.251 104.221 170.155 104.485 170.07 104.756C169.922 105.228 169.75 105.598 169.066 105.578C166.831 105.512 164.594 105.555 162.358 105.553C162.164 105.553 161.963 105.595 161.752 105.482C162.216 104.17 162.725 102.894 163.209 101.607C163.772 100.105 164.402 98.6295 164.921 97.1089C165.196 96.3022 165.525 95.5054 165.844 94.7109C166.162 93.9163 166.468 93.1163 166.776 92.3173C167.006 91.7184 167.221 91.1128 167.468 90.5216C167.547 90.3359 167.647 90.1492 167.938 90.1514C170.48 90.1646 173.023 90.1591 175.572 90.1591Z" fill="#5B595C"/>
<path d="M124.865 105.555C125.288 104.408 125.663 103.354 126.062 102.309C126.78 100.433 127.51 98.561 128.24 96.6901C128.922 94.9452 129.614 93.2047 130.295 91.4587C130.463 91.0267 130.469 90.4167 130.864 90.2255C131.252 90.0376 131.79 90.1603 132.261 90.1592C134.369 90.1559 136.476 90.1581 138.618 90.1581C138.543 91.02 137.997 91.6764 137.835 92.4544C137.603 93.5617 136.929 93.7971 135.916 93.6821C135.108 93.5904 134.282 93.6744 133.465 93.6589C133.156 93.6534 132.98 93.7219 132.87 94.0601C132.642 94.7585 132.347 95.4348 132.046 96.2072C133.477 96.2072 134.808 96.2072 136.184 96.2072C135.904 97.4184 135.262 98.4118 134.926 99.5235C134.856 99.7545 134.635 99.697 134.459 99.697C133.35 99.6981 132.24 99.7103 131.132 99.6926C130.787 99.6871 130.63 99.8175 130.51 100.142C129.895 101.805 129.248 103.456 128.627 105.117C128.509 105.435 128.348 105.572 127.995 105.563C126.998 105.537 126 105.555 124.865 105.555Z" fill="#5B595C"/>
<path d="M118.029 102.053C117.804 102.949 117.439 103.714 117.147 104.504C117.067 104.723 116.997 104.945 116.916 105.163C116.838 105.376 116.733 105.557 116.464 105.556C113.958 105.549 111.451 105.546 108.944 105.539C108.914 105.539 108.883 105.505 108.824 105.47C109.036 104.682 109.408 103.945 109.667 103.168C110.171 101.653 110.831 100.2 111.372 98.6991C111.792 97.5344 112.258 96.3763 112.721 95.2226C113.272 93.8479 113.799 92.4621 114.293 91.0653C114.587 90.2376 114.637 90.1603 115.545 90.1592C116.485 90.1581 117.427 90.1592 118.452 90.1592C117.666 92.1671 116.898 94.1054 116.149 96.0514C115.39 98.025 114.651 100.006 113.877 102.053C115.273 102.053 116.622 102.053 118.029 102.053Z" fill="#5B595C"/>
<path d="M155.205 79.5825C154.778 79.9692 154.352 80.3549 153.925 80.7417C153.941 80.7881 153.959 80.8345 153.975 80.8809C156.7 80.5803 159.443 80.1051 162.062 81.6854C161.738 81.8412 161.513 81.7362 161.283 81.6732C160.455 81.4456 159.661 81.0809 158.782 81.0831C158.398 81.0842 158.022 81.1119 157.659 81.3859C158.257 82.7197 159.504 82.6512 160.653 82.7938C160.158 83.5552 159.759 83.7231 159.005 83.406C158.107 83.0292 157.293 82.4744 156.392 82.0932C155.194 81.5859 153.958 81.4058 152.685 81.5915C152.322 81.6445 151.965 81.5793 151.614 81.6522C149.916 82.0003 148.309 82.5683 146.872 83.5872C146.524 83.8336 146.119 84.0005 145.776 84.2735C143.978 85.7056 142.668 87.5091 141.773 89.633C141.668 89.8806 141.546 90.1215 141.431 90.3646C141.424 90.3801 141.404 90.3889 141.322 90.3789C141.709 88.6816 142.02 86.9787 142.894 85.4128C143.785 83.8149 145.164 82.7507 146.517 81.6301C146.496 81.5042 146.384 81.5196 146.313 81.5008C145.258 81.2191 144.672 80.3925 144.178 79.5195C143.68 78.6431 143.596 77.6839 143.907 76.6949C144.009 76.37 144.178 76.2032 144.491 76.1324C145.001 76.0175 145.508 75.9125 146.015 75.9656C146.103 76.1667 146.012 76.3015 145.984 76.4385C145.577 78.3912 146.38 79.7637 148.299 80.2809C150.336 80.8301 152.33 80.5682 154.281 79.8289C154.565 79.7217 154.845 79.6012 155.126 79.4863C155.151 79.5173 155.178 79.5493 155.205 79.5825Z" fill="#B31821"/>
<path d="M221.933 99.1775C221.819 99.6803 221.4 99.7013 221.13 99.9113C220.437 100.448 219.705 100.695 218.795 100.68C214.922 100.618 211.048 100.689 207.176 100.606C205.643 100.573 204.091 100.691 202.57 100.34C202.421 100.306 202.274 100.292 202.23 100.121C202.177 99.9146 202.32 99.824 202.474 99.7466C203.112 99.4294 203.762 99.2173 204.496 99.2173C210.115 99.2184 215.734 99.1941 221.352 99.1775C221.534 99.1775 221.714 99.1775 221.933 99.1775Z" fill="#DE9488"/>
<path d="M227.579 90.9304C226.499 91.6564 225.596 92.4024 224.199 92.3582C220.421 92.241 216.638 92.2852 212.856 92.2664C211.605 92.2598 210.352 92.2653 209.1 92.2521C208.272 92.2432 207.925 91.8355 208.044 90.9304C214.506 90.9304 220.982 90.9304 227.579 90.9304Z" fill="#DE9488"/>
<path d="M199.404 104.747C205.783 104.406 212.15 104.588 218.537 104.606C217.56 105.124 216.817 106.02 215.575 106.004C211.74 105.952 207.903 105.964 204.067 105.959C202.778 105.958 201.496 105.867 200.214 105.758C200.015 105.742 199.851 105.701 199.804 105.479C199.75 105.217 199.565 105.041 199.404 104.747Z" fill="#DE9488"/>
<path d="M220.243 101.869C220.196 102.161 219.985 102.216 219.819 102.308C219.406 102.536 218.988 102.748 218.637 103.078C218.419 103.283 218.131 103.33 217.833 103.328C212.87 103.285 207.908 103.247 202.946 103.202C202.571 103.199 202.202 103.136 201.818 103.186C201.526 103.223 201.167 103.163 201.218 102.693C201.24 102.493 201.055 102.371 201.029 102.191C201.262 101.958 201.529 101.887 201.832 101.886C207.887 101.876 213.941 101.863 219.996 101.851C220.065 101.851 220.137 101.862 220.243 101.869Z" fill="#DE9488"/>
<path d="M225.758 93.6664C225.224 94.0223 224.708 94.3483 224.213 94.7041C223.855 94.9605 223.477 95.04 223.043 95.0356C220.663 95.0157 218.283 95.0655 215.906 94.9992C213.237 94.924 210.568 94.9406 207.899 94.924C207.55 94.9218 207.316 94.6345 207 94.6798C206.832 94.5151 206.894 94.3107 206.841 94.1394C206.724 93.7637 206.898 93.5913 207.277 93.5913C208.312 93.5913 209.348 93.5836 210.382 93.5814C215.323 93.5681 220.263 93.5548 225.203 93.5471C225.378 93.546 225.587 93.4576 225.758 93.6664Z" fill="#DE9488"/>
<path d="M113.07 111.183C112.997 112.875 113.215 114.529 112.958 116.166C112.786 117.262 111.867 117.953 110.748 117.995C109.961 118.025 109.238 117.939 108.675 117.269C108.436 116.984 108.316 116.701 108.293 116.26C108.915 116.347 109.531 116.024 110.091 116.561C110.37 116.828 110.773 116.777 111.106 116.576C111.469 116.357 111.694 116.046 111.644 115.551C111.038 115.962 110.438 116.301 109.71 115.98C108.949 115.646 108.405 115.088 108.242 114.264C107.97 112.889 108.364 111.288 110.136 110.986C110.261 110.965 110.409 110.921 110.513 110.966C111.311 111.318 112.156 111.102 113.07 111.183ZM110.616 112.357C110 112.362 109.566 112.852 109.578 113.526C109.59 114.148 110.052 114.657 110.614 114.666C111.221 114.676 111.669 114.179 111.662 113.506C111.655 112.804 111.243 112.351 110.616 112.357Z" fill="#5B595C"/>
<path d="M205.285 97.4601C205.461 97.448 205.638 97.4358 205.865 97.4203C205.785 97.1507 205.846 96.9131 205.902 96.67C205.95 96.4567 206.054 96.3506 206.267 96.3374C206.683 96.3098 207.098 96.2501 207.513 96.249C212.822 96.2335 218.13 96.2258 223.438 96.2225C223.624 96.2225 223.833 96.1429 224.072 96.3893C223.011 96.8534 222.255 97.7541 220.953 97.7209C217.555 97.6347 214.154 97.7176 210.755 97.6469C208.923 97.6082 207.089 97.6148 205.285 97.4601Z" fill="#DE9488"/>
<path d="M98.6641 111.976C98.1676 111.976 97.7159 111.985 97.2652 111.972C97.1136 111.968 96.999 111.922 96.8866 111.747C96.413 111.013 95.8369 110.775 95.2281 110.993C94.473 111.261 94.0016 111.991 94.0824 112.824C94.2122 114.176 95.215 114.782 96.2308 114.379C96.5363 114.258 96.7164 113.991 96.8899 113.752C97.0983 113.465 97.3056 113.396 97.6417 113.453C97.957 113.506 98.2887 113.464 98.6172 113.464C98.5179 114.831 97.1845 115.978 95.9853 116.002C93.9962 116.042 92.5024 114.776 92.462 112.953C92.4249 111.247 93.3371 109.648 95.3437 109.441C96.8353 109.289 98.3542 110.28 98.6641 111.976Z" fill="#5B595C"/>
<path d="M181.7 111.98C181.228 111.98 180.796 111.97 180.364 111.983C180.095 111.992 179.987 111.785 179.861 111.624C179.313 110.924 178.8 110.746 178.091 111.035C177.496 111.277 176.991 112.155 177.126 112.839C177.361 114.035 177.59 114.263 178.657 114.501C179.139 114.61 179.526 114.296 179.752 113.935C180.041 113.472 180.417 113.453 180.86 113.478C181.129 113.494 181.399 113.481 181.672 113.481C181.55 114.782 180.249 115.965 178.752 116.011C176.726 116.074 175.743 114.527 175.499 112.883C175.277 111.375 176.589 109.775 177.997 109.493C179.921 109.11 181.457 110.483 181.7 111.98Z" fill="#5B595C"/>
<path d="M172.077 112.737C172.077 113.564 172.049 114.392 172.086 115.218C172.109 115.729 171.984 115.987 171.432 115.898C171.15 115.853 170.857 115.948 170.578 115.802C170.392 115.704 170.233 115.857 170.069 115.921C169.181 116.268 168.247 116.015 167.698 115.258C166.828 114.057 166.915 112.659 167.844 111.583C168.395 110.945 169.189 110.812 170.012 111.063C170.597 111.24 170.632 111.212 170.572 110.604C170.57 110.586 170.572 110.567 170.571 110.549C170.506 109.601 170.957 109.249 171.859 109.534C172.097 109.609 172.073 109.795 172.073 109.978C172.077 110.899 172.077 111.818 172.077 112.737ZM168.576 113.441C168.554 114.148 168.968 114.629 169.625 114.662C170.237 114.693 170.732 114.182 170.754 113.5C170.774 112.863 170.309 112.363 169.686 112.353C169.029 112.342 168.597 112.767 168.576 113.441Z" fill="#5B595C"/>
<path d="M121.964 113.736C122.39 113.736 122.804 113.737 123.217 113.736C123.451 113.734 123.519 113.866 123.54 114.083C123.574 114.425 123.786 114.626 124.123 114.585C124.357 114.557 124.523 114.413 124.552 114.117C124.588 113.743 124.425 113.62 124.111 113.462C123.477 113.143 122.741 112.973 122.318 112.3C121.682 111.286 122.045 110.13 123.097 109.637C124.101 109.166 125.192 109.424 125.914 110.319C126.115 110.57 126.157 110.87 126.146 111.182C126.144 111.249 126.125 111.333 126.083 111.381C125.868 111.615 124.639 111.432 124.496 111.133C124.396 110.924 124.264 110.801 124.037 110.84C123.855 110.872 123.684 110.952 123.639 111.164C123.593 111.374 123.608 111.587 123.804 111.704C124.16 111.916 124.528 112.106 124.898 112.29C125.614 112.647 126.207 113.122 126.211 114.003C126.217 114.917 125.767 115.673 124.928 115.929C124.24 116.14 123.431 116.173 122.755 115.71C122.087 115.251 121.853 114.59 121.964 113.736Z" fill="#5B595C"/>
<path d="M203.93 111.16C203.93 112.764 203.93 114.287 203.93 115.897C203.428 115.749 202.952 116.272 202.453 115.808C202.342 115.704 202.147 115.822 201.996 115.894C200.866 116.43 199.86 115.902 199.325 114.987C198.783 114.057 198.79 113.064 199.315 112.074C199.736 111.279 200.841 110.727 201.731 111.056C202.106 111.195 202.466 111.232 202.864 111.171C203.197 111.12 203.546 111.16 203.93 111.16ZM201.425 112.349C200.825 112.359 200.382 112.862 200.392 113.523C200.401 114.157 200.893 114.685 201.466 114.677C202.106 114.668 202.547 114.179 202.542 113.483C202.535 112.782 202.098 112.338 201.425 112.349Z" fill="#5B595C"/>
<path d="M159.608 111.413C160.036 110.877 160.569 111.239 161.052 111.086C161.052 112.705 161.052 114.259 161.052 115.896C160.582 115.803 160.091 116.097 159.63 115.715C159.495 115.603 159.354 115.763 159.245 115.836C157.929 116.725 156.25 115.253 156.156 114.037C156.095 113.244 156.183 112.57 156.627 111.909C157.385 110.783 158.78 110.701 159.608 111.413ZM159.692 113.511C159.702 112.83 159.281 112.358 158.654 112.347C158.024 112.336 157.59 112.784 157.57 113.465C157.552 114.121 157.993 114.651 158.582 114.677C159.215 114.706 159.681 114.216 159.692 113.511Z" fill="#5B595C"/>
<path d="M102.795 111.414C103.178 110.84 103.726 111.285 104.213 111.069C104.213 112.735 104.213 114.287 104.213 115.909C103.715 115.795 103.223 116.09 102.759 115.736C102.693 115.685 102.492 115.803 102.36 115.856C100.843 116.471 99.3909 115.499 99.3397 113.836C99.3178 113.109 99.3069 112.406 99.8394 111.799C100.64 110.887 101.777 110.647 102.795 111.414ZM101.866 112.348C101.231 112.317 100.769 112.745 100.729 113.402C100.685 114.107 101.147 114.664 101.784 114.677C102.37 114.689 102.851 114.19 102.876 113.543C102.902 112.882 102.477 112.378 101.866 112.348Z" fill="#5B595C"/>
<path d="M193.576 111.405C194.049 110.909 194.565 111.207 195.057 111.121C195.057 112.744 195.057 114.295 195.057 115.913C194.538 115.812 194.05 116.043 193.562 115.766C193.446 115.699 193.204 115.852 193.023 115.915C191.993 116.269 190.999 115.905 190.474 114.935C189.849 113.779 190.023 112.438 190.904 111.501C191.495 110.872 192.258 110.909 193.001 110.971C193.217 110.989 193.412 111.275 193.576 111.405ZM192.599 112.355C191.986 112.354 191.542 112.825 191.532 113.489C191.523 114.12 191.996 114.662 192.573 114.679C193.191 114.699 193.682 114.189 193.693 113.516C193.704 112.836 193.252 112.356 192.599 112.355Z" fill="#5B595C"/>
<path d="M152.683 114.377C152.348 115.453 151.065 116.306 150.218 116.105C148.726 115.752 147.921 114.293 148.114 113.262C148.455 111.441 149.533 110.86 150.734 110.972C152.141 111.102 152.982 112.293 152.86 113.917C151.79 113.917 150.712 113.917 149.629 113.917C149.706 114.636 150.343 115.06 150.845 114.697C151.426 114.279 152.023 114.359 152.683 114.377ZM151.491 112.908C151.284 112.373 150.928 112.207 150.449 112.228C150.023 112.247 149.751 112.453 149.593 112.908C150.234 112.908 150.824 112.908 151.491 112.908Z" fill="#5B595C"/>
<path d="M186.219 114.014C186.411 114.653 187.059 115.046 187.524 114.689C188.093 114.253 188.675 114.382 189.353 114.367C189.086 114.977 188.735 115.409 188.212 115.764C186.771 116.748 185.226 115.517 184.776 114.181C184.356 112.932 185.307 111.329 186.607 111.022C187.949 110.704 189.232 111.612 189.444 113.031C189.457 113.12 189.476 113.21 189.492 113.299C189.594 113.863 189.528 113.944 188.974 113.948C188.084 113.952 187.193 113.957 186.304 113.964C186.277 113.964 186.247 113.997 186.219 114.014ZM186.239 112.892C186.878 112.892 187.46 112.892 188.09 112.892C187.912 112.394 187.594 112.226 187.154 112.226C186.715 112.226 186.389 112.381 186.239 112.892Z" fill="#5B595C"/>
<path d="M220.027 113.973C218.924 113.973 217.844 113.973 216.744 113.973C217.015 114.718 217.575 115.051 218.067 114.675C218.648 114.232 219.243 114.394 219.849 114.364C219.809 115.267 218.205 116.292 217.564 116.128C215.74 115.662 215.13 114.326 215.343 113.11C215.617 111.544 216.8 110.815 217.976 110.972C219.363 111.157 220.237 112.426 220.027 113.973ZM218.672 112.911C218.479 112.312 218.058 112.179 217.552 112.237C217.172 112.281 216.88 112.459 216.834 112.911C217.456 112.911 218.045 112.911 218.672 112.911Z" fill="#5B595C"/>
<path d="M131.275 114.367C130.799 115.591 129.47 116.355 128.54 116.025C126.714 115.378 126.444 113.902 126.799 112.748C127.273 111.205 128.416 110.693 129.755 111.07C130.909 111.394 131.697 112.821 131.366 113.95C130.84 113.95 130.298 113.95 129.755 113.95C129.232 113.95 128.707 113.95 128.178 113.95C128.27 114.622 128.993 115.067 129.484 114.686C130.056 114.241 130.637 114.394 131.275 114.367ZM130.026 112.925C129.857 112.336 129.478 112.202 129.011 112.229C128.588 112.255 128.27 112.427 128.192 112.925C128.804 112.925 129.379 112.925 130.026 112.925Z" fill="#5B595C"/>
<path d="M116.18 116.017C114.813 116.144 113.742 114.733 113.849 113.433C113.968 111.988 114.683 110.983 116.313 110.966C117.698 110.952 118.74 112.13 118.741 113.569C118.742 115.009 117.447 116.197 116.18 116.017ZM117.343 113.519C117.352 112.862 116.947 112.38 116.369 112.36C115.755 112.338 115.307 112.799 115.282 113.476C115.258 114.104 115.746 114.653 116.325 114.649C116.902 114.643 117.333 114.166 117.343 113.519Z" fill="#5B595C"/>
<path d="M163.572 115.868C163.086 115.868 162.662 115.868 162.199 115.868C162.199 114.308 162.199 112.772 162.199 111.233C162.296 111.121 162.431 111.166 162.553 111.163C163.143 111.144 163.715 111.196 164.317 111.004C165.207 110.719 166.212 111.407 166.279 112.335C166.363 113.499 166.3 114.675 166.3 115.905C165.863 115.905 165.455 115.905 165.008 115.905C164.915 115.201 164.993 114.43 164.969 113.662C164.962 113.459 164.997 113.247 164.948 113.057C164.84 112.642 164.599 112.307 164.126 112.373C163.721 112.429 163.57 112.751 163.572 113.153C163.575 114.049 163.572 114.945 163.572 115.868Z" fill="#5B595C"/>
<path d="M205.047 115.892C205.047 114.297 205.047 112.759 205.047 111.171C205.468 111.118 205.889 111.033 206.3 111.219C206.413 111.271 206.474 111.272 206.586 111.217C207.853 110.596 208.986 111.11 209.144 112.495C209.271 113.596 209.169 114.725 209.169 115.852C208.699 115.932 208.271 116.015 207.787 115.819C207.787 115.149 207.764 114.453 207.797 113.76C207.813 113.404 207.698 113.079 207.665 112.738C207.63 112.394 207.264 112.392 207.033 112.38C206.725 112.364 206.486 112.594 206.446 112.911C206.394 113.31 206.398 113.717 206.392 114.12C206.385 114.688 206.39 115.255 206.39 115.836C205.939 115.947 205.528 115.882 205.047 115.892Z" fill="#5B595C"/>
<path d="M214.72 113.006C214.351 113.006 214.025 113.007 213.699 113.005C213.5 113.004 213.364 112.961 213.207 112.77C212.929 112.432 212.515 112.223 212.063 112.407C211.607 112.594 211.294 113.278 211.389 113.743C211.495 114.259 211.92 114.675 212.364 114.694C212.574 114.702 212.801 114.605 212.893 114.478C213.38 113.814 214.055 114.092 214.671 114.035C214.605 115.037 213.486 116.155 212.521 116.119C211.09 116.066 210.202 115.256 209.966 113.737C209.753 112.365 210.862 111.069 212.026 110.976C213.247 110.881 214.445 111.447 214.72 113.006Z" fill="#5B595C"/>
<path d="M147.521 114.032C147.29 115.267 146.129 116.196 144.976 116.124C143.982 116.062 142.77 114.772 142.751 113.701C142.727 112.426 143.471 111.151 144.837 110.973C145.847 110.84 147.218 111.393 147.522 112.927C147.086 113.082 146.61 113.063 146.194 112.973C145.967 112.925 145.857 112.5 145.489 112.417C144.97 112.301 144.594 112.401 144.359 112.856C144.059 113.436 144.184 114.126 144.654 114.481C145.05 114.78 145.481 114.768 145.844 114.362C146.344 113.802 146.946 114.126 147.521 114.032Z" fill="#5B595C"/>
<path d="M99.9609 80.5991C100.196 79.757 100.729 79.2465 101.207 78.6917C101.878 77.9116 102.74 77.3878 103.597 76.8706C104.269 76.465 105.039 76.2507 105.791 76.0495C107.539 75.5821 109.301 75.2771 111.106 75.7932C111.649 75.949 112.735 76.5943 113.16 77.1855C108.151 75.9037 103.924 77.474 99.9609 80.5991Z" fill="#B31821"/>
<path d="M135.387 111.177C135.501 111.15 135.553 111.128 135.605 111.125C136.775 111.061 136.767 111.064 137.073 112.211C137.203 112.7 137.376 113.178 137.544 113.704C137.981 113.294 137.837 112.708 138.043 112.247C138.158 111.986 138.285 111.693 138.352 111.395C138.393 111.216 138.508 111.121 138.707 111.125C139.066 111.135 139.426 111.128 139.801 111.128C139.686 112.1 139.222 112.898 138.971 113.765C138.821 114.286 138.637 114.798 138.448 115.306C138.343 115.592 138.327 115.951 137.84 115.914C137.363 115.878 136.859 115.999 136.688 115.351C136.338 114.017 135.739 112.764 135.428 111.417C135.412 111.35 135.404 111.28 135.387 111.177Z" fill="#5B595C"/>
<path d="M183.972 115.867C183.49 115.867 183.065 115.867 182.607 115.867C182.607 113.769 182.607 111.697 182.607 109.604C182.95 109.472 183.314 109.553 183.671 109.539C183.862 109.531 183.975 109.625 183.975 109.838C183.972 111.838 183.972 113.838 183.972 115.867Z" fill="#5B595C"/>
<path d="M132.283 115.898C132.283 114.368 132.286 112.918 132.281 111.468C132.28 111.202 132.409 111.074 132.647 111.128C132.973 111.202 133.405 110.881 133.644 111.389C133.774 111.406 133.759 111.239 133.836 111.185C134.06 111.028 134.333 110.9 134.585 110.983C134.842 111.068 134.708 111.366 134.737 111.573C134.812 112.087 134.746 112.493 134.121 112.598C133.771 112.656 133.682 112.957 133.683 113.288C133.687 114.131 133.684 114.975 133.684 115.833C133.217 115.953 132.789 115.871 132.283 115.898Z" fill="#5B595C"/>
<path d="M105.32 115.896C105.32 114.363 105.32 112.915 105.32 111.466C105.32 111.141 105.397 111.066 105.77 111.131C106.397 111.239 107.053 111.238 107.658 110.878C107.805 111.371 107.731 111.775 107.736 112.173C107.742 112.529 107.402 112.548 107.197 112.578C106.813 112.634 106.722 112.852 106.722 113.178C106.721 113.894 106.692 114.611 106.73 115.325C106.755 115.803 106.572 115.947 106.134 115.902C105.887 115.875 105.635 115.896 105.32 115.896Z" fill="#5B595C"/>
<path d="M196.143 111.106C196.649 111.227 197.145 110.868 197.541 111.411C197.698 110.866 198.147 111.024 198.588 110.937C198.588 111.385 198.584 111.766 198.59 112.149C198.595 112.4 198.435 112.436 198.241 112.473C197.696 112.578 197.496 112.927 197.516 113.479C197.543 114.265 197.522 115.052 197.522 115.868C197.043 115.868 196.616 115.868 196.173 115.868C196.162 115.718 196.144 115.592 196.144 115.466C196.142 114.052 196.143 112.636 196.143 111.106Z" fill="#5B595C"/>
<path d="M141.945 115.875C141.487 115.875 141.074 115.875 140.57 115.875C140.57 114.315 140.57 112.764 140.57 111.186C141.059 111.186 141.487 111.186 141.945 111.186C141.945 112.739 141.945 114.275 141.945 115.875Z" fill="#5B595C"/>
<path d="M141.959 109.576C141.959 109.954 141.959 110.282 141.959 110.634C141.522 110.761 141.088 110.669 140.638 110.698C140.498 110.336 140.623 109.97 140.557 109.576C141.029 109.576 141.47 109.576 141.959 109.576Z" fill="#5B595C"/>
<path d="M132.426 69.3563C132.364 69.3983 132.275 69.4303 132.237 69.3651C132.188 69.2789 132.292 69.2679 132.348 69.2402C132.373 69.2789 132.399 69.3176 132.426 69.3563Z" fill="#B31821"/>
</g>
<defs>
<clipPath id="clip0_16_9143">
<rect width="139.579" height="52" fill="white" transform="translate(88 66)"/>
</clipPath>
</defs>
</svg>
