<svg width="315" height="184" viewBox="0 0 315 184" fill="none" xmlns="http://www.w3.org/2000/svg">
<g clip-path="url(#clip0_16_9180)">
<path d="M179.626 84.2634C177.793 89.4095 175.99 94.4668 174.171 99.578C173.535 99.578 172.938 99.578 172.176 99.578C171.417 97.2239 170.629 94.7812 169.75 92.0537C168.789 94.7275 167.915 97.1568 167.033 99.6021C166.362 99.6021 165.766 99.6021 165.054 99.6021C163.444 94.5313 161.831 89.4578 160.188 84.2822C161.269 84.2822 162.248 84.2822 163.323 84.2822C164.349 87.5795 165.386 90.9116 166.533 94.5985C167.245 92.5965 167.883 90.9896 168.386 89.3396C168.938 87.523 167.509 86.0612 167.407 84.2796C168.37 84.2796 169.352 84.2796 170.459 84.2796C171.425 87.4478 172.404 90.6644 173.501 94.2653C174.694 90.7182 175.773 87.5042 176.864 84.2634C177.783 84.2634 178.636 84.2634 179.626 84.2634Z" fill="#282526"/>
<path d="M114.741 80.6168C115 80.7592 115.115 80.9795 115.086 81.2778C113.922 81.5465 112.757 81.8126 111.595 82.0813C110.393 82.2425 109.247 82.5999 108.145 83.1105C107.401 83.2583 106.708 83.5324 106.066 83.9435C105.116 84.2472 104.265 84.7497 103.446 85.3194C102.697 85.8246 101.826 86.1793 101.218 87.1091C102.051 87.0258 102.731 86.9559 103.412 86.8861C104.299 86.9721 105.074 86.6523 105.812 86.1928C106.705 85.8165 107.6 85.4403 108.493 85.0641C109.998 84.6395 111.503 84.2123 113.008 83.7877C114.021 83.5969 115.034 83.4061 116.044 83.2153C116.33 83.476 116.364 83.7259 116.008 83.9543C113.715 84.2015 111.516 84.8518 109.294 85.5398C108.841 87.7272 107.367 88.9579 105.545 89.8635C104.825 89.9871 104.108 90.1296 103.386 90.229C102.362 90.3687 101.294 90.3902 100.554 91.2877C99.8835 92.0993 99.0406 92.6878 98.2082 93.2951C97.1874 93.3542 96.177 93.6713 95.1012 93.3542C93.6589 94.4103 92.227 95.461 90.7952 96.509C89.4995 97.3582 88.2431 98.2584 87.1594 99.3871C85.9317 100.164 84.869 101.147 83.8429 102.176C82.0944 103.821 80.3458 105.468 78.5999 107.113C78.503 106.995 78.4088 106.879 78.3119 106.761C79.2883 105.691 80.262 104.619 81.2384 103.55C82.1467 102.625 83.2906 101.967 84.0575 100.884C84.7826 100.295 85.5077 99.7068 86.2328 99.121C87.0128 98.5003 87.7928 97.8795 88.5703 97.2615C90.4706 95.899 92.371 94.5393 94.3002 93.1554C93.5672 92.5481 92.9364 92.024 92.2244 91.4355C90.7219 92.5884 89.2273 93.7331 87.7326 94.8779C86.5364 95.6464 85.4475 96.5493 84.4319 97.5517C83.9685 97.9252 83.5026 98.296 83.0393 98.6696C81.9844 99.6504 80.9295 100.631 79.872 101.615C78.8328 102.612 77.7937 103.609 76.7545 104.606C76.6471 104.426 76.5398 104.248 76.4325 104.068C78.9585 101.263 81.8719 98.8899 84.6465 96.3612C87.0861 94.5285 89.5257 92.6959 91.9653 90.8632C89.1959 92.2713 86.6647 94.0099 84.3559 96.0764C81.3274 98.2101 78.8224 100.973 76.0058 103.361C75.9038 103.152 75.8017 102.942 75.7022 102.733C76.6759 101.838 77.6497 100.946 78.6234 100.051C79.7097 98.9195 81.1651 98.202 82.0394 96.8342C82.8116 96.3962 83.5916 95.9716 84.1622 95.246C85.2145 94.4399 86.2694 93.6337 87.3217 92.8302C88.7142 91.8789 90.1068 90.925 91.4575 90.0033C91.2769 89.0654 91.1224 88.2646 90.9287 87.2462C88.9917 88.6166 87.196 89.8931 85.403 91.1695C84.3167 92.0536 83.2278 92.935 82.1415 93.8191C81.5682 94.2733 80.995 94.7274 80.4243 95.1815C79.3485 96.1704 78.2701 97.1593 77.1942 98.1482C76.142 98.6373 75.5896 99.7391 74.6342 100.344C74.396 100.158 74.4117 99.8923 74.4196 99.6289C75.1263 98.9705 75.8331 98.3122 76.5398 97.6538C78.4873 95.9635 80.4348 94.2733 82.3823 92.583C83.712 91.6586 85.0758 90.7825 86.204 89.5894C87.7038 88.6086 89.2011 87.6304 90.701 86.6496C90.845 86.5072 91.091 86.3836 91.1198 86.2196C91.6041 83.5028 93.3186 82.2855 95.8707 82.0625C97.0198 82.127 98.1716 82.0114 99.0144 81.1596C101.857 78.2923 103.203 78.0021 106.556 79.7085C108.215 79.2409 109.888 78.7706 111.563 78.3031C112.176 78.6148 112.987 77.3867 113.487 78.5664C111.715 79.0286 109.945 79.4881 108.173 79.9503C107.383 80.2056 106.595 80.4636 105.804 80.7189C104.579 80.9097 103.632 81.6433 102.687 82.385C102.009 82.909 101.331 83.4357 100.65 83.9597C100.695 84.043 100.737 84.1236 100.781 84.2069C101.412 83.9597 102.043 83.7151 102.674 83.4679C103.805 83.1616 104.935 82.8552 106.066 82.5489C106.846 82.3473 107.629 82.1431 108.409 81.9416C110.519 81.4982 112.629 81.0575 114.741 80.6168ZM106.074 88.7698C107.265 88.2431 108.016 87.3402 108.558 85.8703C107.147 86.3137 106.024 86.6899 105.019 87.3725C104.022 87.961 102.915 87.4934 101.881 87.7164C99.7107 87.6627 97.7161 88.2512 95.7477 89.3503C96.7607 90.358 97.8706 90.1376 98.9281 90.0355C100.093 89.9253 101.25 89.7238 102.409 89.5625C103.705 89.6808 104.943 89.4873 106.074 88.7698ZM100.818 80.3668C99.6793 80.907 99.2239 82.1082 98.4203 82.9708C97.546 83.6318 96.6508 84.266 95.8 84.9593C94.986 85.6231 94.4886 86.4346 94.9258 87.6492C96.6246 86.7436 98.0014 85.5505 99.3181 84.2741C100.103 83.7447 100.818 83.132 101.376 82.3446C102.76 81.6513 103.883 80.5012 105.522 80.0578C103.886 78.9964 102.391 79.1361 100.818 80.3668ZM95.3839 90.0758C92.5124 86.5609 94.8499 84.5643 98.08 82.6322C93.7086 82.6725 92.1433 83.7313 91.7271 86.4991C91.3292 89.146 92.8265 91.8709 95.0619 92.5722C97.3156 93.2306 99.2474 92.4486 100.15 90.5326C98.5564 90.4762 96.889 91.2098 95.3839 90.0758ZM95.1326 88.5978C98.4333 87.8105 101.428 86.4185 104.111 83.8656C100.48 84.5401 97.69 86.3379 95.1326 88.5978Z" fill="#282829"/>
<path d="M187.533 99.7984C182.921 99.7984 179.634 96.4716 179.662 91.8415C179.691 87.3108 183.128 83.9007 187.646 83.9195C192.203 83.9383 195.41 87.1899 195.425 91.82C195.441 96.3909 192.07 99.7984 187.533 99.7984ZM192.096 91.9436C192.104 91.0434 191.952 90.1727 191.625 89.3343C190.852 87.3565 189.379 86.2896 187.452 86.3165C185.539 86.3407 184.078 87.464 183.4 89.4875C182.748 91.4357 182.83 93.3651 183.829 95.1683C185.528 98.2371 189.58 98.2102 191.284 95.1414C191.834 94.1552 192.093 93.0803 192.096 91.9436Z" fill="#272325"/>
<path d="M221.732 99.5322C221.732 94.3673 221.732 89.3825 221.732 84.2365C224.559 84.301 227.379 83.8253 230.117 84.825C233.365 86.0127 235.14 88.7322 234.991 92.2337C234.852 95.4422 232.342 98.3256 228.878 99.207C226.562 99.8009 224.206 99.4032 221.732 99.5322ZM224.913 86.6469C224.913 90.186 224.913 93.5934 224.913 97.0384C227.36 97.412 229.381 96.7858 230.779 94.6952C231.996 92.8732 232.022 90.8847 230.952 89.0117C229.617 86.6792 227.373 86.4534 224.913 86.6469Z" fill="#272325"/>
<path d="M127.549 99.5189C127.549 94.3433 127.549 89.3585 127.549 84.2017C130.093 84.3038 132.609 83.9088 135.082 84.5591C138.7 85.5077 140.851 88.2755 140.825 91.8603C140.802 95.2811 138.284 98.2962 134.658 99.2098C132.347 99.7957 129.996 99.4114 127.549 99.5189ZM130.706 97.0359C133.381 97.4255 135.459 96.6462 136.826 94.3218C137.854 92.5724 137.663 90.1109 136.464 88.5254C135.239 86.905 132.889 86.201 130.703 86.8137C130.706 90.1834 130.706 93.5559 130.706 97.0359Z" fill="#272325"/>
<path d="M200.87 99.4813C199.742 99.4813 198.789 99.4813 197.75 99.4813C197.75 94.4293 197.75 89.4041 197.75 84.2715C199.658 84.2715 201.569 84.1318 203.451 84.3092C205.417 84.4946 207.27 85.1529 207.838 87.4559C208.393 89.6971 207.179 91.0863 205.367 92.2311C206.841 94.6227 208.296 96.9875 209.841 99.4947C208.576 99.5914 207.461 99.6747 206.286 99.7661C204.943 97.4981 203.611 95.2516 202.297 93.0292C201.81 93.0292 201.388 93.0292 200.87 93.0292C200.87 95.1817 200.87 97.267 200.87 99.4813ZM200.925 86.4778C200.925 87.9127 200.925 89.2671 200.925 90.6107C203.48 90.8579 204.846 90.1324 204.859 88.5765C204.872 87.0098 203.54 86.2735 200.925 86.4778Z" fill="#282526"/>
<path d="M83.8457 102.177C84.8718 101.147 85.9345 100.164 87.1622 99.3872C88.3453 100.486 89.4814 101.644 90.908 102.426C91.0545 102.523 91.2037 102.617 91.3503 102.714C93.9627 104.716 97.0357 105.673 100.054 106.748C100.122 107.363 99.8994 107.828 99.4779 108.287C98.4911 109.368 97.2635 110.096 96.1065 110.942C95.1223 111.662 93.8161 112.02 93.2455 113.24C93.4444 113.716 93.6119 114.113 93.7768 114.514C93.6878 114.594 93.6015 114.678 93.5125 114.758C93.4863 114.823 93.4863 114.887 93.5151 114.952C93.3397 114.909 93.1669 114.866 92.9916 114.823C92.9523 114.769 92.913 114.715 92.8712 114.659C92.8214 114.704 92.7743 114.75 92.7246 114.796C92.4628 114.772 92.201 114.745 91.9419 114.721C90.4028 113.662 89.5599 112.205 89.2746 110.308C89.162 109.553 88.7223 108.798 88.2747 108.158C87.2355 106.68 85.8429 105.493 85.1283 103.735C84.9084 103.176 84.6519 102.357 83.8457 102.177Z" fill="#CF371F"/>
<path d="M81.752 73.8771C84.8904 71.2571 88.5132 69.8356 92.4893 69.2847C92.5835 70.1392 91.7197 70.2763 91.3873 70.8271C89.6492 73.7159 88.1179 76.6934 87.2803 80.0551C87.4243 80.3131 87.5892 80.614 87.7541 80.915C87.0159 81.4713 86.2804 82.0275 85.5422 82.5838L85.4585 82.6429L85.4794 82.745C85.1888 82.7262 85.0135 82.9089 84.8564 83.1212C83.2335 84.1639 82.0425 85.6902 80.684 87.0284C80.6028 86.6845 80.5034 86.3459 80.4432 85.9965C79.7286 81.826 80.5034 77.8247 81.752 73.8771Z" fill="#038951"/>
<path d="M146.404 93.2227C146.404 95.3725 146.404 97.3718 146.404 99.4437C145.357 99.4437 144.38 99.4437 143.328 99.4437C143.328 94.4024 143.328 89.3854 143.328 84.2178C145.511 84.2823 147.676 83.9572 149.812 84.4194C152.152 84.9246 153.456 86.4052 153.521 88.4448C153.589 90.5382 152.314 92.1317 150.042 92.8653C148.906 93.2308 147.723 93.0937 146.404 93.2227ZM146.459 90.9171C147.872 91.0219 149.15 91.0514 149.948 89.7535C150.398 89.0226 150.411 88.1869 149.914 87.4774C149.061 86.2655 147.809 86.2574 146.459 86.4133C146.459 87.9101 146.459 89.3612 146.459 90.9171Z" fill="#272325"/>
<path d="M105.545 89.8609C107.367 88.9553 108.84 87.7272 109.293 85.5371C111.516 84.8492 113.714 84.1989 116.007 83.9517C116.026 84.8277 117.259 85.0615 117.06 86.0504C115.822 86.0907 116.136 87.351 115.625 87.9664C115.115 88.3856 114.937 89.0144 114.675 89.5868C114.476 89.8421 114.28 90.1 114.081 90.3553C113.495 91.0728 112.908 91.7876 112.322 92.5051C111.992 92.8652 111.665 93.2253 111.335 93.5854C110.691 94.19 110.047 94.7973 109.406 95.4019C109.165 95.6089 108.924 95.8158 108.683 96.0227C107.634 96.2323 107.17 97.4012 106.144 97.6512C105.851 97.4631 105.809 97.1648 105.804 96.845C105.786 94.5152 105.898 92.18 105.545 89.8609Z" fill="#F6F5F5"/>
<path d="M83.8465 102.177C84.6528 102.357 84.9093 103.176 85.1344 103.73C85.849 105.49 87.2416 106.678 88.2807 108.153C88.7284 108.79 89.1681 109.548 89.2807 110.303C89.566 112.2 90.4088 113.656 91.948 114.715C86.5767 113.887 82.1425 111.327 78.6035 107.113C80.3494 105.468 82.098 103.824 83.8465 102.177Z" fill="#C7361D"/>
<path d="M211.348 99.4274C211.348 94.3862 211.348 89.3933 211.348 84.301C212.395 84.301 213.402 84.301 214.497 84.301C214.497 88.5227 214.497 92.7067 214.497 97.0654C216.366 97.0654 218.164 97.0654 220.017 97.0654C220.017 97.9333 220.017 98.632 220.017 99.4274C217.174 99.4274 214.332 99.4274 211.348 99.4274Z" fill="#2E2A2B"/>
<path d="M81.7522 73.8772C80.5036 77.8247 79.7262 81.826 80.4434 85.9966C80.5036 86.3433 80.6031 86.6845 80.6843 87.0285C80.8911 88.9956 81.6292 90.7933 82.3805 92.5857C80.433 94.276 78.4855 95.9662 76.538 97.6565C76.3417 97.3475 76.0616 97.1728 76.1584 96.6407C76.9202 92.4728 77.7133 88.3049 78.2604 84.1021C78.4855 82.3769 79.5325 80.1922 77.0249 79.0716C78.263 77.0186 79.8754 75.3202 81.7522 73.8772Z" fill="#CF371F"/>
<path d="M96.9186 69.1692C99.0912 69.2256 101.185 69.6663 103.198 70.5101C100.999 72.2541 98.9158 74.0949 97.9394 76.895C97.4238 77.1073 96.9081 77.3196 96.3951 77.5318C95.9108 77.3464 95.4449 77.5077 94.9973 77.6528C93.8037 78.037 92.6231 78.4589 91.4374 78.8674C91.3457 78.2171 91.6337 77.677 91.8693 77.1019C93.0734 74.1352 95.136 71.7462 96.9186 69.1692Z" fill="#029F67"/>
<path d="M96.3914 77.5318C96.907 77.3196 97.4227 77.1073 97.9357 76.895C99.5037 76.6854 101.074 76.4758 102.642 76.2662C103.626 76.2447 104.611 76.2205 105.595 76.1963C107.665 76.5564 109.799 76.4919 111.814 77.2067C111.728 77.5722 111.641 77.9376 111.558 78.3031C109.885 78.7733 108.21 79.2436 106.55 79.7085C103.197 78.0048 101.852 78.295 99.009 81.1596C98.1661 82.0115 97.0144 82.127 95.8652 82.0625C96.538 80.6141 96.3809 79.0636 96.3914 77.5318Z" fill="#EDEDEE"/>
<path d="M96.9179 69.1691C95.1353 71.7462 93.0727 74.1324 91.8634 77.0991C91.6278 77.6769 91.3398 78.2143 91.4315 78.8646C90.7273 79.2973 90.0258 79.7299 89.3217 80.1599C88.7982 80.4098 88.2746 80.6597 87.7511 80.9096C87.5862 80.6087 87.4213 80.3104 87.2773 80.0497C88.115 76.688 89.6436 73.7105 91.3843 70.8244C91.7168 70.2736 92.5806 70.1338 92.4863 69.282C93.96 69.0589 95.4338 68.8359 96.9179 69.1691Z" fill="#029459"/>
<path d="M77.0218 79.0715C79.5294 80.1894 78.4824 82.3768 78.2573 84.102C77.7102 88.3022 76.9171 92.4728 76.1553 96.6406C76.0585 97.1754 76.3386 97.3501 76.5349 97.6564C75.8281 98.3148 75.1214 98.9732 74.4146 99.6315C73.5325 97.815 73.3179 95.8452 73.1582 93.8647C74.1267 93.8809 73.4592 95.3723 74.8727 95.3454C76.0899 91.422 76.4407 87.2407 76.8176 83.0325C75.5611 82.968 74.9094 83.7554 74.4906 85.5827C74.3859 85.932 74.2785 86.2814 74.1738 86.6307C74.0744 86.4345 73.9749 86.2411 73.8754 86.0449C74.4539 83.4974 75.4957 81.1703 77.0218 79.0715Z" fill="#E13F25"/>
<path d="M93.7794 114.511C93.6119 114.113 93.447 113.713 93.248 113.237C93.8187 112.017 95.1222 111.66 96.1091 110.939C97.266 110.093 98.4937 109.365 99.4805 108.284C99.8993 107.825 100.124 107.36 100.056 106.745C102.561 107.199 105.066 107.65 107.624 107.607C103.873 109.66 99.7894 111.044 96.2504 113.28C96.5069 114.664 97.6796 114.215 98.2267 114.806C97.8759 114.855 97.5226 114.903 97.1718 114.951C97.0881 114.959 97.0017 114.965 96.9179 114.973C96.5672 114.976 96.219 114.976 95.8683 114.978C95.8054 114.847 95.7426 114.715 95.6091 114.433C95.4756 114.712 95.4128 114.847 95.35 114.978C94.9992 114.986 94.6485 114.992 94.2977 115C94.2166 114.927 94.1354 114.852 94.0543 114.777C93.96 114.688 93.8684 114.599 93.7794 114.511Z" fill="#E13F25"/>
<path d="M102.646 76.2663C101.078 76.4759 99.5074 76.6855 97.9395 76.8951C98.9158 74.095 101.002 72.2543 103.198 70.5103C104.449 70.7844 105.541 71.4105 106.585 72.1387C106.4 72.2408 106.198 72.3188 106.033 72.4504C104.688 73.52 102.745 74.0359 102.646 76.2663Z" fill="#49B289"/>
<path d="M98.2243 114.809C97.6799 114.218 96.5046 114.667 96.248 113.283C99.787 111.047 103.87 109.663 107.621 107.61C107.799 107.578 107.975 107.546 108.15 107.513C109.54 107.398 111.051 108.021 112.265 106.815C112.399 107.11 112.239 107.358 112.071 107.538C108.292 111.63 103.808 114.323 98.2243 114.809ZM97.7584 113.487C100.884 114.589 103.46 112.979 106.043 111.748C107.493 111.058 108.97 110.136 109.519 107.989C105.234 109.467 101.365 111.144 97.7584 113.487Z" fill="#F37750"/>
<path d="M73.875 86.0424C73.9744 86.2386 74.0739 86.4321 74.1734 86.6282C73.9692 88.9339 73.019 91.2529 74.3854 93.5586C75.511 90.7585 75.8565 87.8348 75.9769 84.9084C75.0503 84.594 75.0162 85.5211 74.4901 85.5802C74.9089 83.7529 75.5581 82.9655 76.8171 83.03C76.4428 87.2355 76.0895 91.4196 74.8723 95.3429C73.4614 95.3698 74.1263 93.8784 73.1578 93.8622C72.8122 91.1992 73.0269 88.5926 73.875 86.0424Z" fill="#F37750"/>
<path d="M111.817 77.2067C109.801 76.4945 107.668 76.559 105.598 76.1963C105.472 76.035 105.349 75.8711 105.221 75.7072C106.422 75.0112 107.299 73.8557 108.665 73.5037C110.178 74.3904 111.259 75.7529 112.537 77.1153C112.21 77.1583 112.013 77.1825 111.817 77.2067Z" fill="#89C89A"/>
<path d="M108.17 79.9476C109.942 79.4854 111.712 79.0259 113.484 78.5637C114.02 79.171 114.478 79.8294 114.74 80.6141C112.63 81.0548 110.518 81.4955 108.408 81.9362C108.654 81.2321 108.96 80.5227 108.17 79.9476Z" fill="#89C89A"/>
<path d="M108.663 73.5065C107.297 73.8585 106.42 75.014 105.218 75.71C105.347 75.8766 105.472 76.0378 105.595 76.1991C104.611 76.2233 103.627 76.2448 102.643 76.2689C102.745 74.0385 104.687 73.5226 106.03 72.4531C106.195 72.3241 106.396 72.2435 106.582 72.1414C107.388 72.4181 108.032 72.9502 108.663 73.5065Z" fill="#62B893"/>
<path d="M113.668 105.173C113.598 105.256 113.53 105.339 113.459 105.42C113.333 105.401 113.208 105.385 113.082 105.366C113.134 104.885 113.216 104.393 112.595 104.084C112.289 104.151 111.925 104.232 111.559 104.31C111.852 103.429 112.216 102.563 112.111 101.596C112.627 101.628 113.145 101.736 113.585 101.3C114.763 100.137 115.639 98.8066 116.035 97.1458C116.176 96.5547 115.988 95.7539 116.778 95.4395C116.66 97.2077 116.003 98.8334 115.527 100.51C115.155 101.822 114.092 102.88 114.202 104.358L114.215 104.345C113.634 104.345 113.653 104.759 113.668 105.173Z" fill="#2E2A2B"/>
<path d="M76.7578 104.606C77.797 103.609 78.8362 102.612 79.8754 101.615C80.3308 102.26 80.7863 102.907 81.2417 103.552C80.2654 104.622 79.2916 105.694 78.3153 106.763C77.6609 106.145 77.1505 105.417 76.7578 104.606Z" fill="#082F5C"/>
<path d="M114.201 104.361C114.091 102.88 115.154 101.824 115.526 100.513C116.002 98.8362 116.659 97.2104 116.777 95.4422C116.774 95.3616 116.777 95.281 116.787 95.2003C116.871 95.0122 116.955 94.8214 117.039 94.6333C117.041 94.198 117.041 93.7627 117.044 93.3247C117.481 92.1557 117.499 90.9895 117.034 89.8232C117.023 89.7372 117.026 89.6512 117.044 89.5652C117.078 89.541 117.149 89.5088 117.143 89.4954C117.125 89.4255 117.088 89.3637 117.057 89.2965C117.047 89.2159 117.041 89.1353 117.041 89.052C117.154 88.9445 117.266 88.8397 117.379 88.7322C118.206 90.4009 117.887 92.1933 117.759 93.9078C117.625 95.6599 117.196 97.4012 116.764 99.1129C116.274 101.034 115.322 102.749 114.201 104.361Z" fill="#282526"/>
<path d="M74.6289 100.344C75.5869 99.739 76.1393 98.6373 77.1915 98.1482C78.2883 98.2933 78.1365 99.4219 78.6181 100.048C77.6444 100.943 76.6706 101.835 75.6969 102.73C75.1812 102.01 74.8278 101.214 74.6289 100.344Z" fill="#082F5C"/>
<path d="M111.558 104.313C111.924 104.232 112.291 104.152 112.594 104.087C113.212 104.396 113.134 104.888 113.081 105.369C113.042 105.49 113 105.611 112.961 105.732C112.854 106.172 112.647 106.546 112.272 106.812C111.053 108.021 109.542 107.395 108.152 107.513C109.152 106.299 110.731 105.726 111.558 104.313Z" fill="#504F51"/>
<path d="M76.0039 103.359C78.8204 100.973 81.3281 98.2074 84.354 96.0764C84.4509 96.1732 84.5503 96.2672 84.6472 96.3613C81.8725 98.8873 78.9592 101.26 76.4332 104.068C76.2918 103.832 76.1479 103.595 76.0039 103.359Z" fill="#C7361D"/>
<path d="M116.044 83.2153C115.031 83.4061 114.018 83.5969 113.008 83.7877C112.589 83.1723 112.657 82.1324 111.592 82.0813C112.757 81.8126 113.921 81.5466 115.084 81.2778C115.623 81.8099 115.866 82.4951 116.044 83.2153Z" fill="#CDCECF"/>
<path d="M115.625 87.9663C116.133 87.3536 115.821 86.0906 117.059 86.0503C116.808 86.7302 117.609 87.2649 117.308 87.9529C117.054 87.8803 116.816 87.5498 116.533 87.8991C116.381 87.9045 116.232 87.9099 116.08 87.9152C115.929 87.934 115.777 87.9502 115.625 87.9663Z" fill="#282526"/>
<path d="M116.533 87.8992C116.816 87.5525 117.054 87.8804 117.308 87.9529C117.329 88.2136 117.353 88.4716 117.373 88.7322C117.261 88.8397 117.148 88.9445 117.036 89.052C116.368 88.8988 116.588 88.3372 116.533 87.8992Z" fill="#2E2A2B"/>
<path d="M113.667 105.173C113.652 104.759 113.633 104.345 114.214 104.348C114.031 104.622 113.851 104.896 113.667 105.173Z" fill="#282526"/>
<path d="M112.961 105.732C113 105.611 113.042 105.49 113.081 105.369C113.207 105.385 113.333 105.404 113.458 105.42C113.351 105.621 113.317 105.947 112.961 105.732Z" fill="#282526"/>
<path d="M95.3477 114.978C95.4105 114.847 95.4733 114.715 95.6068 114.433C95.7403 114.712 95.8031 114.847 95.8659 114.978C95.6932 114.978 95.5204 114.978 95.3477 114.978Z" fill="#CF371F"/>
<path d="M94.0494 114.78C94.1305 114.855 94.2117 114.927 94.2928 115.003C94.0337 114.986 93.7746 114.968 93.518 114.952C93.4892 114.887 93.4892 114.823 93.5154 114.758C93.6934 114.763 93.8714 114.771 94.0494 114.78Z" fill="#F37750"/>
<path d="M92.7266 114.79C92.7737 114.745 92.8208 114.702 92.8731 114.653C92.915 114.71 92.9543 114.763 92.9936 114.817C92.9046 114.809 92.8156 114.801 92.7266 114.79Z" fill="#C7361D"/>
<path d="M96.9121 114.972C96.9959 114.965 97.0823 114.959 97.166 114.952C97.0823 114.959 96.9985 114.967 96.9121 114.972Z" fill="#F37750"/>
<path d="M105.545 89.8608C105.898 92.1772 105.786 94.5151 105.807 96.845C105.809 97.1647 105.854 97.463 106.147 97.6511C103.652 99.4354 100.885 100.58 97.959 101.365C98.014 98.6723 98.7757 96.0038 98.2103 93.2897C99.0427 92.6824 99.8855 92.0939 100.556 91.2824C101.296 90.3848 102.364 90.366 103.388 90.2236C104.108 90.1269 104.825 89.9845 105.545 89.8608Z" fill="#EDEDEE"/>
<path d="M98.2086 93.2925C98.774 96.0039 98.0149 98.675 97.9573 101.368C95.8344 102.23 93.5519 102.265 91.3479 102.714C91.2013 102.617 91.0521 102.523 90.9055 102.426C91.1149 102.284 91.3217 102.144 91.4945 102.026C91.4919 100.274 91.8924 98.5514 91.5966 96.8208C91.4029 96.5145 91.0835 96.5521 90.793 96.5091C92.2248 95.4584 93.6566 94.4104 95.0989 93.3543C96.1773 93.6687 97.1877 93.3516 98.2086 93.2925Z" fill="#E1E2E3"/>
<path d="M82.3798 92.5829C81.6285 90.7905 80.8904 88.9928 80.6836 87.0257C82.0421 85.6875 83.2331 84.1611 84.856 83.1185C85.1335 83.1131 85.3481 83.0003 85.479 82.7423L85.4581 82.6402L85.5418 82.5811C85.869 83.2314 86.0287 83.8897 85.8402 84.6314C85.4083 86.319 85.8324 87.9555 86.1989 89.5894C85.0733 90.7852 83.7069 91.6612 82.3798 92.5829Z" fill="#CDCECF"/>
<path d="M89.3242 80.1654C90.0284 79.7327 90.7299 79.3001 91.434 78.8701C92.6198 78.4617 93.8029 78.0398 94.9939 77.6555C95.4415 77.5104 95.9075 77.3492 96.3917 77.5346C96.3812 79.0663 96.5383 80.6168 95.8656 82.0652C93.316 82.2883 91.6015 83.5056 91.1146 86.2224C91.0859 86.3863 90.8398 86.5099 90.6958 86.6523C90.298 85.3867 89.6645 84.2043 90.0467 82.7505C90.2849 81.8476 90.3503 80.7915 89.3242 80.1654Z" fill="#E1E2E3"/>
<path d="M89.3247 80.1653C90.3508 80.7914 90.2854 81.8502 90.0498 82.7477C89.6676 84.2015 90.3011 85.3839 90.699 86.6496C89.1991 87.6304 87.7018 88.6086 86.2019 89.5894C85.8355 87.9556 85.4114 86.3217 85.8433 84.6315C86.0318 83.8898 85.8721 83.2287 85.5449 82.5811C86.2831 82.0248 87.0186 81.4686 87.7568 80.9123C88.2777 80.6651 88.8012 80.4152 89.3247 80.1653Z" fill="#D6D7D8"/>
<path d="M95.0611 92.5751C92.823 91.871 91.3284 89.1489 91.7262 86.5019C92.1424 83.7314 93.7104 82.6726 98.0791 82.635C94.849 84.5671 92.5115 86.5637 95.383 90.0786C95.2757 90.909 95.1684 91.742 95.0611 92.5751Z" fill="#038951"/>
<path d="M90.7973 96.509C91.0878 96.552 91.4072 96.5144 91.6009 96.8208C91.894 98.5513 91.4962 100.274 91.4988 102.026C91.326 102.144 91.1166 102.284 90.9098 102.426C89.4832 101.644 88.3472 100.486 87.1641 99.3871C88.2451 98.2584 89.5016 97.3582 90.7973 96.509Z" fill="#D6D7D8"/>
<path d="M87.7324 94.8779C89.2271 93.7331 90.7217 92.5884 92.2242 91.4355C92.9336 92.0241 93.5644 92.5454 94.3 93.1554C92.3708 94.5393 90.4704 95.899 88.5727 97.2615C88.7114 96.3102 87.8921 95.7163 87.7324 94.8779Z" fill="#0194D6"/>
<path d="M85.4023 91.1695C87.1954 89.893 88.9911 88.6166 90.9228 87.2407C91.1192 88.2565 91.271 89.06 91.4516 89.9978C90.1009 90.9222 88.7084 91.8735 87.3158 92.8248C86.2661 92.7737 85.9913 91.7821 85.4023 91.1695Z" fill="#0194D6"/>
<path d="M95.1328 88.5979C97.6902 86.338 100.483 84.5402 104.111 83.8657C101.425 86.4186 98.431 87.8106 95.1328 88.5979Z" fill="#E1E2E3"/>
<path d="M78.6199 100.048C78.1357 99.4221 78.2875 98.2935 77.1934 98.1483C78.2692 97.1594 79.345 96.1705 80.4235 95.1816C81.2114 95.4745 81.2794 96.5064 82.0385 96.8289C81.1616 98.1994 79.7036 98.9169 78.6199 100.048Z" fill="#015F97"/>
<path d="M102.404 89.5626C101.244 89.7239 100.087 89.9254 98.9226 90.0356C97.8624 90.1377 96.7526 90.3581 95.7422 89.3503C97.7106 88.254 99.7052 87.6628 101.875 87.7165C101.747 88.4232 102.553 88.8478 102.404 89.5626Z" fill="#0185C3"/>
<path d="M81.2394 103.552C80.784 102.907 80.3285 102.263 79.873 101.615C80.9279 100.634 81.9828 99.6532 83.0403 98.6697C83.3728 99.4114 84.2052 99.9112 84.0586 100.887C83.2942 101.97 82.1477 102.628 81.2394 103.552Z" fill="#015F97"/>
<path d="M85.4028 91.1697C85.9918 91.7824 86.2666 92.774 87.3163 92.825C86.264 93.6312 85.2091 94.4373 84.1568 95.2408C83.4422 94.827 83.2538 93.6339 82.1387 93.8166C83.2276 92.9352 84.3139 92.0538 85.4028 91.1697Z" fill="#0185C3"/>
<path d="M95.0625 92.5751C95.1698 91.742 95.2771 90.909 95.3845 90.0759C96.8896 91.2099 98.5596 90.479 100.151 90.5354C99.248 92.4514 97.3136 93.2334 95.0625 92.5751Z" fill="#029459"/>
<path d="M99.318 84.2767C98.0013 85.5531 96.6245 86.7436 94.9257 87.6492C94.4885 86.4372 94.9885 85.623 95.7999 84.9593C96.6506 84.2659 97.5459 83.6318 98.4201 82.9707C98.7185 83.406 99.0196 83.8414 99.318 84.2767Z" fill="#0185C3"/>
<path d="M87.7324 94.8779C87.8921 95.7163 88.7114 96.3102 88.5701 97.2615C87.79 97.8823 87.01 98.503 86.2325 99.1211C85.8739 98.3068 85.3949 97.6377 84.4316 97.5517C85.4473 96.5494 86.5388 95.6465 87.7324 94.8779Z" fill="#0185C3"/>
<path d="M111.592 82.0786C112.657 82.1297 112.587 83.1696 113.008 83.785C111.503 84.2123 109.998 84.6369 108.493 85.0614C108.111 84.4192 109.254 84.6906 109 84.1182C109.082 83.4787 108.427 83.4598 108.145 83.1078C109.244 82.5972 110.39 82.2398 111.592 82.0786Z" fill="#89C89A"/>
<path d="M100.817 80.3668C102.388 79.1361 103.883 78.9964 105.519 80.0605C103.88 80.5039 102.757 81.654 101.372 82.3473C100.88 81.7776 100.768 81.0951 100.817 80.3668Z" fill="#015F97"/>
<path d="M82.1397 93.8192C83.2548 93.6338 83.4432 94.8296 84.1578 95.2434C83.5898 95.969 82.8072 96.3936 82.035 96.8316C81.2759 96.5091 81.2078 95.4745 80.4199 95.1843C80.9958 94.7275 81.569 94.2733 82.1397 93.8192Z" fill="#0275B1"/>
<path d="M102.404 89.5626C102.553 88.8505 101.747 88.426 101.875 87.7192C102.909 87.4935 104.019 87.9637 105.014 87.3752C105.061 87.6682 105.108 87.9611 105.147 88.1949C105.506 88.4179 105.789 88.5952 106.071 88.7699C104.943 89.4874 103.705 89.6809 102.404 89.5626Z" fill="#0275B1"/>
<path d="M102.684 82.3824C103.627 81.638 104.577 80.9071 105.802 80.7163C106.331 81.2591 105.904 81.9471 106.066 82.5436C104.935 82.85 103.805 83.1563 102.674 83.4627C102.676 83.1053 102.679 82.7452 102.684 82.3824Z" fill="#49B289"/>
<path d="M100.818 80.3669C100.769 81.0952 100.881 81.7777 101.373 82.3474C100.816 83.1348 100.101 83.7448 99.3158 84.2769C99.0174 83.8415 98.719 83.4089 98.418 82.9736C99.2268 82.1083 99.6823 80.9071 100.818 80.3669Z" fill="#0275B1"/>
<path d="M84.4316 97.5518C85.3949 97.6377 85.8739 98.3069 86.2325 99.1211C85.5074 99.7096 84.7824 100.298 84.0573 100.887C84.2039 99.9138 83.3715 99.414 83.0391 98.6696C83.5024 98.2988 83.9683 97.9253 84.4316 97.5518Z" fill="#0275B1"/>
<path d="M108.139 83.1079C108.422 83.4599 109.076 83.4787 108.995 84.1183C109.249 84.6907 108.105 84.4193 108.487 85.0615C107.594 85.4377 106.699 85.814 105.807 86.1902C106.136 85.47 106.061 84.6987 106.061 83.941C106.704 83.5298 107.398 83.2557 108.139 83.1079Z" fill="#62B893"/>
<path d="M106.063 82.5463C105.901 81.9471 106.328 81.2618 105.799 80.719C106.589 80.4637 107.377 80.2057 108.168 79.9504C108.958 80.5255 108.655 81.2349 108.406 81.9417C107.626 82.1405 106.846 82.3421 106.063 82.5463Z" fill="#62B893"/>
<path d="M84.6486 96.3614C84.5518 96.2673 84.4523 96.1706 84.3555 96.0765C86.6642 94.01 89.1954 92.2714 91.9648 90.8633C89.5252 92.696 87.0856 94.5287 84.6486 96.3614Z" fill="#CDCECF"/>
<path d="M106.075 88.7699C105.792 88.5925 105.507 88.4179 105.151 88.1948C105.112 87.961 105.065 87.6681 105.018 87.3752C106.023 86.6927 107.146 86.3164 108.557 85.873C108.017 87.3376 107.266 88.2432 106.075 88.7699Z" fill="#015F97"/>
<path d="M106.06 83.9409C106.06 84.7014 106.136 85.47 105.807 86.1901C105.068 86.6496 104.294 86.9694 103.406 86.8834C103.548 86.5825 103.689 86.2788 103.836 85.9671C103.697 85.7387 103.569 85.5264 103.438 85.3141C104.262 84.7471 105.11 84.2446 106.06 83.9409Z" fill="#49B289"/>
<path d="M103.444 85.314C103.572 85.5263 103.703 85.7385 103.842 85.967C103.695 86.2787 103.554 86.5797 103.412 86.8833C102.732 86.9532 102.054 87.0204 101.219 87.1063C101.823 86.1739 102.695 85.8219 103.444 85.314Z" fill="#029F67"/>
<path d="M102.685 82.3823C102.68 82.7424 102.677 83.1025 102.672 83.4653C102.041 83.7125 101.41 83.957 100.779 84.2043C100.735 84.121 100.693 84.0403 100.648 83.957C101.329 83.433 102.007 82.909 102.685 82.3823Z" fill="#029F67"/>
<path d="M91.3477 102.714C93.5517 102.265 95.8342 102.23 97.9571 101.368C100.881 100.583 103.65 99.4382 106.145 97.6539C107.171 97.4039 107.634 96.2377 108.684 96.0254C108.71 97.0573 109.482 97.627 110.024 98.3498C110.794 99.3791 111.961 100.148 112.108 101.599C112.212 102.566 111.849 103.431 111.555 104.313C110.728 105.726 109.153 106.299 108.15 107.516C107.975 107.548 107.797 107.58 107.621 107.613C105.064 107.656 102.559 107.204 100.054 106.75C97.0331 105.673 93.96 104.716 91.3477 102.714Z" fill="#242021"/>
<path d="M94.0496 114.779C93.8716 114.771 93.6936 114.763 93.5156 114.758C93.6046 114.677 93.691 114.594 93.78 114.513C93.869 114.599 93.9606 114.688 94.0496 114.779Z" fill="#C7361D"/>
<path d="M85.4785 82.7423C85.3476 83.0003 85.1303 83.1131 84.8555 83.1185C85.0125 82.9062 85.1879 82.7235 85.4785 82.7423Z" fill="#D6D7D8"/>
<path d="M112.111 101.599C111.965 100.148 110.795 99.379 110.028 98.3498C109.486 97.6243 108.714 97.0572 108.688 96.0254C108.928 95.8184 109.169 95.6115 109.41 95.4046C110.216 96.329 110.57 97.7694 112.08 97.8876C113.988 98.0354 115.009 96.9981 115.742 94.5071C116.386 92.3197 116.111 90.1215 116.082 87.918C116.234 87.9126 116.383 87.9072 116.535 87.9019C116.59 88.3372 116.37 88.9015 117.04 89.0547C117.04 89.138 117.045 89.2186 117.056 89.2992C117.051 89.3879 117.045 89.4793 117.043 89.5679C117.025 89.6539 117.022 89.7399 117.032 89.8259C116.666 90.9949 116.653 92.1611 117.043 93.3274C117.04 93.7627 117.04 94.198 117.038 94.6361C116.747 94.7301 116.399 94.7946 116.786 95.2031C116.776 95.2837 116.773 95.3643 116.776 95.4449C115.985 95.7593 116.174 96.5574 116.032 97.1513C115.637 98.8147 114.758 100.142 113.582 101.306C113.143 101.738 112.627 101.631 112.111 101.599Z" fill="#504F51"/>
<path d="M116.08 87.918C116.109 90.1215 116.384 92.3197 115.74 94.5071C115.007 96.9981 113.986 98.0354 112.078 97.8876C110.568 97.7694 110.212 96.329 109.408 95.4046C110.052 94.8 110.696 94.1926 111.337 93.588C112.138 94.5232 113.138 94.8913 113.973 93.8594C114.955 92.6475 115.374 91.1722 114.677 89.5894C114.939 89.0144 115.117 88.3882 115.628 87.969C115.777 87.9502 115.929 87.9341 116.08 87.918Z" fill="#7E7E80"/>
<path d="M114.676 89.5867C115.375 91.1721 114.953 92.6474 113.972 93.8567C113.137 94.8886 112.137 94.5204 111.336 93.5853C111.666 93.2252 111.993 92.8651 112.323 92.505C112.875 92.8651 113.391 92.8167 113.749 92.247C114.105 91.68 114.752 91.1265 114.082 90.3552C114.281 90.0999 114.48 89.8446 114.676 89.5867Z" fill="#89C89A"/>
<path d="M114.083 90.3579C114.751 91.1291 114.107 91.6827 113.751 92.2497C113.395 92.8194 112.877 92.8678 112.324 92.5077C112.911 91.7902 113.497 91.0727 114.083 90.3579Z" fill="#CDCECF"/>
<path d="M74.4913 85.5801C75.0148 85.521 75.0488 84.5966 75.9781 84.9083C75.8603 87.8374 75.5121 90.7584 74.3866 93.5585C73.0202 91.2528 73.9678 88.9337 74.1746 86.6281C74.2793 86.2788 74.384 85.9294 74.4913 85.5801Z" fill="#F79E7B"/>
<path d="M97.7578 113.487C101.365 111.144 105.231 109.467 109.519 107.989C108.969 110.136 107.493 111.058 106.042 111.748C103.459 112.979 100.883 114.589 97.7578 113.487Z" fill="#F79E7B"/>
<path d="M117.043 93.3247C116.653 92.1584 116.666 90.9922 117.032 89.8232C117.498 90.9895 117.48 92.1584 117.043 93.3247Z" fill="#2E2A2B"/>
<path d="M116.788 95.2003C116.398 94.7918 116.749 94.7274 117.04 94.6333C116.953 94.8214 116.872 95.0122 116.788 95.2003Z" fill="#2E2A2B"/>
<path d="M117.041 89.5654C117.046 89.4767 117.051 89.3853 117.054 89.2966C117.086 89.3611 117.122 89.4256 117.14 89.4955C117.143 89.5089 117.075 89.5412 117.041 89.5654Z" fill="#2E2A2B"/>
</g>
<defs>
<clipPath id="clip0_16_9180">
<rect width="162" height="46" fill="white" transform="translate(73 69)"/>
</clipPath>
</defs>
</svg>
