<svg width="162" height="46" viewBox="0 0 162 46" fill="none" xmlns="http://www.w3.org/2000/svg">
<g clip-path="url(#clip0_16_9978)">
<path d="M106.626 15.2634C104.793 20.4095 102.99 25.4668 101.171 30.578C100.535 30.578 99.9378 30.578 99.1761 30.578C98.417 28.2239 97.6291 25.7812 96.7496 23.0537C95.7889 25.7275 94.9146 28.1568 94.0325 30.6021C93.3624 30.6021 92.7656 30.6021 92.0536 30.6021C90.4438 25.5313 88.8313 20.4578 87.1875 15.2822C88.2686 15.2822 89.2475 15.2822 90.3234 15.2822C91.3495 18.5795 92.386 21.9116 93.5325 25.5985C94.2445 23.5965 94.8832 21.9896 95.3858 20.3396C95.9381 18.523 94.5089 17.0612 94.4068 15.2796C95.3701 15.2796 96.3517 15.2796 97.4589 15.2796C98.4248 18.4478 99.4038 21.6644 100.501 25.2653C101.694 21.7182 102.773 18.5042 103.864 15.2634C104.783 15.2634 105.636 15.2634 106.626 15.2634Z" fill="#282526"/>
<path d="M41.7409 11.6168C42.0001 11.7592 42.1152 11.9795 42.0864 12.2778C40.9216 12.5465 39.7568 12.8126 38.5946 13.0813C37.3931 13.2425 36.2466 13.5999 35.1446 14.1105C34.4012 14.2583 33.7075 14.5324 33.0662 14.9435C32.116 15.2472 31.2653 15.7497 30.446 16.3194C29.6974 16.8246 28.8257 17.1793 28.2185 18.1091C29.0509 18.0258 29.7314 17.9559 30.412 17.8861C31.2994 17.9721 32.0742 17.6523 32.8123 17.1928C33.7049 16.8165 34.6001 16.4403 35.4927 16.0641C36.9979 15.6395 38.503 15.2123 40.0081 14.7877C41.0211 14.5969 42.0341 14.4061 43.0445 14.2153C43.3298 14.476 43.3638 14.7259 43.0078 14.9543C40.7148 15.2015 38.5161 15.8518 36.2937 16.5398C35.8409 18.7272 34.3672 19.9579 32.5453 20.8635C31.8255 20.9871 31.1083 21.1296 30.3858 21.229C29.3623 21.3687 28.2944 21.3902 27.5536 22.2877C26.8835 23.0993 26.0406 23.6878 25.2082 24.2951C24.1874 24.3542 23.177 24.6713 22.1012 24.3542C20.6589 25.4103 19.227 26.461 17.7952 27.509C16.4995 28.3582 15.2431 29.2584 14.1594 30.3871C12.9317 31.1637 11.869 32.1472 10.8429 33.1764C9.09435 34.821 7.3458 36.4683 5.59987 38.1128C5.50302 37.9946 5.40879 37.8791 5.31194 37.7608C6.2883 36.6913 7.26204 35.6191 8.2384 34.5496C9.1467 33.6252 10.2906 32.9668 11.0575 31.8838C11.7826 31.2953 12.5077 30.7068 13.2328 30.121C14.0128 29.5003 14.7928 28.8795 15.5703 28.2615C17.4706 26.899 19.371 25.5393 21.3002 24.1554C20.5672 23.5481 19.9364 23.024 19.2244 22.4355C17.7219 23.5884 16.2273 24.7331 14.7326 25.8779C13.5364 26.6464 12.4475 27.5493 11.4319 28.5517C10.9685 28.9252 10.5026 29.296 10.0393 29.6696C8.98441 30.6504 7.92952 31.6312 6.87202 32.6148C5.83284 33.6117 4.79365 34.6087 3.75447 35.6057C3.64715 35.4256 3.53983 35.2483 3.43251 35.0682C5.95848 32.2627 8.87186 29.8899 11.6465 27.3612C14.0861 25.5285 16.5257 23.6959 18.9653 21.8632C16.1959 23.2713 13.6647 25.0099 11.3559 27.0764C8.3274 29.2101 5.82237 31.9725 3.00584 34.3615C2.90375 34.1519 2.80167 33.9423 2.7022 33.7327C3.67594 32.8378 4.64968 31.9457 5.62343 31.0508C6.70973 29.9195 8.16511 29.202 9.03938 27.8342C9.81157 27.3962 10.5916 26.9716 11.1622 26.246C12.2145 25.4399 13.2694 24.6337 14.3217 23.8302C15.7142 22.8789 17.1068 21.925 18.4575 21.0033C18.2769 20.0654 18.1224 19.2646 17.9287 18.2462C15.9917 19.6166 14.196 20.8931 12.403 22.1695C11.3167 23.0536 10.2278 23.935 9.14147 24.8191C8.56822 25.2733 7.99496 25.7274 7.42433 26.1815C6.3485 27.1704 5.27005 28.1593 4.19422 29.1482C3.14195 29.6373 2.58964 30.7391 1.63422 31.3437C1.39602 31.1583 1.41173 30.8923 1.41958 30.6289C2.12633 29.9705 2.83308 29.3122 3.53983 28.6538C5.48731 26.9635 7.4348 25.2733 9.38229 23.583C10.712 22.6586 12.0758 21.7825 13.204 20.5894C14.7038 19.6086 16.2011 18.6304 17.701 17.6496C17.845 17.5072 18.091 17.3836 18.1198 17.2196C18.6041 14.5028 20.3186 13.2855 22.8707 13.0625C24.0198 13.127 25.1716 13.0114 26.0144 12.1596C28.8572 9.2923 30.2026 9.00208 33.5557 10.7085C35.2153 10.2409 36.8879 9.77063 38.5632 9.30305C39.1757 9.61477 39.9871 8.38671 40.4871 9.5664C38.715 10.0286 36.9455 10.4881 35.1734 10.9503C34.3829 11.2056 33.595 11.4636 32.8045 11.7189C31.5794 11.9097 30.6319 12.6433 29.6869 13.385C29.009 13.909 28.331 14.4357 27.6504 14.9597C27.6949 15.043 27.7368 15.1236 27.7813 15.2069C28.4122 14.9597 29.043 14.7151 29.6738 14.4679C30.8046 14.1616 31.9354 13.8552 33.0662 13.5489C33.8463 13.3473 34.6289 13.1431 35.409 12.9416C37.5188 12.4982 39.6285 12.0575 41.7409 11.6168ZM33.0741 19.7698C34.2651 19.2431 35.0163 18.3402 35.5582 16.8703C34.1473 17.3137 33.0244 17.6899 32.0192 18.3725C31.0219 18.961 29.9147 18.4934 28.8807 18.7164C26.7107 18.6627 24.7161 19.2512 22.7477 20.3503C23.7607 21.358 24.8706 21.1376 25.9281 21.0355C27.0929 20.9253 28.2499 20.7238 29.4095 20.5625C30.7052 20.6808 31.9433 20.4873 33.0741 19.7698ZM27.818 11.3668C26.6793 11.907 26.2239 13.1082 25.4203 13.9708C24.546 14.6318 23.6508 15.266 22.8 15.9593C21.986 16.6231 21.4886 17.4346 21.9258 18.6492C23.6246 17.7436 25.0014 16.5505 26.3181 15.2741C27.1034 14.7447 27.818 14.132 28.3755 13.3446C29.7602 12.6513 30.8832 11.5012 32.5218 11.0578C30.8858 9.99636 29.3911 10.1361 27.818 11.3668ZM22.3839 21.0758C19.5124 17.5609 21.8499 15.5643 25.08 13.6322C20.7086 13.6725 19.1433 14.7313 18.7271 17.4991C18.3292 20.146 19.8265 22.8709 22.0619 23.5722C24.3156 24.2306 26.2474 23.4486 27.1505 21.5326C25.5564 21.4762 23.889 22.2098 22.3839 21.0758ZM22.1326 19.5978C25.4333 18.8105 28.4279 17.4185 31.1109 14.8656C27.4803 15.5401 24.69 17.3379 22.1326 19.5978Z" fill="#282829"/>
<path d="M114.533 30.7984C109.921 30.7984 106.634 27.4716 106.662 22.8415C106.691 18.3108 110.128 14.9007 114.646 14.9195C119.203 14.9383 122.41 18.1899 122.425 22.82C122.441 27.3909 119.07 30.7984 114.533 30.7984ZM119.096 22.9436C119.104 22.0434 118.952 21.1727 118.625 20.3343C117.852 18.3565 116.379 17.2896 114.452 17.3165C112.539 17.3407 111.078 18.464 110.4 20.4875C109.748 22.4357 109.83 24.3651 110.829 26.1683C112.528 29.2371 116.58 29.2102 118.284 26.1414C118.834 25.1552 119.093 24.0803 119.096 22.9436Z" fill="#272325"/>
<path d="M148.732 30.5322C148.732 25.3673 148.732 20.3825 148.732 15.2365C151.559 15.301 154.379 14.8253 157.117 15.825C160.365 17.0127 162.14 19.7322 161.991 23.2337C161.852 26.4422 159.342 29.3256 155.878 30.207C153.562 30.8009 151.206 30.4032 148.732 30.5322ZM151.913 17.6469C151.913 21.186 151.913 24.5934 151.913 28.0384C154.36 28.412 156.381 27.7858 157.779 25.6952C158.996 23.8732 159.022 21.8847 157.952 20.0117C156.617 17.6792 154.373 17.4534 151.913 17.6469Z" fill="#272325"/>
<path d="M54.5488 30.5189C54.5488 25.3433 54.5488 20.3585 54.5488 15.2017C57.0931 15.3038 59.6086 14.9088 62.0823 15.5591C65.6998 16.5077 67.8514 19.2755 67.8252 22.8603C67.8017 26.2811 65.2836 29.2962 61.6582 30.2098C59.3469 30.7957 56.9963 30.4114 54.5488 30.5189ZM57.7056 28.0359C60.3808 28.4255 62.4592 27.6462 63.8256 25.3218C64.8543 23.5724 64.6632 21.1109 63.4643 19.5254C62.2393 17.905 59.8887 17.201 57.703 17.8137C57.7056 21.1834 57.7056 24.5559 57.7056 28.0359Z" fill="#272325"/>
<path d="M127.87 30.4813C126.742 30.4813 125.789 30.4813 124.75 30.4813C124.75 25.4293 124.75 20.4041 124.75 15.2715C126.658 15.2715 128.569 15.1318 130.451 15.3092C132.417 15.4946 134.27 16.1529 134.838 18.4559C135.393 20.6971 134.179 22.0863 132.367 23.2311C133.841 25.6227 135.296 27.9875 136.841 30.4947C135.576 30.5914 134.461 30.6747 133.286 30.7661C131.943 28.4981 130.611 26.2516 129.297 24.0292C128.81 24.0292 128.388 24.0292 127.87 24.0292C127.87 26.1817 127.87 28.267 127.87 30.4813ZM127.925 17.4778C127.925 18.9127 127.925 20.2671 127.925 21.6107C130.48 21.8579 131.846 21.1324 131.859 19.5765C131.872 18.0098 130.54 17.2735 127.925 17.4778Z" fill="#282526"/>
<path d="M10.8457 33.1766C11.8718 32.1473 12.9345 31.1638 14.1622 30.3872C15.3453 31.4863 16.4814 32.6445 17.908 33.4265C18.0545 33.5232 18.2037 33.6173 18.3503 33.714C20.9627 35.716 24.0357 36.6726 27.0538 37.7475C27.1219 38.3629 26.8994 38.8278 26.4779 39.2873C25.4911 40.3676 24.2635 41.0958 23.1065 41.9423C22.1223 42.6625 20.8161 43.0199 20.2455 44.2399C20.4444 44.7155 20.6119 45.1132 20.7768 45.5136C20.6878 45.5942 20.6015 45.6775 20.5125 45.7582C20.4863 45.8227 20.4863 45.8871 20.5151 45.9516C20.3397 45.9086 20.1669 45.8657 19.9916 45.8227C19.9523 45.7689 19.913 45.7152 19.8712 45.6587C19.8214 45.7044 19.7743 45.7501 19.7246 45.7958C19.4628 45.7716 19.201 45.7447 18.9419 45.7205C17.4028 44.6618 16.5599 43.2053 16.2746 41.3081C16.162 40.553 15.7223 39.7979 15.2747 39.1583C14.2355 37.6803 12.8429 36.4926 12.1283 34.7351C11.9084 34.1762 11.6519 33.3566 10.8457 33.1766Z" fill="#CF371F"/>
<path d="M8.75195 4.87714C11.8904 2.25709 15.5132 0.83555 19.4893 0.284668C19.5835 1.13921 18.7197 1.27626 18.3873 1.82714C16.6492 4.71591 15.1179 7.69336 14.2803 11.0551C14.4243 11.3131 14.5892 11.614 14.7541 11.915C14.0159 12.4713 13.2804 13.0275 12.5422 13.5838L12.4585 13.6429L12.4794 13.745C12.1888 13.7262 12.0135 13.9089 11.8564 14.1212C10.2335 15.1639 9.0425 16.6902 7.68398 18.0284C7.60283 17.6845 7.50336 17.3459 7.44316 16.9965C6.72856 12.826 7.50336 8.82468 8.75195 4.87714Z" fill="#038951"/>
<path d="M73.4038 24.2227C73.4038 26.3725 73.4038 28.3718 73.4038 30.4437C72.3568 30.4437 71.3804 30.4437 70.3281 30.4437C70.3281 25.4024 70.3281 20.3854 70.3281 15.2178C72.5112 15.2823 74.6759 14.9572 76.8119 15.4194C79.152 15.9246 80.4556 17.4052 80.521 19.4448C80.5891 21.5382 79.3143 23.1317 77.0422 23.8653C75.9062 24.2308 74.7231 24.0937 73.4038 24.2227ZM73.4588 21.9171C74.8723 22.0219 76.1496 22.0514 76.948 20.7535C77.3982 20.0226 77.4113 19.1869 76.914 18.4774C76.0606 17.2655 74.8094 17.2574 73.4588 17.4133C73.4588 18.9101 73.4588 20.3612 73.4588 21.9171Z" fill="#272325"/>
<path d="M32.5449 20.8609C34.3668 19.9553 35.8405 18.7272 36.2933 16.5371C38.5156 15.8492 40.7144 15.1989 43.0074 14.9517C43.0258 15.8277 44.2586 16.0615 44.0597 17.0504C42.8216 17.0907 43.1357 18.351 42.6253 18.9664C42.1148 19.3856 41.9368 20.0144 41.6751 20.5868C41.4761 20.8421 41.2798 21.1 41.0809 21.3553C40.4945 22.0728 39.9082 22.7876 39.3219 23.5051C38.992 23.8652 38.6648 24.2253 38.335 24.5854C37.6911 25.19 37.0472 25.7973 36.4059 26.4019C36.165 26.6089 35.9242 26.8158 35.6834 27.0227C34.6338 27.2323 34.1704 28.4012 33.1444 28.6512C32.8512 28.4631 32.8093 28.1648 32.8041 27.845C32.7857 25.5152 32.8983 23.18 32.5449 20.8609Z" fill="#F6F5F5"/>
<path d="M10.8465 33.1765C11.6528 33.3566 11.9093 34.1762 12.1344 34.7297C12.849 36.4899 14.2416 37.6776 15.2807 39.1529C15.7284 39.7898 16.1681 40.5476 16.2807 41.3027C16.566 43.1999 17.4088 44.6564 18.948 45.7151C13.5767 44.8875 9.1425 42.3265 5.60352 38.113C7.34945 36.4684 9.098 34.8238 10.8465 33.1765Z" fill="#C7361D"/>
<path d="M138.348 30.4274C138.348 25.3862 138.348 20.3933 138.348 15.301C139.395 15.301 140.402 15.301 141.497 15.301C141.497 19.5227 141.497 23.7067 141.497 28.0654C143.366 28.0654 145.164 28.0654 147.017 28.0654C147.017 28.9333 147.017 29.632 147.017 30.4274C144.174 30.4274 141.332 30.4274 138.348 30.4274Z" fill="#2E2A2B"/>
<path d="M8.75224 4.8772C7.50365 8.82474 6.72622 12.826 7.44344 16.9966C7.50365 17.3433 7.60312 17.6845 7.68426 18.0285C7.89105 19.9956 8.62921 21.7933 9.38046 23.5857C7.43297 25.276 5.48549 26.9662 3.538 28.6565C3.34168 28.3475 3.0616 28.1728 3.15845 27.6407C3.92017 23.4728 4.7133 19.3049 5.26037 15.1021C5.48549 13.3769 6.53252 11.1922 4.02487 10.0716C5.26299 8.01857 6.87543 6.32024 8.75224 4.8772Z" fill="#CF371F"/>
<path d="M23.9186 0.169189C26.0912 0.225621 28.1853 0.666327 30.1982 1.51012C27.9994 3.25413 25.9158 5.09488 24.9394 7.89498C24.4238 8.10727 23.9081 8.31956 23.3951 8.53185C22.9108 8.34643 22.4449 8.50766 21.9973 8.65277C20.8037 9.03705 19.6231 9.45894 18.4374 9.8674C18.3457 9.21709 18.6337 8.67696 18.8693 8.10189C20.0734 5.13519 22.136 2.74624 23.9186 0.169189Z" fill="#029F67"/>
<path d="M23.3914 8.53184C23.907 8.31955 24.4227 8.10726 24.9357 7.89497C26.5037 7.68536 28.0742 7.47576 29.6422 7.26616C30.6264 7.24466 31.6106 7.22047 32.5948 7.19629C34.6653 7.55638 36.7987 7.49188 38.8142 8.20669C38.7278 8.57215 38.6414 8.93761 38.5577 9.30308C36.885 9.77334 35.2098 10.2436 33.5502 10.7085C30.1971 9.00479 28.8517 9.29502 26.009 12.1596C25.1661 13.0115 24.0144 13.127 22.8652 13.0625C23.538 11.6141 23.3809 10.0636 23.3914 8.53184Z" fill="#EDEDEE"/>
<path d="M23.9179 0.169114C22.1353 2.74617 20.0727 5.13243 18.8634 8.09913C18.6278 8.67688 18.3398 9.21433 18.4315 9.86464C17.7273 10.2973 17.0258 10.7299 16.3217 11.1599C15.7982 11.4098 15.2746 11.6597 14.7511 11.9096C14.5862 11.6087 14.4213 11.3104 14.2773 11.0497C15.115 7.68798 16.6436 4.71053 18.3843 1.82445C18.7168 1.27357 19.5806 1.13383 19.4863 0.281978C20.96 0.058938 22.4338 -0.164102 23.9179 0.169114Z" fill="#029459"/>
<path d="M4.02176 10.0715C6.52942 11.1894 5.48238 13.3768 5.25727 15.102C4.71019 19.3022 3.91706 23.4728 3.15534 27.6406C3.05849 28.1754 3.33857 28.3501 3.53489 28.6564C2.82814 29.3148 2.1214 29.9732 1.41465 30.6315C0.532518 28.815 0.317876 26.8452 0.158203 24.8647C1.12671 24.8809 0.459226 26.3723 1.87272 26.3454C3.0899 22.422 3.44066 18.2407 3.81759 14.0325C2.56115 13.968 1.90937 14.7554 1.49056 16.5827C1.38585 16.932 1.27853 17.2814 1.17383 17.6307C1.07436 17.4345 0.974891 17.2411 0.875423 17.0449C1.45391 14.4974 2.49571 12.1703 4.02176 10.0715Z" fill="#E13F25"/>
<path d="M20.7794 45.5107C20.6119 45.113 20.447 44.7126 20.248 44.237C20.8187 43.017 22.1222 42.6596 23.1091 41.9394C24.266 41.0929 25.4937 40.3647 26.4805 39.2844C26.8993 38.8249 27.1245 38.36 27.0564 37.7446C29.5614 38.1988 32.0665 38.6502 34.6238 38.6072C30.8728 40.6603 26.7894 42.0442 23.2504 44.28C23.5069 45.6639 24.6796 45.2151 25.2267 45.8063C24.8759 45.8547 24.5226 45.9031 24.1718 45.9514C24.0881 45.9595 24.0017 45.9649 23.9179 45.9729C23.5672 45.9756 23.219 45.9756 22.8683 45.9783C22.8054 45.8466 22.7426 45.715 22.6091 45.4328C22.4756 45.7123 22.4128 45.8466 22.35 45.9783C21.9992 45.9864 21.6485 45.9917 21.2977 45.9998C21.2166 45.9272 21.1354 45.852 21.0543 45.7768C20.96 45.6881 20.8684 45.5994 20.7794 45.5107Z" fill="#E13F25"/>
<path d="M29.6459 7.2663C28.0779 7.47591 26.5074 7.68551 24.9395 7.89511C25.9158 5.09502 28.002 3.25427 30.1982 1.51025C31.4494 1.78435 32.5409 2.41048 33.5854 3.13872C33.3995 3.24083 33.1979 3.31876 33.033 3.45043C31.6876 4.51995 29.7453 5.0359 29.6459 7.2663Z" fill="#49B289"/>
<path d="M25.2243 45.8092C24.6799 45.218 23.5046 45.6668 23.248 44.2829C26.787 42.0471 30.8705 40.6632 34.6215 38.6101C34.7995 38.5779 34.9748 38.5456 35.1502 38.5134C36.5402 38.3978 38.0505 39.0213 39.2651 37.8147C39.3986 38.1103 39.2389 38.3575 39.0714 38.5376C35.2916 42.6302 30.8076 45.3228 25.2243 45.8092ZM24.7584 44.4871C27.8838 45.5889 30.4595 43.9792 33.0431 42.7485C34.4932 42.0578 35.9695 41.1361 36.5192 38.989C32.2342 40.467 28.3654 42.1438 24.7584 44.4871Z" fill="#F37750"/>
<path d="M0.874976 17.0424C0.974445 17.2386 1.07391 17.4321 1.17338 17.6282C0.969209 19.9339 0.0190245 22.2529 1.38541 24.5586C2.51097 21.7585 2.85649 18.8348 2.9769 15.9084C2.05027 15.594 2.01625 16.5211 1.49011 16.5802C1.90892 14.7529 2.55809 13.9655 3.81715 14.03C3.44283 18.2355 3.08946 22.4196 1.87228 26.3429C0.461397 26.3698 1.12626 24.8784 0.157757 24.8622C-0.187765 22.1992 0.0268772 19.5926 0.874976 17.0424Z" fill="#F37750"/>
<path d="M38.817 8.20667C36.8015 7.49455 34.6681 7.55904 32.5976 7.19627C32.472 7.03503 32.349 6.87111 32.2207 6.70719C33.4222 6.0112 34.2991 4.85569 35.6655 4.50366C37.1784 5.39045 38.2595 6.75287 39.5369 8.1153C39.2097 8.15829 39.0133 8.18248 38.817 8.20667Z" fill="#89C89A"/>
<path d="M35.1699 10.9476C36.942 10.4854 38.7115 10.0259 40.4836 9.56372C41.0202 10.171 41.4783 10.8294 41.7401 11.6141C39.6303 12.0548 37.5179 12.4955 35.4081 12.9362C35.6542 12.2321 35.9604 11.5227 35.1699 10.9476Z" fill="#89C89A"/>
<path d="M35.663 4.50647C34.2967 4.8585 33.4198 6.01401 32.2183 6.71C32.3465 6.87661 32.4722 7.03784 32.5952 7.19908C31.611 7.22326 30.6268 7.24476 29.6426 7.26894C29.7447 5.03854 31.6869 4.52259 33.0297 3.45308C33.1946 3.32409 33.3962 3.24347 33.582 3.14136C34.3883 3.41814 35.0322 3.95021 35.663 4.50647Z" fill="#62B893"/>
<path d="M40.6684 36.1726C40.5977 36.2559 40.5296 36.3392 40.459 36.4198C40.3333 36.401 40.2077 36.3849 40.082 36.3661C40.1344 35.8851 40.2155 35.3933 39.5952 35.0843C39.2889 35.1515 38.9251 35.2321 38.5586 35.31C38.8518 34.4286 39.2156 33.5633 39.1109 32.5959C39.6266 32.6281 40.1449 32.7356 40.5846 32.3003C41.7625 31.1367 42.6394 29.8066 43.0347 28.1458C43.176 27.5547 42.9876 26.7539 43.7781 26.4395C43.6603 28.2077 43.0033 29.8334 42.5269 31.5103C42.1552 32.8216 41.0924 33.8804 41.2024 35.3584L41.2154 35.3449C40.6343 35.3449 40.6527 35.7588 40.6684 36.1726Z" fill="#2E2A2B"/>
<path d="M3.75781 35.6056C4.797 34.6087 5.83618 33.6117 6.87536 32.6147C7.33082 33.2597 7.78628 33.9073 8.24174 34.5522C7.26538 35.6218 6.29164 36.694 5.31528 37.7635C4.66088 37.1454 4.15045 36.4172 3.75781 35.6056Z" fill="#082F5C"/>
<path d="M41.2013 35.3611C41.0914 33.8804 42.1541 32.8244 42.5258 31.513C43.0022 29.8362 43.6592 28.2104 43.777 26.4422C43.7744 26.3616 43.777 26.281 43.7875 26.2003C43.8712 26.0122 43.955 25.8214 44.0388 25.6333C44.0414 25.198 44.0414 24.7627 44.044 24.3247C44.4811 23.1557 44.4995 21.9895 44.0335 20.8232C44.0231 20.7372 44.0257 20.6512 44.044 20.5652C44.078 20.541 44.1487 20.5088 44.1435 20.4954C44.1251 20.4255 44.0885 20.3637 44.0571 20.2965C44.0466 20.2159 44.0414 20.1353 44.0414 20.052C44.1539 19.9445 44.2665 19.8397 44.379 19.7322C45.2062 21.4009 44.8869 23.1933 44.7586 24.9078C44.6251 26.6599 44.1958 28.4012 43.7639 30.1129C43.2744 32.0343 42.3216 33.7488 41.2013 35.3611Z" fill="#282526"/>
<path d="M1.62891 31.3437C2.58694 30.739 3.13926 29.6373 4.19153 29.1482C5.2883 29.2933 5.13648 30.4219 5.61811 31.0481C4.64437 31.9429 3.67063 32.8351 2.69688 33.7299C2.18122 33.0097 1.82784 32.2143 1.62891 31.3437Z" fill="#082F5C"/>
<path d="M38.5578 35.3129C38.9243 35.2323 39.2908 35.1517 39.5944 35.0872C40.2121 35.3962 40.1336 35.8879 40.0813 36.369C40.042 36.4899 40.0001 36.6108 39.9609 36.7317C39.8535 37.1724 39.6467 37.546 39.2724 37.812C38.0526 39.0213 36.5423 38.3951 35.1523 38.5134C36.1523 37.2987 37.7307 36.7264 38.5578 35.3129Z" fill="#504F51"/>
<path d="M3.00391 34.3588C5.82043 31.9725 8.32808 29.2074 11.354 27.0764C11.4509 27.1732 11.5503 27.2672 11.6472 27.3613C8.87254 29.8873 5.95916 32.2601 3.43319 35.0682C3.29184 34.8318 3.14787 34.5953 3.00391 34.3588Z" fill="#C7361D"/>
<path d="M43.0443 14.2153C42.0313 14.4061 41.0183 14.5969 40.0079 14.7877C39.5891 14.1723 39.6572 13.1324 38.5918 13.0813C39.7566 12.8126 40.9215 12.5466 42.0837 12.2778C42.6229 12.8099 42.8663 13.4951 43.0443 14.2153Z" fill="#CDCECF"/>
<path d="M42.625 18.9663C43.1328 18.3536 42.8213 17.0906 44.0594 17.0503C43.8082 17.7302 44.6091 18.2649 44.3081 18.9529C44.0542 18.8803 43.816 18.5498 43.5333 18.8991C43.3815 18.9045 43.2323 18.9099 43.0805 18.9152C42.9286 18.934 42.7768 18.9502 42.625 18.9663Z" fill="#282526"/>
<path d="M43.5332 18.8992C43.8159 18.5525 44.0541 18.8804 44.308 18.9529C44.329 19.2136 44.3525 19.4716 44.3735 19.7322C44.2609 19.8397 44.1483 19.9445 44.0358 20.052C43.3683 19.8988 43.5882 19.3372 43.5332 18.8992Z" fill="#2E2A2B"/>
<path d="M40.6674 36.1727C40.6517 35.7588 40.6334 35.345 41.2145 35.3477C41.0312 35.6218 40.8506 35.8959 40.6674 36.1727Z" fill="#282526"/>
<path d="M39.9609 36.7317C40.0002 36.6107 40.0421 36.4898 40.0813 36.3689C40.207 36.385 40.3326 36.4038 40.4583 36.42C40.351 36.6215 40.3169 36.9467 39.9609 36.7317Z" fill="#282526"/>
<path d="M22.3477 45.9784C22.4105 45.8467 22.4733 45.715 22.6068 45.4329C22.7403 45.7123 22.8031 45.8467 22.8659 45.9784C22.6932 45.9784 22.5204 45.9784 22.3477 45.9784Z" fill="#CF371F"/>
<path d="M21.0494 45.7796C21.1305 45.8548 21.2117 45.9274 21.2928 46.0026C21.0337 45.9865 20.7746 45.9677 20.518 45.9515C20.4892 45.887 20.4892 45.8226 20.5154 45.7581C20.6934 45.7634 20.8714 45.7715 21.0494 45.7796Z" fill="#F37750"/>
<path d="M19.7266 45.7904C19.7737 45.7447 19.8208 45.7017 19.8731 45.6533C19.915 45.7098 19.9543 45.7635 19.9936 45.8172C19.9046 45.8092 19.8156 45.8011 19.7266 45.7904Z" fill="#C7361D"/>
<path d="M23.9121 45.9722C23.9959 45.9645 24.0823 45.9594 24.166 45.9517C24.0823 45.9594 23.9985 45.9671 23.9121 45.9722Z" fill="#F37750"/>
<path d="M32.5448 20.8608C32.8981 23.1772 32.7856 25.5151 32.8065 27.845C32.8091 28.1647 32.8536 28.463 33.1468 28.6511C30.6522 30.4354 27.8854 31.5802 24.959 32.3649C25.014 29.6723 25.7757 27.0038 25.2103 24.2897C26.0427 23.6824 26.8855 23.0939 27.5556 22.2824C28.2964 21.3848 29.3644 21.366 30.3879 21.2236C31.1077 21.1269 31.8249 20.9845 32.5448 20.8608Z" fill="#EDEDEE"/>
<path d="M25.2086 24.2925C25.774 27.0039 25.0149 29.675 24.9573 32.3676C22.8344 33.2302 20.5519 33.2651 18.3479 33.7139C18.2013 33.6172 18.0521 33.5231 17.9055 33.4264C18.1149 33.284 18.3217 33.1442 18.4945 33.026C18.4919 31.2739 18.8924 29.5514 18.5966 27.8208C18.4029 27.5145 18.0835 27.5521 17.793 27.5091C19.2248 26.4584 20.6566 25.4104 22.0989 24.3543C23.1773 24.6687 24.1877 24.3516 25.2086 24.2925Z" fill="#E1E2E3"/>
<path d="M9.37979 23.5829C8.62854 21.7905 7.89038 19.9928 7.68359 18.0257C9.04212 16.6875 10.2331 15.1611 11.856 14.1185C12.1335 14.1131 12.3481 14.0003 12.479 13.7423L12.4581 13.6402L12.5418 13.5811C12.869 14.2314 13.0287 14.8897 12.8402 15.6314C12.4083 17.319 12.8324 18.9555 13.1989 20.5894C12.0733 21.7852 10.7069 22.6612 9.37979 23.5829Z" fill="#CDCECF"/>
<path d="M16.3242 11.1654C17.0284 10.7327 17.7299 10.3001 18.434 9.87012C19.6198 9.46167 20.8029 9.03977 21.9939 8.6555C22.4415 8.51039 22.9075 8.34915 23.3917 8.53457C23.3812 10.0663 23.5383 11.6168 22.8656 13.0652C20.316 13.2883 18.6015 14.5056 18.1146 17.2224C18.0859 17.3863 17.8398 17.5099 17.6958 17.6523C17.298 16.3867 16.6645 15.2043 17.0467 13.7505C17.2849 12.8476 17.3503 11.7915 16.3242 11.1654Z" fill="#E1E2E3"/>
<path d="M16.3247 11.1653C17.3508 11.7914 17.2854 12.8502 17.0498 13.7477C16.6676 15.2015 17.3011 16.3839 17.699 17.6496C16.1991 18.6304 14.7018 19.6086 13.2019 20.5894C12.8355 18.9556 12.4114 17.3217 12.8433 15.6315C13.0318 14.8898 12.8721 14.2287 12.5449 13.5811C13.2831 13.0248 14.0186 12.4686 14.7568 11.9123C15.2777 11.6651 15.8012 11.4152 16.3247 11.1653Z" fill="#D6D7D8"/>
<path d="M22.0611 23.5751C19.823 22.871 18.3284 20.1489 18.7262 17.5019C19.1424 14.7314 20.7104 13.6726 25.0791 13.635C21.849 15.5671 19.5115 17.5637 22.383 21.0786C22.2757 21.909 22.1684 22.742 22.0611 23.5751Z" fill="#038951"/>
<path d="M17.7973 27.509C18.0878 27.552 18.4072 27.5144 18.6009 27.8208C18.894 29.5513 18.4962 31.2738 18.4988 33.0259C18.326 33.1442 18.1166 33.2839 17.9098 33.4263C16.4832 32.6443 15.3472 31.4861 14.1641 30.3871C15.2451 29.2584 16.5016 28.3582 17.7973 27.509Z" fill="#D6D7D8"/>
<path d="M14.7324 25.8779C16.2271 24.7331 17.7217 23.5884 19.2242 22.4355C19.9336 23.0241 20.5644 23.5454 21.3 24.1554C19.3708 25.5393 17.4704 26.899 15.5727 28.2615C15.7114 27.3102 14.8921 26.7163 14.7324 25.8779Z" fill="#0194D6"/>
<path d="M12.4023 22.1695C14.1954 20.893 15.9911 19.6166 17.9228 18.2407C18.1192 19.2565 18.271 20.06 18.4516 20.9978C17.1009 21.9222 15.7084 22.8735 14.3158 23.8248C13.2661 23.7737 12.9913 22.7821 12.4023 22.1695Z" fill="#0194D6"/>
<path d="M22.1328 19.5979C24.6902 17.338 27.4832 15.5402 31.1111 14.8657C28.4255 17.4186 25.431 18.8106 22.1328 19.5979Z" fill="#E1E2E3"/>
<path d="M5.61995 31.0482C5.13569 30.4221 5.28751 29.2935 4.19336 29.1483C5.26919 28.1594 6.34502 27.1705 7.42347 26.1816C8.21136 26.4745 8.27942 27.5064 9.03852 27.8289C8.16163 29.1994 6.70363 29.9169 5.61995 31.0482Z" fill="#015F97"/>
<path d="M29.404 20.5626C28.2444 20.7239 27.0874 20.9254 25.9226 21.0356C24.8624 21.1377 23.7526 21.3581 22.7422 20.3503C24.7106 19.254 26.7052 18.6628 28.8752 18.7165C28.7469 19.4232 29.5532 19.8478 29.404 20.5626Z" fill="#0185C3"/>
<path d="M8.23943 34.5524C7.78397 33.9074 7.32851 33.2625 6.87305 32.6149C7.92794 31.634 8.98282 30.6532 10.0403 29.6697C10.3728 30.4114 11.2052 30.9112 11.0586 31.8866C10.2942 32.9696 9.14773 33.628 8.23943 34.5524Z" fill="#015F97"/>
<path d="M12.4028 22.1697C12.9918 22.7824 13.2666 23.774 14.3163 23.825C13.264 24.6312 12.2091 25.4373 11.1568 26.2408C10.4422 25.827 10.2538 24.6339 9.13867 24.8166C10.2276 23.9352 11.3139 23.0538 12.4028 22.1697Z" fill="#0185C3"/>
<path d="M22.0625 23.5751C22.1698 22.742 22.2771 21.909 22.3845 21.0759C23.8896 22.2099 25.5596 21.479 27.1511 21.5354C26.248 23.4514 24.3136 24.2334 22.0625 23.5751Z" fill="#029459"/>
<path d="M26.318 15.2767C25.0013 16.5531 23.6245 17.7436 21.9257 18.6492C21.4885 17.4372 21.9885 16.623 22.7999 15.9593C23.6506 15.2659 24.5459 14.6318 25.4201 13.9707C25.7185 14.406 26.0196 14.8414 26.318 15.2767Z" fill="#0185C3"/>
<path d="M14.7324 25.8779C14.8921 26.7163 15.7114 27.3102 15.5701 28.2615C14.79 28.8823 14.01 29.503 13.2325 30.1211C12.8739 29.3068 12.3949 28.6377 11.4316 28.5517C12.4473 27.5494 13.5388 26.6465 14.7324 25.8779Z" fill="#0185C3"/>
<path d="M38.5919 13.0786C39.6573 13.1297 39.5866 14.1696 40.008 14.785C38.5029 15.2123 36.9978 15.6369 35.4927 16.0614C35.1105 15.4192 36.2544 15.6906 36.0005 15.1182C36.0816 14.4787 35.4272 14.4598 35.1445 14.1078C36.2439 13.5972 37.3904 13.2398 38.5919 13.0786Z" fill="#89C89A"/>
<path d="M27.8174 11.3668C29.3879 10.1361 30.8826 9.99636 32.5186 11.0605C30.88 11.5039 29.757 12.654 28.3723 13.3473C27.8802 12.7776 27.7677 12.0951 27.8174 11.3668Z" fill="#015F97"/>
<path d="M9.13968 24.8192C10.2548 24.6338 10.4432 25.8296 11.1578 26.2434C10.5898 26.969 9.80716 27.3936 9.03497 27.8316C8.27587 27.5091 8.20782 26.4745 7.41992 26.1843C7.99579 25.7275 8.56904 25.2733 9.13968 24.8192Z" fill="#0275B1"/>
<path d="M29.404 20.5626C29.5532 19.8505 28.747 19.426 28.8752 18.7192C29.9092 18.4935 31.019 18.9637 32.0137 18.3752C32.0608 18.6682 32.1079 18.9611 32.1472 19.1949C32.5058 19.4179 32.7885 19.5952 33.0712 19.7699C31.943 20.4874 30.7049 20.6809 29.404 20.5626Z" fill="#0275B1"/>
<path d="M29.6843 13.3824C30.6266 12.638 31.5768 11.9071 32.8018 11.7163C33.3306 12.2591 32.9039 12.9471 33.0662 13.5436C31.9354 13.85 30.8046 14.1563 29.6738 14.4627C29.6764 14.1053 29.6791 13.7452 29.6843 13.3824Z" fill="#49B289"/>
<path d="M27.8183 11.3669C27.7686 12.0952 27.8811 12.7777 28.3732 13.3474C27.8157 14.1348 27.1011 14.7448 26.3158 15.2769C26.0174 14.8415 25.719 14.4089 25.418 13.9736C26.2268 13.1083 26.6823 11.9071 27.8183 11.3669Z" fill="#0275B1"/>
<path d="M11.4316 28.5518C12.3949 28.6377 12.8739 29.3069 13.2325 30.1211C12.5074 30.7096 11.7824 31.2981 11.0573 31.8866C11.2039 30.9138 10.3715 30.414 10.0391 29.6696C10.5024 29.2988 10.9683 28.9253 11.4316 28.5518Z" fill="#0275B1"/>
<path d="M35.1389 14.1079C35.4216 14.4599 36.076 14.4787 35.9949 15.1183C36.2488 15.6907 35.1049 15.4193 35.4871 16.0615C34.5945 16.4377 33.6992 16.814 32.8066 17.1902C33.1365 16.47 33.0605 15.6987 33.0605 14.941C33.7045 14.5298 34.3981 14.2557 35.1389 14.1079Z" fill="#62B893"/>
<path d="M33.0632 13.5463C32.9009 12.9471 33.3276 12.2618 32.7988 11.719C33.5893 11.4637 34.3772 11.2057 35.1677 10.9504C35.9583 11.5255 35.6546 12.2349 35.4059 12.9417C34.6259 13.1405 33.8459 13.3421 33.0632 13.5463Z" fill="#62B893"/>
<path d="M11.6486 27.3614C11.5518 27.2673 11.4523 27.1706 11.3555 27.0765C13.6642 25.01 16.1954 23.2714 18.9648 21.8633C16.5252 23.696 14.0856 25.5287 11.6486 27.3614Z" fill="#CDCECF"/>
<path d="M33.0751 19.7699C32.7924 19.5925 32.5071 19.4179 32.1511 19.1948C32.1118 18.961 32.0647 18.6681 32.0176 18.3752C33.0227 17.6927 34.1457 17.3164 35.5566 16.873C35.0173 18.3376 34.2661 19.2432 33.0751 19.7699Z" fill="#015F97"/>
<path d="M33.0605 14.9409C33.0605 15.7014 33.1364 16.47 32.8066 17.1901C32.0684 17.6496 31.2936 17.9694 30.4062 17.8834C30.5476 17.5825 30.6889 17.2788 30.8355 16.9671C30.6968 16.7387 30.5685 16.5264 30.4377 16.3141C31.2622 15.7471 32.1103 15.2446 33.0605 14.9409Z" fill="#49B289"/>
<path d="M30.4437 16.314C30.572 16.5263 30.7028 16.7385 30.8416 16.967C30.695 17.2787 30.5536 17.5797 30.4123 17.8833C29.7317 17.9532 29.0538 18.0204 28.2188 18.1063C28.8234 17.1739 29.6951 16.8219 30.4437 16.314Z" fill="#029F67"/>
<path d="M29.6849 13.3823C29.6797 13.7424 29.6771 14.1025 29.6718 14.4653C29.041 14.7125 28.4102 14.957 27.7793 15.2043C27.7348 15.121 27.6929 15.0403 27.6484 14.957C28.329 14.433 29.007 13.909 29.6849 13.3823Z" fill="#029F67"/>
<path d="M18.3477 33.7139C20.5517 33.2651 22.8342 33.2302 24.9571 32.3676C27.8809 31.5829 30.6503 30.4382 33.1449 28.6539C34.171 28.4039 34.6343 27.2377 35.684 27.0254C35.7101 28.0573 36.4823 28.627 37.0242 29.3498C37.7937 30.3791 38.9612 31.1476 39.1078 32.5987C39.2125 33.5661 38.8486 34.4314 38.5554 35.3128C37.7283 36.7263 36.1525 37.2987 35.15 38.516C34.9746 38.5482 34.7966 38.5805 34.6212 38.6127C32.0638 38.6557 29.5588 38.2043 27.0538 37.7501C24.0331 36.6725 20.96 35.7159 18.3477 33.7139Z" fill="#242021"/>
<path d="M21.0496 45.7795C20.8716 45.7714 20.6936 45.7633 20.5156 45.758C20.6046 45.6773 20.691 45.594 20.78 45.5134C20.869 45.5994 20.9606 45.6881 21.0496 45.7795Z" fill="#C7361D"/>
<path d="M12.4785 13.7423C12.3476 14.0003 12.1303 14.1131 11.8555 14.1185C12.0125 13.9062 12.1879 13.7235 12.4785 13.7423Z" fill="#D6D7D8"/>
<path d="M39.1113 32.5987C38.9647 31.1476 37.7947 30.379 37.0277 29.3498C36.4859 28.6243 35.7137 28.0572 35.6875 27.0254C35.9283 26.8184 36.1691 26.6115 36.41 26.4046C37.2162 27.329 37.5695 28.7694 39.0799 28.8876C40.9881 29.0354 42.009 27.9981 42.7419 25.5071C43.3858 23.3197 43.111 21.1215 43.0822 18.918C43.234 18.9126 43.3832 18.9072 43.535 18.9019C43.59 19.3372 43.3701 19.9015 44.0402 20.0547C44.0402 20.138 44.0455 20.2186 44.0559 20.2992C44.0507 20.3879 44.0455 20.4793 44.0428 20.5679C44.0245 20.6539 44.0219 20.7399 44.0324 20.8259C43.6659 21.9949 43.6528 23.1611 44.0428 24.3274C44.0402 24.7627 44.0402 25.198 44.0376 25.6361C43.7471 25.7301 43.3989 25.7946 43.7863 26.2031C43.7759 26.2837 43.7732 26.3643 43.7759 26.4449C42.9853 26.7593 43.1738 27.5574 43.0325 28.1513C42.6372 29.8147 41.7577 31.1422 40.5824 32.3058C40.1426 32.7384 39.627 32.6309 39.1113 32.5987Z" fill="#504F51"/>
<path d="M43.0804 18.918C43.1092 21.1215 43.3841 23.3197 42.7402 25.5071C42.0072 27.9981 40.9864 29.0354 39.0781 28.8876C37.5678 28.7694 37.2118 27.329 36.4082 26.4046C37.0521 25.8 37.6961 25.1926 38.3374 24.588C39.1384 25.5232 40.1383 25.8913 40.9733 24.8594C41.9549 23.6475 42.3737 22.1722 41.6774 20.5894C41.9392 20.0144 42.1172 19.3882 42.6276 18.969C42.7768 18.9502 42.9286 18.9341 43.0804 18.918Z" fill="#7E7E80"/>
<path d="M41.676 20.5867C42.3749 22.1721 41.9534 23.6474 40.9719 24.8567C40.1368 25.8886 39.1369 25.5204 38.3359 24.5853C38.6658 24.2252 38.993 23.8651 39.3228 23.505C39.8751 23.8651 40.3907 23.8167 40.7494 23.247C41.1053 22.68 41.7519 22.1265 41.0818 21.3552C41.2807 21.0999 41.4797 20.8446 41.676 20.5867Z" fill="#89C89A"/>
<path d="M41.0832 21.3579C41.7507 22.1291 41.1068 22.6827 40.7508 23.2497C40.3948 23.8194 39.8765 23.8678 39.3242 23.5077C39.9106 22.7902 40.4969 22.0727 41.0832 21.3579Z" fill="#CDCECF"/>
<path d="M1.49129 16.5801C2.01481 16.521 2.04884 15.5966 2.97808 15.9083C2.86029 18.8374 2.51215 21.7584 1.38659 24.5585C0.0202035 22.2528 0.967771 19.9337 1.17456 17.6281C1.27926 17.2788 1.38397 16.9294 1.49129 16.5801Z" fill="#F79E7B"/>
<path d="M24.7578 44.4871C28.3649 42.1438 32.231 40.467 36.5186 38.989C35.9689 41.1361 34.4926 42.0578 33.0425 42.7485C30.4589 43.9792 27.8832 45.5889 24.7578 44.4871Z" fill="#F79E7B"/>
<path d="M44.0428 24.3247C43.6528 23.1584 43.6659 21.9922 44.0324 20.8232C44.4983 21.9895 44.48 23.1584 44.0428 24.3247Z" fill="#2E2A2B"/>
<path d="M43.7883 26.2003C43.3983 25.7918 43.7491 25.7274 44.0396 25.6333C43.9533 25.8214 43.8721 26.0122 43.7883 26.2003Z" fill="#2E2A2B"/>
<path d="M44.041 20.5654C44.0463 20.4767 44.0515 20.3853 44.0541 20.2966C44.0855 20.3611 44.1222 20.4256 44.1405 20.4955C44.1431 20.5089 44.075 20.5412 44.041 20.5654Z" fill="#2E2A2B"/>
</g>
<defs>
<clipPath id="clip0_16_9978">
<rect width="162" height="46" fill="white"/>
</clipPath>
</defs>
</svg>
