<svg width="316" height="184" viewBox="0 0 316 184" fill="none" xmlns="http://www.w3.org/2000/svg">
<g clip-path="url(#clip0_16_9257)">
<path d="M181.681 63.0807C181.722 63.4728 181.534 63.8016 181.403 64.1508C180.758 65.8816 180.128 67.6175 179.49 69.3504C179.367 69.6823 179.282 70.0366 178.968 70.2623C178.841 70.3542 178.876 70.4746 178.883 70.6186C178.905 71.0342 178.714 71.4049 178.539 71.7705C178.467 71.9195 178.321 71.9747 178.154 71.9747C175.603 71.9737 173.051 71.9747 170.525 71.9747C170.35 71.747 170.481 71.5846 170.545 71.4182C171.576 68.7112 172.608 66.0042 173.637 63.2971C173.672 63.2042 173.675 63.1001 173.693 63C174.102 63 174.511 63 174.92 63C174.99 63.0929 175.091 63.1011 175.195 63.1001C177.357 63.0939 179.518 63.0868 181.681 63.0807Z" fill="#D7BF80"/>
<path d="M190.591 63C190.812 63.1338 190.676 63.3002 190.621 63.4452C189.585 66.1931 188.543 68.9389 187.509 71.6877C187.442 71.8685 187.364 71.9757 187.154 71.9757C184.72 71.9665 182.285 71.9614 179.85 71.9543C179.821 71.9543 179.791 71.9298 179.721 71.8971C179.831 71.5846 179.937 71.266 180.056 70.9525C181.021 68.412 181.99 65.8755 182.954 63.337C182.994 63.2308 183.069 63.1236 182.998 63C183.202 63 183.407 63 183.611 63C183.697 63.1103 183.82 63.099 183.938 63.098C185.196 63.0939 186.454 63.0899 187.713 63.0858C188.308 63.0899 188.905 63.1154 189.499 63.0919C189.862 63.0776 190.243 63.2114 190.591 63Z" fill="#1A4873"/>
<path d="M172.262 63C172.134 63.775 171.811 64.4888 171.541 65.2169C170.768 67.301 169.962 69.3739 169.203 71.4631C169.052 71.8797 168.839 71.9839 168.425 71.9798C166.314 71.9614 164.202 71.9716 162.092 71.9716C161.86 71.9716 161.626 71.9716 161.312 71.9716C161.644 71.071 161.944 70.2459 162.251 69.4229C162.975 67.4827 163.702 65.5436 164.431 63.6055C164.509 63.3993 164.606 63.2012 164.695 63C164.729 63 164.764 63 164.797 63C164.915 63.144 165.078 63.0919 165.225 63.0929C167.398 63.1001 169.57 63.1052 171.743 63.1052C171.885 63.1052 172.055 63.1675 172.159 63C172.193 63 172.228 63 172.262 63Z" fill="#32A5A5"/>
<path d="M210.606 84.5458C210.019 85.0206 209.34 84.7265 208.708 84.8338C208.681 84.7265 208.655 84.6775 208.66 84.6326C208.693 84.3324 208.806 83.9964 208.466 83.8065C208.079 83.59 207.676 83.6329 207.304 83.8657C206.976 84.071 206.711 84.3385 206.699 84.7531C206.692 84.9961 206.885 85.0972 207.093 85.1554C207.517 85.2749 207.942 85.3882 208.367 85.5097C209.525 85.8406 209.908 86.6207 209.457 87.7307C208.712 89.5687 206.582 90.693 204.621 90.2856C203.403 90.0323 202.953 89.2164 203.389 88.0554C203.444 87.9094 203.483 87.7685 203.689 87.7715C204.196 87.7787 204.703 87.7736 205.192 87.7736C205.22 87.8522 205.246 87.8859 205.241 87.9114C205.024 88.8478 205.339 89.1797 206.292 88.9938C206.792 88.8968 207.226 88.6936 207.452 88.1831C207.613 87.8175 207.564 87.5489 207.156 87.4274C206.766 87.312 206.372 87.215 205.977 87.119C205.641 87.0374 205.342 86.8842 205.061 86.6881C204.667 86.4134 204.538 86.0315 204.615 85.5771C204.971 83.4726 207.284 81.946 209.364 82.4372C209.85 82.5526 210.206 82.8375 210.454 83.2704C210.507 83.1816 210.557 83.0989 210.607 83.0151C210.606 83.5247 210.606 84.0352 210.606 84.5458Z" fill="#1A4873"/>
<path d="M175.534 121C175.511 120.802 175.229 120.7 175.347 120.422C175.541 120.369 175.717 120.385 175.927 120.519C176.263 120.73 176.447 120.605 176.5 120.137C176.134 120.298 175.775 120.365 175.475 120.051C175.185 119.747 175.198 119.364 175.27 118.995C175.347 118.595 175.644 118.339 176.036 118.4C176.359 118.45 176.673 118.456 177.017 118.409C177.017 119.109 177.021 119.762 177.015 120.415C177.013 120.674 176.824 120.832 176.658 120.999C176.283 121 175.909 121 175.534 121ZM175.75 119.225C175.757 119.521 175.766 119.83 176.13 119.853C176.447 119.874 176.487 119.591 176.519 119.352C176.56 119.059 176.448 118.817 176.142 118.798C175.894 118.783 175.766 118.988 175.75 119.225Z" fill="#1A4873"/>
<path d="M154.163 121C153.981 120.851 153.763 120.723 153.836 120.434C154.182 120.122 154.815 121.114 155.074 120.147C154.976 120.147 154.927 120.134 154.89 120.149C154.352 120.372 154 120.282 153.826 119.872C153.586 119.311 153.764 118.643 154.208 118.449C154.3 118.409 154.426 118.349 154.499 118.382C154.819 118.524 155.148 118.465 155.506 118.43C155.506 119.095 155.51 119.722 155.504 120.348C155.5 120.648 155.337 120.855 155.083 121C154.776 121 154.47 121 154.163 121ZM155.041 119.31C155.038 119.007 154.894 118.803 154.627 118.799C154.296 118.793 154.229 119.072 154.241 119.34C154.252 119.603 154.318 119.881 154.66 119.856C154.994 119.834 154.999 119.533 155.041 119.31Z" fill="#1A4873"/>
<path d="M125.329 121C125.158 120.846 124.945 120.713 125.017 120.428C126.146 120.316 126.163 120.312 126.175 120.132C125.794 120.318 125.405 120.387 125.124 120.014C124.85 119.648 124.846 119.224 125.025 118.806C125.154 118.504 125.429 118.326 125.713 118.393C126.026 118.468 126.325 118.439 126.673 118.435C126.673 119.124 126.682 119.796 126.669 120.468C126.664 120.734 126.46 120.88 126.248 121.001C125.942 121 125.635 121 125.329 121ZM126.214 119.32C126.22 119.004 126.089 118.792 125.812 118.791C125.482 118.79 125.426 119.058 125.431 119.335C125.436 119.613 125.501 119.872 125.841 119.855C126.188 119.837 126.166 119.524 126.214 119.32Z" fill="#1A4873"/>
<path d="M120.113 121C120.113 120.153 120.113 119.307 120.113 118.419C120.517 118.462 120.866 118.433 121.217 118.403C121.671 118.365 122.012 118.902 121.942 119.436C121.855 120.088 121.522 120.392 120.997 120.293C120.899 120.275 120.805 120.235 120.672 120.193C120.655 120.473 120.64 120.737 120.626 120.999C120.454 121 120.284 121 120.113 121ZM121.437 119.342C121.435 119.09 121.351 118.821 121.048 118.806C120.721 118.789 120.642 119.086 120.648 119.349C120.654 119.597 120.681 119.904 121.027 119.908C121.363 119.912 121.412 119.636 121.437 119.342Z" fill="#1A4873"/>
<path d="M118.17 121C118.17 120.16 118.17 119.32 118.17 118.44C118.513 118.424 118.847 118.434 119.177 118.391C119.479 118.351 119.717 118.576 119.827 118.868C119.985 119.287 119.983 119.703 119.685 120.067C119.483 120.314 119.213 120.381 118.907 120.27C118.831 120.243 118.757 120.213 118.646 120.171C118.622 120.473 118.601 120.737 118.58 121C118.443 121 118.306 121 118.17 121ZM119.402 119.47C119.41 119.116 119.391 118.811 119.027 118.804C118.762 118.799 118.606 118.997 118.617 119.286C118.628 119.565 118.644 119.872 118.994 119.909C119.332 119.942 119.402 119.68 119.402 119.47Z" fill="#1A4873"/>
<path d="M172.159 63C172.055 63.1675 171.885 63.1052 171.743 63.1052C169.57 63.1052 167.397 63.1001 165.224 63.0929C165.078 63.0929 164.914 63.144 164.797 63C167.251 63 169.705 63 172.159 63Z" fill="#79DCDA"/>
<path d="M181.681 63.0807C179.518 63.0868 177.357 63.0939 175.195 63.1001C175.092 63.1001 174.989 63.0929 174.92 63C177.169 63 179.419 63 181.669 63C181.68 63.0255 181.684 63.0531 181.681 63.0807Z" fill="#F0DEA8"/>
<path d="M187.713 63.0858C186.454 63.0899 185.196 63.0939 183.938 63.098C183.82 63.098 183.696 63.1093 183.611 63C184.974 63 186.338 63 187.701 63C187.703 63.0286 187.708 63.0572 187.713 63.0858Z" fill="#306FAA"/>
<path d="M187.712 63.0858C187.707 63.0572 187.703 63.0286 187.701 63C188.655 63 189.61 63 190.564 63C190.564 63 190.592 63 190.591 63C190.243 63.2114 189.862 63.0776 189.499 63.0919C188.905 63.1154 188.308 63.0909 187.712 63.0858Z" fill="#538ABF"/>
<path d="M174.792 81.9624C174.522 82.9774 174.141 83.9536 173.787 84.938C173.039 87.0088 172.291 89.0797 171.546 91.1515C170.486 94.1006 169.426 97.0496 168.377 100.002C168.3 100.221 168.18 100.277 167.968 100.292C165.622 100.444 163.273 100.332 160.925 100.353C160.728 100.355 160.531 100.278 160.264 100.224C160.621 99.2062 160.962 98.2188 161.313 97.2354C161.786 95.91 162.27 94.5886 162.744 93.2642C163.122 92.2115 163.497 91.1577 163.861 90.0998C164.724 87.5898 165.721 85.1269 166.517 82.5945C166.672 82.1054 166.888 81.847 167.477 81.8583C169.707 81.9011 171.938 81.8807 174.168 81.8879C174.366 81.8889 174.574 81.8511 174.792 81.9624Z" fill="#D7BF80"/>
<path d="M168.443 73.8655C168.445 74.2464 168.257 74.5609 168.139 74.8897C166.818 78.577 165.484 82.2602 164.162 85.9464C163.474 87.8641 162.798 89.7859 162.119 91.7076C162.035 91.9445 161.942 92.1242 161.631 92.1253C159.246 92.1304 156.862 92.1487 154.477 92.163C154.427 92.163 154.378 92.1477 154.25 92.1273C154.489 91.4513 154.72 90.7896 154.957 90.131C156.2 86.6622 157.441 83.1924 158.689 79.7247C159.355 77.8714 160.037 76.0231 160.704 74.1698C160.79 73.9308 160.906 73.8144 161.179 73.8154C163.529 73.8256 165.881 73.8246 168.232 73.8277C168.297 73.8277 168.362 73.8502 168.443 73.8655Z" fill="#32A5A5"/>
<path d="M165.971 110.515C166.68 108.533 167.348 106.665 168.017 104.798C169.463 100.763 170.913 96.7298 172.348 92.6913C172.455 92.3931 172.576 92.2563 172.916 92.2593C175.214 92.2787 177.514 92.2777 179.814 92.2849C179.911 92.2849 180.007 92.3063 180.136 92.3216C179.917 92.9915 179.723 93.6399 179.495 94.275C178.127 98.092 176.75 101.906 175.38 105.723C174.852 107.193 174.333 108.668 173.814 110.142C173.738 110.36 173.671 110.524 173.373 110.523C170.939 110.51 168.505 110.515 165.971 110.515Z" fill="#1A4873"/>
<path d="M154.756 110.394C154.914 110.052 155.043 109.762 155.181 109.477C156.194 107.403 157.212 105.333 158.215 103.255C158.344 102.987 158.503 102.891 158.796 102.902C159.387 102.924 159.979 102.908 160.647 102.908C159.775 104.712 158.935 106.451 158.068 108.246C159.172 108.246 160.208 108.247 161.244 108.245C161.359 108.245 161.488 108.267 161.551 108.125C161.966 107.18 162.502 106.29 162.854 105.316C162.875 105.259 162.849 105.185 162.843 105.09C162.362 105.356 162.025 105.748 161.659 106.108C161.541 106.223 161.46 106.398 161.263 106.399C160.573 106.403 159.882 106.4 159.053 106.4C159.558 105.865 159.969 105.428 160.382 104.992C160.779 104.573 161.225 104.191 161.564 103.729C162.07 103.039 162.697 102.827 163.531 102.892C164.423 102.962 165.323 102.907 166.255 102.907C166.165 103.5 165.785 103.89 165.574 104.354C164.696 106.286 163.749 108.187 162.826 110.098C162.752 110.251 162.686 110.398 162.464 110.397C159.916 110.393 157.366 110.394 154.756 110.394Z" fill="#1A4873"/>
<path d="M144.753 102.918C144.113 104.236 143.486 105.439 142.942 106.677C142.453 107.792 141.775 108.654 140.734 109.363C139.692 110.074 138.706 110.523 137.42 110.418C136.186 110.317 134.936 110.398 133.693 110.394C133.531 110.393 133.356 110.448 133.164 110.307C133.533 109.536 133.899 108.757 134.273 107.984C135.012 106.463 135.761 104.948 136.49 103.423C136.661 103.067 136.863 102.901 137.295 102.905C139.746 102.931 142.195 102.918 144.753 102.918ZM136.388 108.242C137.281 108.242 138.08 108.224 138.878 108.247C139.516 108.265 139.992 107.887 140.274 107.457C140.759 106.714 141.072 105.86 141.484 104.999C140.346 104.999 139.264 105 138.184 104.998C138.028 104.998 137.941 105.065 137.873 105.206C137.394 106.196 136.909 107.182 136.388 108.242Z" fill="#1A4873"/>
<path d="M140.824 95.5486C138.906 95.5486 137.094 95.5486 135.194 95.5486C135.481 94.8317 135.785 94.2221 136.111 93.6217C136.197 93.4634 136.331 93.4287 136.494 93.4287C138.978 93.4297 141.462 93.4297 144.085 93.4297C143.213 95.2433 142.378 96.9802 141.52 98.7651C141.806 98.8009 141.985 98.8233 142.236 98.855C141.956 99.5636 141.674 100.238 141.272 100.858C141.195 100.977 141.063 100.957 140.947 100.957C138.223 100.954 135.5 100.95 132.776 100.944C132.729 100.944 132.681 100.923 132.594 100.902C132.833 100.222 133.164 99.5994 133.478 98.9693C133.583 98.76 133.8 98.8162 133.982 98.8162C135.583 98.8141 137.183 98.8049 138.783 98.8213C139.143 98.8254 139.33 98.7018 139.478 98.373C139.884 97.4642 140.332 96.5717 140.824 95.5486Z" fill="#32A5A5"/>
<path d="M152.855 93.4299C153.677 93.4299 154.441 93.436 155.205 93.4268C155.465 93.4237 155.549 93.5555 155.61 93.7822C155.819 94.5664 156.048 95.3455 156.281 96.1675C156.903 95.8714 157.545 95.6682 157.79 94.9166C157.925 94.501 158.168 94.1222 158.357 93.724C158.434 93.5636 158.513 93.4309 158.725 93.4329C159.366 93.4391 160.008 93.435 160.708 93.435C160.502 94.1794 160.032 94.7257 159.807 95.3751C159.507 96.238 158.998 96.8762 158.137 97.2254C157.918 97.3142 157.725 97.4613 157.519 97.5808C156.749 98.027 156.753 98.0249 157.011 98.9082C157.197 99.5413 157.368 100.178 157.538 100.787C157.379 101.022 157.173 100.949 156.998 100.954C156.437 100.965 155.874 100.941 155.313 100.967C154.936 100.984 154.766 100.826 154.678 100.474C154.464 99.623 154.223 98.7796 153.983 97.8942C153.31 98.1699 152.698 98.4273 152.398 99.1176C152.174 99.6312 151.915 100.128 151.683 100.638C151.589 100.844 151.465 100.964 151.224 100.961C150.616 100.953 150.007 100.958 149.348 100.958C149.597 100.182 150.061 99.5699 150.292 98.8715C150.668 97.737 151.515 97.1376 152.506 96.6434C153.507 96.143 153.501 96.1369 153.224 95.0861C153.103 94.6266 152.994 94.1641 152.883 93.7025C152.866 93.6382 152.868 93.5698 152.855 93.4299Z" fill="#32A5A5"/>
<path d="M200.786 87.6585C201.269 86.4525 201.752 85.2456 202.235 84.0396C202.285 83.913 202.332 83.7854 202.385 83.6608C202.891 82.4589 203.081 82.365 204.475 82.6397C204.213 83.6087 203.768 84.5063 203.407 85.4335C202.866 86.8253 202.291 88.2058 201.776 89.6068C201.613 90.0479 201.399 90.2083 200.933 90.1766C200.328 90.1347 199.717 90.1664 199.047 90.1664C199.122 88.4274 199.195 86.7517 199.268 85.0761C199.243 85.0669 199.22 85.0587 199.195 85.0495C199.08 85.3079 198.956 85.5621 198.852 85.8246C198.343 87.1204 197.828 88.4141 197.34 89.7181C197.214 90.0541 197.05 90.2031 196.68 90.1705C196.293 90.1368 195.9 90.1633 195.535 90.1633C195.43 90.0408 195.472 89.9458 195.51 89.8509C196.428 87.5666 197.352 85.2844 198.259 82.995C198.384 82.6805 198.534 82.5478 198.89 82.5672C199.531 82.6019 200.177 82.5764 200.887 82.5764C200.833 84.298 200.781 85.9685 200.729 87.6391C200.747 87.6452 200.767 87.6513 200.786 87.6585Z" fill="#1A4873"/>
<path d="M182.892 76.5288C183.536 77.1608 183.626 77.5979 183.242 78.4332C182.727 79.5503 181.828 80.2099 180.633 80.4182C179.254 80.6592 177.86 80.502 176.434 80.5254C176.473 80.0302 176.685 79.6595 176.839 79.2735C177.617 77.3201 178.409 75.3708 179.178 73.4133C179.302 73.0978 179.457 72.962 179.805 72.9834C181.042 73.059 182.29 72.8609 183.522 73.1008C184.217 73.2356 184.505 73.6502 184.385 74.3425C184.269 75.0032 183.978 75.5658 183.422 75.9651C183.205 76.1213 183.028 76.3072 182.892 76.5288ZM178.89 78.9304C179.453 78.9304 179.895 78.9386 180.337 78.9284C180.892 78.9162 181.267 78.6394 181.453 78.1258C181.612 77.6888 181.452 77.4222 180.987 77.3988C180.562 77.3773 180.135 77.3885 179.71 77.3916C179.615 77.3926 179.496 77.363 179.44 77.4804C179.223 77.9308 179.005 78.3811 178.89 78.9304ZM180.139 75.8456C180.6 75.8456 181.007 75.862 181.412 75.8405C181.821 75.8191 182.107 75.5791 182.283 75.2238C182.458 74.8715 182.332 74.609 181.941 74.5662C181.572 74.5253 181.195 74.5457 180.821 74.5386C180.692 74.5365 180.586 74.5692 180.541 74.706C180.423 75.0726 180.177 75.3943 180.139 75.8456Z" fill="#32A5A5"/>
<path d="M180.443 90.1232C181.385 87.742 182.317 85.4107 183.225 83.0693C183.369 82.6966 183.545 82.5424 183.962 82.5628C184.863 82.6057 185.767 82.5873 186.67 82.5986C186.857 82.6006 187.046 82.6077 187.229 82.6425C188.256 82.8375 188.635 83.491 188.243 84.4693C187.916 85.2882 187.458 86.0193 186.5 86.3583C187.152 86.7974 186.901 87.3284 186.721 87.8543C186.469 88.5875 186.087 89.2829 186.096 90.1253C185.48 90.1253 184.879 90.1253 184.25 90.1253C184.201 89.6586 184.434 89.2716 184.574 88.8652C184.695 88.5129 184.856 88.1729 184.967 87.8186C185.082 87.4561 184.956 87.2222 184.543 87.2049C184.509 87.2038 184.474 87.2018 184.44 87.1998C183.322 87.1507 183.323 87.1507 182.946 88.1892C182.866 88.4129 182.788 88.6375 182.696 88.857C182.093 90.2938 182.092 90.2938 180.443 90.1232ZM183.996 85.6272C184.454 85.6272 184.842 85.6466 185.229 85.6231C185.829 85.5864 186.269 85.2463 186.361 84.7817C186.402 84.5734 186.417 84.362 186.162 84.2752C185.653 84.1037 185.104 84.068 184.612 84.2038C184.317 84.2855 184.311 84.7685 184.188 85.0768C184.126 85.232 184.077 85.3913 183.996 85.6272Z" fill="#1A4873"/>
<path d="M175.217 72.9925C175.139 74.4303 175.069 75.768 174.99 77.1056C174.937 78.0206 174.862 78.9345 174.817 79.8504C174.794 80.3059 174.679 80.5795 174.13 80.5111C173.697 80.457 173.252 80.4999 172.804 80.4999C172.648 80.0475 172.924 79.6217 172.833 79.1224C172.058 79.1224 171.28 79.1193 170.503 79.1244C170.302 79.1254 170.196 79.2888 170.133 79.4379C169.74 80.3722 169.036 80.6867 168.068 80.504C167.889 80.4703 167.696 80.5438 167.514 80.4417C167.509 80.216 167.669 80.072 167.785 79.9148C169.3 77.849 170.834 75.7986 172.329 73.7186C172.696 73.208 173.063 72.8884 173.736 72.9793C174.199 73.0426 174.678 72.9925 175.217 72.9925ZM173.298 75.0062C172.646 75.8343 171.999 76.6288 171.492 77.5815C171.949 77.5815 172.324 77.5764 172.698 77.5835C172.914 77.5876 173.052 77.5386 173.073 77.2854C173.14 76.5246 173.223 75.7659 173.298 75.0062Z" fill="#32A5A5"/>
<path d="M195 82.5794C194.869 84.062 194.745 85.4651 194.622 86.8681C194.537 87.8341 194.439 88.798 194.372 89.765C194.352 90.0714 194.25 90.1806 193.942 90.1674C193.452 90.1459 192.96 90.1612 192.419 90.1612C192.485 89.6711 192.544 89.2279 192.609 88.7347C191.878 88.7347 191.182 88.7409 190.487 88.7317C190.197 88.7276 190.096 88.9584 190.023 89.1411C189.666 90.0387 189.006 90.3185 188.095 90.1643C187.92 90.1347 187.735 90.1602 187.547 90.1602C187.549 89.8723 187.719 89.7344 187.831 89.5761C189.407 87.3511 190.993 85.1322 192.565 82.9051C192.729 82.6733 192.898 82.5589 193.191 82.5712C193.766 82.5957 194.342 82.5794 195 82.5794ZM193.15 84.59C193.124 84.5828 193.097 84.5757 193.071 84.5685C192.515 85.4079 191.959 86.2462 191.375 87.1285C191.904 87.1285 192.352 87.1285 192.838 87.1285C192.944 86.2656 193.047 85.4273 193.15 84.59Z" fill="#1A4873"/>
<path d="M186.49 78.9235C187.523 78.9235 188.487 78.9235 189.487 78.9235C189.427 79.4943 189.128 79.9171 188.959 80.3847C188.918 80.4981 188.829 80.5236 188.716 80.5236C187.172 80.5216 185.628 80.5226 184.037 80.5226C184.237 79.7455 184.564 79.0767 184.835 78.3874C185.481 76.7444 186.137 75.1055 186.769 73.4574C186.904 73.1061 187.074 72.9683 187.469 72.9775C188.745 73.0091 190.023 72.9918 191.3 72.9938C191.48 72.9938 191.66 72.9938 191.919 72.9938C191.712 73.5064 191.543 73.9271 191.374 74.3468C191.283 74.5715 191.084 74.55 190.897 74.55C190.165 74.5521 189.432 74.5745 188.701 74.5439C188.32 74.5276 188.142 74.6817 188.041 75.0177C187.97 75.2577 187.869 75.4884 187.753 75.7958C188.58 75.7958 189.354 75.7958 190.175 75.7958C190.104 76.3758 189.829 76.8118 189.661 77.2825C189.591 77.4766 189.396 77.4061 189.257 77.4081C188.678 77.4194 188.099 77.4286 187.52 77.4051C187.215 77.3928 187.045 77.5041 186.944 77.7788C186.808 78.1413 186.659 78.4977 186.49 78.9235Z" fill="#32A5A5"/>
<path d="M151.387 110.375C152.263 108.555 153.081 106.853 153.953 105.043C152.222 105.043 150.615 105.043 148.912 105.043C149.266 104.312 149.573 103.679 149.877 103.046C149.954 102.886 150.098 102.912 150.23 102.912C152.101 102.91 153.974 102.91 155.845 102.909C155.963 102.909 156.074 102.905 156.172 103.004C156.567 103.401 156.678 104.072 156.42 104.607C155.59 106.335 154.752 108.057 153.932 109.789C153.731 110.213 153.482 110.446 152.967 110.387C152.486 110.332 151.993 110.375 151.387 110.375Z" fill="#1A4873"/>
<path d="M149.473 102.91C148.953 103.983 148.473 104.971 147.996 105.962C147.386 107.23 146.764 108.492 146.18 109.773C145.976 110.222 145.751 110.446 145.203 110.412C144.221 110.351 143.232 110.395 142.168 110.395C142.518 109.681 142.827 109.011 143.174 108.363C143.301 108.125 143.58 108.252 143.787 108.249C144.71 108.237 144.746 108.256 145.058 107.384C145.285 106.747 145.677 106.204 145.945 105.594C146.025 105.412 146.165 105.249 146.135 104.996C145.715 104.996 145.296 104.996 144.82 104.996C145.08 104.285 145.398 103.657 145.723 103.032C145.791 102.903 145.913 102.91 146.033 102.91C147.156 102.91 148.278 102.91 149.473 102.91Z" fill="#1A4873"/>
<path d="M175.691 90.1611C176.483 88.1587 177.241 86.241 178.031 84.2417C177.432 84.2417 176.888 84.2417 176.314 84.2417C176.358 83.6484 176.665 83.2205 176.805 82.7396C176.851 82.5823 177.004 82.5752 177.144 82.5752C178.827 82.5752 180.51 82.5752 182.237 82.5752C182.179 83.1368 181.873 83.5769 181.742 84.0722C181.695 84.2509 181.501 84.2202 181.349 84.2284C180.843 84.2549 180.219 84.0262 179.862 84.3203C179.515 84.6062 179.425 85.2107 179.238 85.6815C178.705 87.0202 178.171 88.3589 177.659 89.7047C177.534 90.0335 177.378 90.203 176.998 90.1703C176.595 90.1346 176.186 90.1611 175.691 90.1611Z" fill="#1A4873"/>
<path d="M148.597 113.276C148.232 113.882 147.879 114.468 147.501 115.095C148.03 115.208 148.401 115.165 148.599 114.632C148.698 114.367 148.911 114.145 149.036 113.886C149.303 113.332 149.68 113.03 150.362 113.266C150.026 113.856 149.682 114.461 149.275 115.175C149.865 115.048 150.256 114.832 150.532 114.432C150.657 114.251 150.767 114.055 150.849 113.851C151.082 113.27 151.485 113.058 152.085 113.251C151.683 114.515 150.579 115.895 148.989 115.793C148.076 115.735 147.155 115.783 146.244 115.783C146.179 115.5 146.305 115.294 146.437 115.141C146.795 114.725 147.044 114.246 147.316 113.78C147.696 113.132 147.724 113.114 148.597 113.276Z" fill="#1A4873"/>
<path d="M147.926 93.4348C147.477 94.5887 146.916 95.6026 146.385 96.6309C146.341 96.7157 146.283 96.7657 146.191 96.7657C145.539 96.7678 144.887 96.7667 144.152 96.7667C144.424 95.9243 144.935 95.2984 145.148 94.5631C145.43 93.5941 146.017 93.2643 146.977 93.4276C147.265 93.4767 147.571 93.4348 147.926 93.4348Z" fill="#32A5A5"/>
<path d="M147.178 96.7819C147.478 95.9354 147.949 95.2655 148.181 94.5232C148.513 93.4602 149.206 93.2948 150.143 93.4265C150.373 93.4592 150.611 93.4316 150.873 93.4316C150.858 93.8554 150.638 94.1474 150.49 94.4589C150.169 95.1318 149.819 95.7904 149.501 96.4643C149.401 96.6767 149.271 96.784 149.039 96.7819C148.447 96.7799 147.855 96.7819 147.178 96.7819Z" fill="#32A5A5"/>
<path d="M131.863 96.779C132.417 95.6271 132.908 94.607 133.398 93.5869C133.472 93.4327 133.612 93.4368 133.748 93.4368C134.359 93.4348 134.971 93.4358 135.645 93.4358C135.459 94.0801 135.119 94.6101 134.878 95.1789C134.745 95.4903 134.517 95.7701 134.427 96.0897C134.252 96.7126 133.846 96.8392 133.272 96.7861C132.854 96.7473 132.431 96.779 131.863 96.779Z" fill="#32A5A5"/>
<path d="M111.185 113.209C110.677 114.069 110.215 114.853 109.752 115.636C109.671 115.773 109.538 115.784 109.397 115.784C108.274 115.783 107.151 115.783 106.038 115.783C105.922 115.561 106.087 115.439 106.165 115.303C106.436 114.832 106.785 114.396 106.987 113.9C107.238 113.281 107.652 113.17 108.253 113.198C109.2 113.241 110.148 113.209 111.185 113.209ZM109.791 113.773C109.158 113.843 108.499 113.589 108.009 113.899C107.651 114.125 107.5 114.677 107.232 115.124C109.205 115.197 109.313 115.139 109.791 113.773Z" fill="#1A4873"/>
<path d="M124.301 107.708C123.33 110.102 122.65 111.013 119.568 110.639C119.848 110.116 120.114 109.613 120.383 109.113C120.456 108.978 120.567 108.856 120.603 108.714C120.827 107.827 121.401 107.593 122.263 107.694C122.915 107.77 123.585 107.708 124.301 107.708ZM123.114 108.462C121.587 108.305 121.098 108.63 120.853 109.942C122.27 110.145 122.667 109.591 123.114 108.462Z" fill="#1A4873"/>
<path d="M171.846 113.325C171.551 113.812 171.29 114.334 170.942 114.791C170.554 115.301 169.96 115.659 169.368 115.747C168.491 115.876 167.582 115.78 166.6 115.78C167.101 114.919 167.555 114.13 168.016 113.347C168.078 113.241 168.198 113.205 168.327 113.205C169.451 113.209 170.575 113.21 171.7 113.212C171.772 113.213 171.832 113.234 171.846 113.325ZM167.96 115.131C169.6 115.172 170.329 114.773 170.469 113.79C169.991 113.79 169.515 113.791 169.039 113.789C168.884 113.788 168.727 113.777 168.635 113.937C168.419 114.316 168.205 114.696 167.96 115.131Z" fill="#1A4873"/>
<path d="M120.566 107.774C120.077 108.698 119.601 109.592 119.132 110.492C119.059 110.63 118.971 110.69 118.815 110.689C117.953 110.684 117.091 110.687 116.184 110.687C116.323 110.206 116.577 109.844 116.769 109.455C116.965 109.06 117.214 108.688 117.377 108.281C117.573 107.79 117.871 107.578 118.435 107.758C118.223 108.528 117.628 109.13 117.385 109.897C118.487 110.114 118.487 110.114 119.291 108.651C118.94 108.813 118.623 108.928 118.236 108.796C118.856 108.103 119.449 107.443 120.566 107.774Z" fill="#1A4873"/>
<path d="M116.857 114.066C116.139 114.362 115.558 114.866 114.951 115.326C114.521 115.65 114.099 115.917 113.486 115.732C114.009 115.229 114.603 114.873 115.217 114.394C114.917 114.375 114.695 114.361 114.469 114.346C114.729 113.365 115.042 113.134 115.983 113.265C115.803 113.557 115.635 113.831 115.466 114.103C116.312 113.51 117.145 112.907 118.297 113.288C117.846 114.057 117.394 114.827 116.944 115.598C116.869 115.727 116.767 115.788 116.613 115.785C116.192 115.779 115.771 115.783 115.308 115.783C115.414 115.353 115.569 115.07 116.029 115.14C116.198 115.165 116.276 115.067 116.345 114.942C116.51 114.647 116.678 114.353 116.844 114.058C116.863 114.04 116.88 114.023 116.898 114.004C116.879 114.003 116.859 114.003 116.839 114.002C116.844 114.024 116.85 114.045 116.857 114.066Z" fill="#1A4873"/>
<path d="M124.07 113.252C123.951 114.281 123.068 114.475 122.339 114.833C122.322 115.16 122.521 115.42 122.551 115.75C122.174 115.782 121.734 115.936 121.481 115.69C121.243 115.457 121.201 115.024 121.064 114.655C120.764 114.79 120.459 114.866 120.33 115.184C120.102 115.75 119.691 115.92 119.049 115.727C119.379 115.294 119.431 114.699 120.054 114.475C120.465 114.327 121.035 114.218 120.702 113.522C120.675 113.464 120.628 113.327 120.746 113.223C121.068 113.248 121.487 113.049 121.736 113.319C121.946 113.545 121.98 113.932 122.098 114.262C122.437 114.171 122.717 114.024 122.866 113.72C123.121 113.204 123.533 113.113 124.07 113.252Z" fill="#1A4873"/>
<path d="M158.368 113.834C157.363 113.6 156.743 113.881 156.313 114.819C155.817 115.901 155.742 115.866 154.484 115.755C154.604 115.471 154.586 115.102 155.057 115.137C155.216 115.149 155.269 114.986 155.338 114.872C155.614 114.424 155.901 113.981 156.159 113.522C156.28 113.308 156.413 113.2 156.674 113.204C157.66 113.217 158.648 113.209 159.674 113.209C159.578 113.627 159.299 113.909 159.12 114.24C158.943 114.568 158.738 114.882 158.557 115.208C158.182 115.882 158.185 115.883 157.303 115.714C157.482 115.394 157.647 115.085 157.826 114.782C158.004 114.48 158.238 114.209 158.368 113.834Z" fill="#1A4873"/>
<path d="M184.004 113.788C183.508 113.788 183.106 113.796 182.704 113.784C182.486 113.778 182.419 113.926 182.334 114.075C182.108 114.474 181.849 114.857 181.659 115.27C181.457 115.708 181.152 115.856 180.693 115.791C180.493 115.762 180.287 115.786 180.037 115.786C180.162 115.461 180.211 115.143 180.635 115.131C180.817 115.126 180.85 114.937 180.93 114.811C181.253 114.293 181.469 113.616 181.932 113.303C182.4 112.987 183.118 113.227 183.725 113.21C184.217 113.195 184.709 113.206 185.228 113.206C185.214 113.541 184.988 113.741 184.855 113.979C184.641 114.364 184.395 114.733 184.181 115.119C183.777 115.851 183.783 115.855 182.872 115.731C183.061 115.393 183.237 115.071 183.421 114.755C183.595 114.453 183.781 114.157 184.004 113.788Z" fill="#1A4873"/>
<path d="M166.16 113.805C165.594 113.786 165.09 113.637 164.8 114.306C164.627 114.705 164.186 114.386 163.897 114.51C163.77 114.189 164.306 113.92 163.871 113.657C163.999 113.473 164.024 113.202 164.35 113.205C165.37 113.215 166.39 113.209 167.438 113.209C167.427 113.509 167.226 113.687 167.113 113.9C166.994 114.125 166.793 114.316 166.718 114.55C166.358 115.663 165.589 115.957 164.496 115.8C163.912 115.717 163.307 115.785 162.676 115.785C162.779 115.344 162.96 115.07 163.46 115.137C163.711 115.169 163.97 115.142 164.225 115.142C165.55 115.141 165.55 115.141 166.16 113.805Z" fill="#1A4873"/>
<path d="M189.758 94.577C189.717 94.243 189.819 94.1144 190.116 94.1246C190.59 94.1409 191.067 94.1287 191.594 94.1287C191.402 94.5473 191.228 94.9272 191.054 95.3071C191.008 95.4071 190.931 95.4592 190.826 95.4929C190.123 95.7216 189.409 95.8748 188.673 95.6879C188.032 95.5246 187.778 95.0324 187.976 94.3962C188.373 93.1147 189.766 92.354 191.052 92.7267C191.446 92.841 191.743 93.0708 191.815 93.5558C191.481 93.6304 191.218 93.7672 190.92 93.4037C190.562 92.9656 189.43 93.2066 189.058 93.7447C189.04 93.7713 189.046 93.8132 189.028 93.8397C188.758 94.2247 188.51 94.6321 188.865 95.0722C189.09 95.351 190.116 95.2938 190.443 95.012C190.533 94.9344 190.556 94.7822 190.626 94.6301C190.309 94.6117 190.044 94.5953 189.758 94.577Z" fill="#1A4873"/>
<path d="M185.058 95.7669C184.686 95.7373 184.19 95.7179 183.933 95.2206C183.618 94.613 183.903 94.0657 184.258 93.6215C184.826 92.9088 185.607 92.5422 186.544 92.6606C187.582 92.7913 187.966 93.6133 187.413 94.516C186.904 95.3452 186.143 95.7587 185.058 95.7669ZM186.117 93.212C185.483 93.2141 184.939 93.6093 184.685 94.2546C184.589 94.4987 184.534 94.757 184.708 94.9796C184.901 95.2267 185.191 95.2982 185.487 95.24C186.119 95.1144 186.55 94.7233 186.773 94.131C186.993 93.5449 186.739 93.211 186.117 93.212Z" fill="#1A4873"/>
<path d="M138.718 115.128C139.296 115.169 139.672 114.895 139.98 114.52C140.139 114.326 140.252 114.091 140.366 113.866C140.726 113.154 140.8 113.116 141.667 113.266C140.581 115.457 139.955 116.009 136.891 115.75C137.029 115.439 137.075 115.077 137.554 115.143C137.743 115.17 137.81 114.999 137.888 114.872C138.099 114.524 138.308 114.175 138.511 113.822C138.899 113.148 138.942 113.126 139.821 113.267C139.452 113.89 139.094 114.493 138.718 115.128Z" fill="#1A4873"/>
<path d="M174.229 115.785C174.343 115.284 174.573 115.089 175.036 115.131C175.509 115.174 175.99 115.115 176.464 115.151C176.856 115.181 177.105 115.058 177.264 114.696C177.386 114.418 177.553 114.161 177.746 113.807C176.937 113.807 176.191 113.807 175.399 113.807C175.525 113.387 175.686 113.188 176.095 113.2C177.059 113.226 178.025 113.208 179.079 113.208C178.706 113.865 178.373 114.454 178.033 115.052C178.107 115.111 178.193 115.181 178.264 115.238C178.13 115.694 177.831 115.812 177.376 115.795C176.34 115.761 175.303 115.785 174.229 115.785Z" fill="#1A4873"/>
<path d="M131 115.786C131.129 115.307 131.322 115.078 131.771 115.133C132.055 115.168 132.348 115.142 132.637 115.143C133.911 115.146 133.939 115.127 134.443 113.807C133.689 113.807 132.953 113.807 132.172 113.807C132.279 113.388 132.437 113.188 132.868 113.202C133.83 113.235 134.794 113.212 135.841 113.212C135.458 113.872 135.115 114.465 134.771 115.059C134.786 115.221 134.982 115.054 134.996 115.332C134.934 115.639 134.692 115.813 134.217 115.798C133.169 115.764 132.118 115.786 131 115.786Z" fill="#1A4873"/>
<path d="M208.897 93.5389C208.593 93.5685 208.327 93.6645 208.058 93.3275C207.854 93.0712 207.461 93.1509 207.146 93.2581C207.032 93.2969 206.936 93.3724 206.94 93.5164C206.943 93.64 207.037 93.688 207.129 93.7298C207.421 93.8656 207.72 93.9861 208.007 94.1311C208.589 94.4252 208.651 94.9603 208.126 95.3565C207.442 95.8711 206.674 95.8671 205.894 95.6087C205.586 95.5066 205.396 95.2666 205.451 94.9491C205.525 94.5284 205.902 94.8102 206.117 94.704C206.396 95.2452 206.857 95.4157 207.355 95.1747C207.496 95.1063 207.635 95.0246 207.643 94.851C207.651 94.6621 207.495 94.6019 207.351 94.5467C207.114 94.4559 206.865 94.3885 206.637 94.2792C206.128 94.0352 206.03 93.5981 206.365 93.156C206.783 92.6066 208.139 92.4453 208.654 92.8925C208.834 93.0508 208.968 93.2458 208.897 93.5389Z" fill="#1A4873"/>
<path d="M194.065 94.6886C194.252 95.2625 195.037 95.4534 195.43 95.0725C195.632 94.8765 195.582 94.7008 195.35 94.5906C195.121 94.4823 194.869 94.421 194.634 94.324C193.962 94.0473 193.87 93.4418 194.425 92.9761C194.883 92.5912 195.958 92.5126 196.457 92.8342C196.7 92.9904 196.862 93.1936 196.806 93.5286C196.497 93.5756 196.209 93.6828 195.971 93.3152C195.858 93.1426 195.573 93.1416 195.35 93.1783C195.155 93.21 194.91 93.211 194.873 93.4734C194.838 93.7287 195.089 93.7471 195.243 93.8257C195.483 93.9493 195.745 94.033 195.984 94.1586C196.452 94.4047 196.52 94.7835 196.188 95.2042C195.711 95.8108 194.198 95.9823 193.591 95.4983C193.387 95.336 193.265 95.095 193.362 94.8714C193.491 94.5722 193.812 94.7662 194.065 94.6886Z" fill="#1A4873"/>
<path d="M205.422 93.6083C205.067 93.6655 204.777 93.7503 204.532 93.3612C204.386 93.1294 204.028 93.2009 203.763 93.252C203.208 93.3582 202.646 94.0392 202.631 94.608C202.621 95.0226 202.845 95.2309 203.25 95.2534C203.56 95.2707 203.859 95.1472 204.022 94.9266C204.304 94.5447 204.62 94.6601 204.969 94.7101C204.65 95.7231 202.941 96.0121 202.208 95.5546C201.894 95.3585 201.83 95.0379 201.841 94.7111C201.889 93.3357 203.566 92.2543 204.848 92.7608C205.264 92.9252 205.359 93.0569 205.422 93.6083Z" fill="#1A4873"/>
<path d="M129.792 108.438C130.224 107.266 130.3 107.201 131.115 107.268C131.08 107.398 131.045 107.524 130.998 107.699C131.658 107.699 132.294 107.699 132.982 107.699C132.485 108.95 131.888 110.039 130.672 110.638C130.361 110.791 130.016 110.645 129.668 110.651C130.408 109.962 131.509 109.641 131.761 108.438C131.115 108.438 130.483 108.438 129.792 108.438Z" fill="#1A4873"/>
<path d="M126.729 113.775C125.948 113.775 125.205 113.775 124.453 113.775C124.749 112.835 124.891 112.74 125.827 112.849C125.805 112.96 125.782 113.068 125.751 113.222C126.537 113.222 127.293 113.222 128.066 113.222C127.193 115.277 125.797 116.034 124.505 115.719C125.266 115.095 126.424 114.967 126.729 113.775Z" fill="#1A4873"/>
<path d="M114.631 108.41C113.917 108.41 113.296 108.41 112.642 108.41C112.76 107.936 112.928 107.662 113.463 107.697C114.224 107.746 114.99 107.709 115.761 107.709C115.161 109.365 114.121 110.947 112.414 110.659C113.202 109.983 114.173 109.516 114.631 108.41Z" fill="#1A4873"/>
<path d="M142.021 118.471C142.399 118.374 142.716 118.503 143.047 118.404C143.342 118.316 143.674 118.448 143.708 118.887C143.721 119.067 143.817 119.24 143.882 119.439C144.044 119.189 144.05 118.916 144.122 118.662C144.173 118.483 144.275 118.42 144.452 118.419C144.638 118.418 144.724 118.499 144.763 118.679C144.816 118.924 144.896 119.164 144.969 119.421C145.294 119.121 144.974 118.342 145.797 118.443C145.625 119.006 145.46 119.534 145.303 120.066C145.249 120.249 145.122 120.281 144.953 120.288C144.767 120.295 144.737 120.162 144.676 120.044C144.575 119.847 144.681 119.516 144.306 119.468C144.265 119.676 144.225 119.87 144.189 120.065C144.16 120.228 144.067 120.286 143.903 120.284C143.753 120.282 143.643 120.257 143.592 120.093C143.493 119.77 143.372 119.454 143.278 119.129C143.222 118.933 143.114 118.855 142.913 118.866C142.693 118.877 142.622 119.01 142.608 119.198C142.593 119.434 142.565 119.672 142.578 119.909C142.595 120.243 142.449 120.337 142.084 120.241C141.955 119.683 142.079 119.096 142.021 118.471Z" fill="#1A4873"/>
<path d="M150.15 117.805C150.345 117.705 150.477 117.728 150.648 117.772C150.648 118.583 150.648 119.404 150.648 120.31C150.257 120.155 149.893 120.309 149.531 120.294C149.134 120.277 148.905 119.977 148.858 119.582C148.833 119.365 148.854 119.144 148.854 118.929C148.357 118.849 148.357 118.849 148.196 120.223C148.062 120.325 147.916 120.291 147.732 120.243C147.732 119.667 147.732 119.083 147.732 118.425C148.529 118.543 149.326 118.426 150.151 118.44C150.15 118.272 150.15 118.04 150.15 117.805ZM150.157 119.327C150.144 119.061 150.064 118.793 149.75 118.803C149.425 118.813 149.39 119.12 149.383 119.372C149.375 119.638 149.456 119.922 149.778 119.906C150.091 119.889 150.135 119.598 150.157 119.327Z" fill="#1A4873"/>
<path d="M112.405 107.709C111.889 108.702 111.43 109.601 110.955 110.489C110.756 110.86 110.367 110.894 110.002 110.591C110.53 109.966 110.758 109.178 111.224 108.438C110.514 108.438 109.877 108.438 109.207 108.438C109.298 107.93 109.481 107.661 110.036 107.697C110.793 107.746 111.555 107.709 112.405 107.709Z" fill="#1A4873"/>
<path d="M127.549 107.763C127.312 108.719 127.078 109.666 126.845 110.611C126.586 110.747 126.336 110.659 126.089 110.694C125.964 110.349 126.22 110.083 126.177 109.758C125.72 110.124 125.545 110.935 124.666 110.627C124.897 110.298 125.12 109.988 125.333 109.671C125.425 109.534 125.56 109.515 125.691 109.54C126.168 109.627 126.373 109.41 126.403 108.955C126.414 108.804 126.467 108.657 126.5 108.509C126.41 108.377 126.246 108.453 126.132 108.39C126.293 107.616 126.336 107.648 127.549 107.763Z" fill="#1A4873"/>
<path d="M157.13 118.792C156.934 118.471 156.728 118.152 157.112 117.843C157.39 117.618 157.973 117.659 158.193 117.922C158.567 118.373 158.151 118.613 157.895 118.899C157.984 119.013 158.067 119.118 158.15 119.223C158.192 119.255 158.213 119.25 158.236 119.207C158.313 119.06 158.412 119.027 158.566 119.121C158.669 119.185 158.742 119.267 158.678 119.36C158.473 119.659 158.709 119.816 158.884 119.986C158.762 120.223 158.648 120.415 158.387 120.184C158.227 120.041 158.1 120.161 157.972 120.221C157.729 120.335 157.479 120.341 157.226 120.294C156.9 120.235 156.657 120.069 156.583 119.728C156.516 119.415 156.632 119.163 156.877 118.967C156.955 118.904 157.041 118.853 157.13 118.792ZM157.914 119.677C157.663 119.533 157.615 119.257 157.354 119.163C157.166 119.351 157.012 119.552 157.209 119.778C157.396 119.991 157.624 119.915 157.914 119.677ZM157.601 118.54C157.772 118.428 157.916 118.331 157.79 118.136C157.738 118.055 157.605 118.02 157.522 118.086C157.328 118.238 157.467 118.37 157.601 118.54Z" fill="#1A4873"/>
<path d="M200.672 92.7018C200.669 93.1449 200.45 93.291 200.087 93.2277C199.545 93.1327 199.254 93.3655 199.086 93.873C198.936 94.3203 198.674 94.7318 198.539 95.1831C198.377 95.7253 198.043 95.7927 197.547 95.6692C197.777 94.8257 198.296 94.1171 198.577 93.245C198.231 93.245 197.92 93.245 197.566 93.245C197.594 92.9519 197.595 92.7079 197.927 92.7048C198.84 92.6967 199.753 92.7018 200.672 92.7018Z" fill="#1A4873"/>
<path d="M169.207 118.366C169.721 118.676 170.267 118.142 170.728 118.584C170.755 118.61 170.919 118.484 171.024 118.443C171.48 118.266 171.857 118.478 171.893 118.963C171.924 119.381 171.899 119.804 171.899 120.196C171.743 120.327 171.611 120.269 171.483 120.275C171.448 120.212 171.406 120.171 171.404 120.128C171.391 119.789 171.388 119.45 171.379 119.111C171.374 118.944 171.324 118.791 171.127 118.798C170.958 118.804 170.843 118.926 170.83 119.094C170.809 119.348 170.793 119.604 170.813 119.857C170.842 120.226 170.7 120.349 170.298 120.244C170.298 119.892 170.295 119.538 170.299 119.185C170.301 118.999 170.257 118.814 170.058 118.794C169.838 118.772 169.724 118.938 169.713 119.15C169.699 119.405 169.705 119.659 169.694 119.913C169.678 120.275 169.675 120.275 169.208 120.234C169.207 119.648 169.207 119.06 169.207 118.366Z" fill="#1A4873"/>
<path d="M184.428 115.786C184.586 115.404 184.679 115.073 185.138 115.138C185.312 115.162 185.415 115.067 185.501 114.92C185.708 114.57 185.929 114.229 186.143 113.887C186.023 113.686 185.809 113.862 185.679 113.746C185.848 113.144 186.209 113.043 187.473 113.267C187.004 114.061 186.543 114.841 186.082 115.622C186.017 115.732 185.925 115.789 185.79 115.788C185.356 115.784 184.921 115.786 184.428 115.786Z" fill="#1A4873"/>
<path d="M127.248 115.787C127.39 115.352 127.527 115.058 127.977 115.138C128.098 115.159 128.212 115.13 128.282 115.004C128.492 114.622 128.706 114.242 128.945 113.814C128.746 113.79 128.607 113.771 128.461 113.754C128.674 113.129 128.91 113.066 130.262 113.266C129.791 114.062 129.328 114.844 128.865 115.626C128.798 115.738 128.697 115.787 128.568 115.787C128.148 115.786 127.728 115.787 127.248 115.787Z" fill="#1A4873"/>
<path d="M142.424 115.785C142.638 115.421 142.695 115.045 143.167 115.142C143.328 115.174 143.411 115.084 143.492 114.961C143.729 114.61 143.957 114.256 144.143 113.815C143.965 113.796 143.812 113.779 143.652 113.761C143.869 113.144 144.258 113.042 145.455 113.285C144.984 114.083 144.524 114.865 144.064 115.647C143.981 115.788 143.844 115.787 143.706 115.787C143.316 115.785 142.926 115.785 142.424 115.785Z" fill="#1A4873"/>
<path d="M114.924 118.431C114.661 118.512 114.448 118.537 114.288 118.274C114.185 118.103 113.995 118.124 113.826 118.15C113.711 118.167 113.583 118.188 113.579 118.35C113.574 118.477 113.657 118.525 113.761 118.559C113.953 118.619 114.141 118.698 114.337 118.74C114.751 118.829 114.985 119.074 115.013 119.492C115.044 119.942 114.787 120.18 114.377 120.281C113.616 120.467 113.065 120.149 112.982 119.463C113.23 119.343 113.436 119.296 113.579 119.633C113.679 119.871 113.91 119.896 114.142 119.858C114.307 119.832 114.429 119.738 114.458 119.57C114.491 119.375 114.342 119.306 114.19 119.259C113.979 119.195 113.765 119.144 113.556 119.075C113.21 118.961 113.027 118.721 113.044 118.351C113.062 117.955 113.333 117.776 113.675 117.732C114.324 117.65 114.843 117.73 114.924 118.431Z" fill="#1A4873"/>
<path d="M162.162 113.828C161.97 113.795 161.829 113.772 161.653 113.741C162.047 112.783 162.847 113.407 163.485 113.271C163.002 114.077 162.522 114.885 162.033 115.687C161.935 115.848 161.755 115.781 161.609 115.785C161.254 115.793 160.897 115.788 160.5 115.788C160.619 115.407 160.695 115.056 161.194 115.144C161.376 115.177 161.473 115.056 161.552 114.916C161.748 114.565 161.945 114.213 162.162 113.828Z" fill="#1A4873"/>
<path d="M182.232 92.6983C181.913 93.5938 181.535 94.3596 181.127 95.2041C181.793 95.2041 182.379 95.2041 182.993 95.2041C182.996 95.5298 182.923 95.7126 182.609 95.7116C181.812 95.7106 181.017 95.7116 180.127 95.7116C180.586 94.7058 180.997 93.7541 181.458 92.8259C181.594 92.5532 181.918 92.7524 182.232 92.6983Z" fill="#1A4873"/>
<path d="M175.225 120.223C174.861 120.345 174.651 120.293 174.509 119.941C174.294 119.41 173.825 119.825 173.481 119.675C173.304 119.963 173.319 120.487 172.746 120.213C172.965 119.436 173.282 118.691 173.573 117.937C173.642 117.759 173.766 117.731 173.933 117.731C174.098 117.731 174.229 117.744 174.3 117.924C174.603 118.687 174.913 119.448 175.225 120.223ZM173.639 119.197C173.862 119.236 174.022 119.26 174.201 119.188C174.173 118.925 174.077 118.692 173.946 118.425C173.839 118.694 173.748 118.922 173.639 119.197Z" fill="#1A4873"/>
<path d="M162.022 118.395C161.755 118.566 161.534 118.636 161.38 118.299C161.355 118.247 161.277 118.204 161.215 118.187C160.902 118.096 160.651 118.156 160.493 118.476C160.291 118.888 160.396 119.593 160.714 119.781C161.055 119.982 161.292 119.827 161.476 119.531C161.511 119.474 161.54 119.414 161.57 119.361C161.744 119.339 161.886 119.372 162.031 119.521C161.954 119.778 161.875 120.038 161.588 120.187C160.996 120.492 160.231 120.263 159.969 119.693C159.626 118.947 159.875 118.08 160.51 117.802C161.148 117.521 161.756 117.752 162.022 118.395Z" fill="#1A4873"/>
<path d="M115.264 117.798C115.465 117.723 115.595 117.714 115.739 117.769C115.874 117.996 115.735 118.267 115.834 118.503C116.735 118.25 116.978 118.442 116.973 119.401C116.971 119.671 116.973 119.94 116.973 120.219C116.569 120.359 116.408 120.247 116.437 119.845C116.455 119.609 116.439 119.37 116.438 119.132C116.438 118.94 116.362 118.78 116.156 118.787C115.98 118.793 115.829 118.907 115.824 119.108C115.814 119.478 115.821 119.847 115.821 120.21C115.434 120.336 115.245 120.309 115.258 119.889C115.28 119.197 115.264 118.503 115.264 117.798Z" fill="#1A4873"/>
<path d="M129.617 107.732C129.107 108.702 128.645 109.615 128.148 110.51C127.959 110.85 127.619 110.661 127.268 110.665C127.769 109.702 128.225 108.783 128.724 107.888C128.909 107.555 129.254 107.753 129.617 107.732Z" fill="#1A4873"/>
<path d="M151.285 115.718C151.738 114.966 152.183 114.21 152.647 113.465C152.832 113.168 152.885 113.173 153.702 113.271C153.216 114.085 152.765 114.894 152.256 115.665C152.046 115.982 151.654 115.734 151.285 115.718Z" fill="#1A4873"/>
<path d="M117.424 115.742C117.882 114.939 118.298 114.167 118.757 113.422C118.994 113.037 119.412 113.294 119.803 113.21C119.671 113.644 119.421 113.956 119.234 114.299C119.064 114.612 118.824 114.892 118.694 115.218C118.455 115.819 118.035 115.918 117.424 115.742Z" fill="#1A4873"/>
<path d="M143.258 113.263C142.777 114.075 142.335 114.834 141.878 115.583C141.707 115.863 141.545 115.875 140.832 115.729C141.301 114.933 141.754 114.146 142.227 113.372C142.343 113.18 142.429 113.192 143.258 113.263Z" fill="#1A4873"/>
<path d="M161.268 113.236C160.773 114.064 160.324 114.835 159.855 115.592C159.609 115.987 159.228 115.765 158.787 115.786C159.303 114.926 159.746 114.114 160.269 113.356C160.471 113.061 160.879 113.26 161.268 113.236Z" fill="#1A4873"/>
<path d="M199.863 95.6487C200.278 94.7164 200.67 93.8056 201.089 92.907C201.268 92.5231 201.617 92.7702 201.91 92.7212C201.867 93.1694 201.608 93.4972 201.453 93.8669C201.271 94.3029 201.031 94.7185 200.886 95.1657C200.721 95.6722 200.425 95.8213 199.863 95.6487Z" fill="#1A4873"/>
<path d="M191.57 95.7169C192.017 94.7325 192.427 93.8441 192.823 92.9486C193.005 92.5361 193.338 92.7638 193.72 92.6831C193.266 93.695 192.864 94.6324 192.421 95.5504C192.269 95.866 191.937 95.6617 191.57 95.7169Z" fill="#1A4873"/>
<path d="M140.925 118.379C141.461 118.377 141.879 118.815 141.871 119.367C141.862 119.935 141.458 120.325 140.89 120.315C140.318 120.304 139.935 119.909 139.943 119.339C139.952 118.79 140.372 118.381 140.925 118.379ZM140.478 119.361C140.536 119.594 140.544 119.875 140.892 119.889C141.277 119.904 141.32 119.592 141.332 119.341C141.344 119.089 141.246 118.833 140.908 118.83C140.553 118.827 140.53 119.1 140.478 119.361Z" fill="#1A4873"/>
<path d="M122.976 118.41C123.385 118.504 123.74 118.473 124.101 118.404C124.328 118.361 124.545 118.5 124.623 118.729C124.786 119.206 124.707 119.702 124.681 120.19C124.675 120.314 124.548 120.37 124.414 120.377C124.251 120.385 124.199 120.274 124.192 120.155C124.173 119.851 124.183 119.545 124.164 119.241C124.152 119.041 124.15 118.778 123.872 118.793C123.631 118.807 123.5 119.004 123.5 119.26C123.501 119.58 123.5 119.9 123.5 120.226C123.141 120.341 122.953 120.303 122.972 119.891C122.994 119.421 122.976 118.948 122.976 118.41Z" fill="#1A4873"/>
<path d="M146.939 119.039C146.592 118.46 146.196 119.263 145.873 118.866C146.048 118.38 146.432 118.343 146.889 118.404C147.368 118.469 147.439 118.778 147.427 119.173C147.417 119.511 147.425 119.85 147.425 120.282C147.025 120.139 146.628 120.346 146.213 120.294C145.966 120.263 145.823 120.074 145.788 119.844C145.749 119.584 145.879 119.37 146.123 119.274C146.372 119.177 146.636 119.124 146.939 119.039ZM146.868 119.381C146.672 119.531 146.339 119.412 146.318 119.749C146.307 119.899 146.441 119.992 146.598 119.958C146.862 119.902 146.934 119.717 146.868 119.381Z" fill="#1A4873"/>
<path d="M107.503 118.392C107.912 118.514 108.238 118.455 108.577 118.399C108.899 118.346 109.183 118.53 109.196 118.916C109.211 119.352 109.199 119.789 109.199 120.229C108.841 120.34 108.643 120.292 108.672 119.885C108.69 119.649 108.672 119.41 108.67 119.172C108.669 118.992 108.639 118.801 108.425 118.794C108.194 118.787 108.053 118.936 108.05 119.179C108.046 119.517 108.049 119.854 108.049 120.203C107.707 120.323 107.485 120.352 107.499 119.912C107.514 119.442 107.503 118.969 107.503 118.392Z" fill="#1A4873"/>
<path d="M179.199 120.236C179.199 119.645 179.199 119.06 179.199 118.434C179.559 118.441 179.901 118.502 180.247 118.392C180.444 118.33 180.718 118.445 180.793 118.679C180.948 119.155 180.878 119.653 180.852 120.142C180.842 120.305 180.686 120.278 180.57 120.282C180.416 120.287 180.36 120.188 180.358 120.056C180.352 119.767 180.352 119.479 180.354 119.19C180.356 118.984 180.307 118.786 180.071 118.789C179.844 118.791 179.708 118.951 179.706 119.195C179.704 119.433 179.686 119.671 179.697 119.908C179.714 120.275 179.54 120.344 179.199 120.236Z" fill="#1A4873"/>
<path d="M178.91 119.487C178.687 119.487 178.502 119.487 178.317 119.487C178.134 119.487 177.951 119.487 177.73 119.487C177.844 119.873 178.006 120.136 178.359 119.813C178.561 119.629 178.689 119.76 178.861 119.762C178.671 120.27 178.287 120.496 177.86 120.37C177.415 120.237 177.148 119.655 177.266 119.069C177.353 118.633 177.715 118.346 178.137 118.38C178.659 118.419 178.917 118.77 178.91 119.487ZM177.808 119.165C178.012 119.132 178.21 119.208 178.389 119.116C178.42 118.88 178.275 118.794 178.124 118.8C177.97 118.805 177.771 118.841 177.808 119.165Z" fill="#1A4873"/>
<path d="M185.425 119.483C185.044 119.483 184.663 119.483 184.23 119.483C184.355 119.885 184.499 120.154 184.856 119.794C185.062 119.587 185.184 119.761 185.356 119.772C185.154 120.257 184.785 120.422 184.301 120.28C183.881 120.158 183.629 119.778 183.729 119.144C183.807 118.657 184.212 118.337 184.644 118.38C185.172 118.431 185.409 118.752 185.425 119.483ZM184.205 119.109C184.505 119.168 184.717 119.202 184.965 119.097C184.713 118.719 184.498 118.706 184.205 119.109Z" fill="#1A4873"/>
<path d="M167.114 119.371C167.096 118.811 167.49 118.386 168.036 118.375C168.547 118.364 168.969 118.769 168.992 119.295C169.02 119.889 168.64 120.308 168.07 120.316C167.491 120.324 167.133 119.97 167.114 119.371ZM167.605 119.351C167.648 119.598 167.676 119.893 168.043 119.898C168.374 119.903 168.456 119.669 168.473 119.39C168.49 119.08 168.398 118.831 168.051 118.822C167.739 118.814 167.625 119.045 167.605 119.351Z" fill="#1A4873"/>
<path d="M138.663 119.191C138.464 119.548 138.728 119.948 138.478 120.245C138.395 120.342 138.226 120.307 138.078 120.21C138.078 119.415 138.078 118.607 138.078 117.732C138.584 117.732 139.072 117.729 139.56 117.733C139.875 117.735 139.776 117.946 139.781 118.162C139.381 118.162 139.014 118.162 138.669 118.162C138.552 118.362 138.569 118.525 138.617 118.728C138.928 118.728 139.244 118.728 139.571 118.728C139.708 119.049 139.643 119.2 139.303 119.192C139.082 119.186 138.862 119.191 138.663 119.191Z" fill="#1A4873"/>
<path d="M165.808 118.862C165.436 119.189 165.074 118.474 164.721 118.912C164.94 119.098 165.23 119.072 165.477 119.168C165.761 119.279 165.941 119.482 165.895 119.772C165.852 120.043 165.679 120.264 165.356 120.294C164.885 120.339 164.436 120.34 164.189 119.849C164.562 119.251 165 120.413 165.381 119.76C165.204 119.505 164.895 119.564 164.658 119.465C164.397 119.356 164.21 119.198 164.234 118.905C164.257 118.642 164.44 118.497 164.693 118.424C165.194 118.277 165.553 118.407 165.808 118.862Z" fill="#1A4873"/>
<path d="M164.021 118.473C164.021 119.011 164.021 119.516 164.021 120.022C164.021 120.146 163.966 120.333 163.854 120.266C163.49 120.047 163.174 120.356 162.838 120.304C162.512 120.254 162.328 120.06 162.328 119.717C162.328 119.313 162.328 118.909 162.328 118.512C162.471 118.381 162.622 118.425 162.767 118.443C162.903 118.572 162.841 118.733 162.848 118.879C162.858 119.116 162.856 119.353 162.859 119.591C162.861 119.779 162.92 119.939 163.136 119.936C163.332 119.934 163.446 119.796 163.462 119.609C163.484 119.357 163.481 119.102 163.488 118.847C163.5 118.425 163.5 118.425 164.021 118.473Z" fill="#1A4873"/>
<path d="M187.047 119.052C186.699 119.022 186.473 118.585 186.06 118.883C186.241 119.088 186.493 119.063 186.697 119.134C187.005 119.243 187.259 119.424 187.231 119.764C187.2 120.149 186.887 120.285 186.539 120.31C186.117 120.338 185.727 120.275 185.521 119.86C185.908 119.274 186.304 120.357 186.698 119.797C186.57 119.507 186.266 119.574 186.051 119.483C185.782 119.369 185.535 119.239 185.556 118.918C185.58 118.575 185.847 118.455 186.157 118.402C186.785 118.295 187.101 118.511 187.047 119.052Z" fill="#1A4873"/>
<path d="M134.295 119.477C133.896 119.477 133.526 119.477 133.15 119.477C133.254 120.001 133.41 120.087 133.75 119.782C133.963 119.591 134.075 119.766 134.243 119.787C134.001 120.267 133.627 120.429 133.157 120.276C132.754 120.146 132.51 119.636 132.611 119.141C132.713 118.643 133.088 118.332 133.535 118.375C134.018 118.422 134.245 118.73 134.295 119.477ZM133.798 119.105C133.791 118.88 133.627 118.794 133.466 118.794C133.295 118.794 133.146 118.898 133.158 119.151C133.368 119.137 133.577 119.213 133.798 119.105Z" fill="#1A4873"/>
<path d="M134.85 118.921C135.209 119.03 135.463 119.107 135.716 119.183C135.974 119.261 136.12 119.434 136.127 119.701C136.133 119.971 135.968 120.135 135.733 120.238C135.241 120.453 134.701 120.289 134.398 119.811C134.622 119.698 134.797 119.554 135.024 119.856C135.177 120.059 135.399 119.986 135.601 119.809C135.417 119.525 135.131 119.569 134.91 119.477C134.647 119.367 134.4 119.229 134.442 118.897C134.481 118.588 134.715 118.439 135.005 118.402C135.391 118.353 135.773 118.347 135.993 118.771C135.646 119.054 135.291 118.614 134.85 118.921Z" fill="#1A4873"/>
<path d="M130.7 118.399C131.113 118.522 131.453 118.457 131.806 118.403C132.139 118.352 132.381 118.591 132.394 118.958C132.408 119.379 132.397 119.801 132.397 120.216C131.899 120.289 131.897 120.289 131.886 119.872C131.881 119.651 131.881 119.431 131.885 119.21C131.89 119.005 131.843 118.803 131.615 118.793C131.391 118.784 131.241 118.942 131.227 119.18C131.21 119.451 131.203 119.723 131.199 119.993C131.197 120.167 131.162 120.291 130.947 120.284C130.737 120.278 130.698 120.154 130.699 119.981C130.701 119.492 130.7 119.002 130.7 118.399Z" fill="#1A4873"/>
<path d="M151.797 119.318C151.797 119.2 151.793 119.081 151.798 118.963C151.81 118.651 151.691 118.191 152.29 118.551C152.36 118.594 152.529 118.463 152.657 118.425C153.092 118.29 153.446 118.513 153.48 118.967C153.505 119.304 153.487 119.643 153.49 119.981C153.491 120.146 153.47 120.282 153.25 120.284C153.042 120.286 152.989 120.177 152.989 119.998C152.989 119.71 152.984 119.422 152.976 119.135C152.971 118.948 152.895 118.769 152.692 118.792C152.519 118.813 152.331 118.904 152.328 119.145C152.325 119.381 152.32 119.619 152.31 119.856C152.302 120.048 152.371 120.297 152.038 120.283C151.702 120.269 151.814 120.009 151.8 119.828C151.788 119.658 151.797 119.488 151.797 119.318Z" fill="#1A4873"/>
<path d="M182.836 119.628C182.607 120.169 182.241 120.383 181.792 120.302C181.355 120.224 181.084 119.883 181.067 119.391C181.05 118.882 181.301 118.523 181.777 118.416C182.243 118.312 182.609 118.44 182.808 118.94C182.575 119.073 182.39 119.12 182.185 118.884C182.024 118.7 181.819 118.786 181.722 118.971C181.58 119.239 181.583 119.544 181.771 119.787C181.897 119.949 182.133 119.97 182.241 119.764C182.397 119.466 182.582 119.588 182.836 119.628Z" fill="#1A4873"/>
<path d="M127.915 117.787C128.273 117.684 128.448 117.76 128.425 118.181C128.397 118.717 128.418 119.255 128.418 119.848C128.781 119.848 129.098 119.849 129.415 119.847C129.563 119.846 129.692 119.865 129.688 120.056C129.684 120.229 129.582 120.285 129.421 120.284C128.932 120.281 128.443 120.283 127.914 120.283C127.915 119.44 127.915 118.623 127.915 117.787Z" fill="#1A4873"/>
<path d="M113.048 108.955C112.758 109.71 112.343 110.349 111.996 111.02C111.807 111.384 111.468 111.207 111.115 111.211C111.484 110.478 111.809 109.779 112.186 109.108C112.373 108.775 112.722 108.965 113.048 108.955Z" fill="#1A4873"/>
<path d="M106.684 117.776C106.882 117.728 107.029 117.696 107.198 117.801C107.198 118.594 107.198 119.401 107.198 120.205C107.029 120.321 106.873 120.309 106.684 120.215C106.684 119.417 106.684 118.609 106.684 117.776Z" fill="#1A4873"/>
<path d="M109.865 117.807C110.146 118.001 109.935 118.495 110.389 118.517C110.412 118.518 110.442 118.723 110.33 118.824C109.939 119.181 109.959 119.486 110.355 119.914C110.488 120.058 110.476 120.226 110.248 120.301C109.894 120.416 109.603 120.225 109.557 119.856C109.509 119.471 109.581 119.094 109.396 118.693C109.271 118.427 109.578 118.07 109.865 117.807Z" fill="#1A4873"/>
<path d="M166.633 117.847C166.733 118.096 166.542 118.432 166.974 118.468C167.081 118.477 167.105 118.714 166.943 118.835C166.557 119.125 166.559 119.606 166.952 119.887C167.103 119.994 167.099 120.167 166.997 120.219C166.834 120.302 166.623 120.327 166.435 120.318C166.243 120.31 166.241 120.118 166.215 119.969C166.141 119.542 166.289 119.104 166.015 118.666C165.927 118.525 166.155 117.948 166.633 117.847Z" fill="#1A4873"/>
<path d="M107.953 110.673C108.195 110.191 108.417 109.756 108.633 109.319C108.827 108.925 109.166 109.161 109.506 109.086C109.362 109.687 109.049 110.15 108.743 110.596C108.585 110.824 108.253 110.667 107.953 110.673Z" fill="#1A4873"/>
<path d="M111.436 120.256C111.436 119.436 111.436 118.627 111.436 117.81C111.56 117.689 111.703 117.721 111.903 117.788C111.903 118.532 111.911 119.291 111.899 120.05C111.894 120.387 111.648 120.271 111.436 120.256Z" fill="#1A4873"/>
<path d="M124.084 109.004C124.57 108.482 124.543 107.471 125.603 107.744C125.212 109.008 125.034 109.167 124.084 109.004Z" fill="#1A4873"/>
<path d="M114.205 113.256C113.501 114.577 113.74 114.485 112.711 114.363C113.089 113.267 113.207 113.177 114.205 113.256Z" fill="#1A4873"/>
<path d="M129.854 118.507C130.05 118.396 130.196 118.427 130.409 118.45C130.409 118.984 130.408 119.506 130.41 120.027C130.411 120.23 130.294 120.284 130.114 120.284C129.917 120.283 129.849 120.191 129.852 119.999C129.859 119.492 129.854 118.985 129.854 118.507Z" fill="#1A4873"/>
<path d="M115.609 109.008C116.13 108.518 115.979 107.46 117.069 107.742C116.827 108.769 116.455 109.132 115.609 109.008Z" fill="#1A4873"/>
<path d="M175.064 113.282C174.606 113.812 174.515 114.759 173.498 114.351C173.838 113.304 174.058 113.144 175.064 113.282Z" fill="#1A4873"/>
<path d="M130.252 114.354C130.646 113.252 130.786 113.149 131.742 113.266C131.318 114.38 131.125 114.521 130.252 114.354Z" fill="#1A4873"/>
<path d="M180.94 113.26C180.52 113.831 180.425 114.717 179.424 114.364C179.576 113.465 179.952 113.173 180.94 113.26Z" fill="#1A4873"/>
<path d="M111.119 114.367C111.651 113.196 111.651 113.196 112.631 113.247C112.308 114.281 112.035 114.489 111.119 114.367Z" fill="#1A4873"/>
<path d="M146.99 113.325C146.573 113.803 146.478 114.752 145.467 114.343C145.971 113.138 146.123 113.082 146.99 113.325Z" fill="#1A4873"/>
<path d="M122.66 120.231C122.474 120.316 122.309 120.287 122.119 120.253C122.119 119.67 122.119 119.086 122.119 118.539C122.328 118.382 122.483 118.411 122.66 118.473C122.66 119.065 122.66 119.651 122.66 120.231Z" fill="#1A4873"/>
<path d="M150.965 118.478C151.181 118.413 151.325 118.401 151.501 118.501C151.501 118.993 151.5 119.498 151.502 120.002C151.503 120.182 151.444 120.286 151.239 120.285C151.044 120.284 150.963 120.205 150.965 120.015C150.967 119.51 150.965 119.005 150.965 118.478Z" fill="#1A4873"/>
<path d="M183.492 120.253C183.211 120.307 183.002 120.321 183.006 119.976C183.012 119.487 183.007 118.998 183.007 118.529C183.167 118.389 183.314 118.415 183.492 118.462C183.492 119.044 183.492 119.63 183.492 120.253Z" fill="#1A4873"/>
<path d="M117.769 118.474C117.769 119.078 117.769 119.648 117.769 120.231C117.442 120.347 117.286 120.271 117.293 119.913C117.303 119.442 117.295 118.973 117.295 118.518C117.455 118.394 117.594 118.402 117.769 118.474Z" fill="#1A4873"/>
<path d="M111.017 117.758C111.07 118.556 111.019 118.655 110.471 118.738C110.742 118.412 110.412 118.113 110.52 117.786C110.682 117.686 110.851 117.739 111.017 117.758Z" fill="#1A4873"/>
<path d="M136.324 120.74C136.828 120.441 136.175 120.114 136.401 119.814C136.54 119.745 136.683 119.754 136.824 119.819C136.93 120.49 136.856 120.65 136.324 120.74Z" fill="#1A4873"/>
<path d="M130.164 118.189C129.979 118.19 129.84 118.161 129.85 117.946C129.859 117.773 129.959 117.723 130.118 117.727C130.283 117.732 130.422 117.742 130.407 117.966C130.397 118.143 130.305 118.199 130.164 118.189Z" fill="#1A4873"/>
<path d="M183.503 118.192C183.283 118.154 183.031 118.293 183.011 117.957C182.997 117.732 183.155 117.725 183.312 117.732C183.636 117.746 183.491 117.972 183.503 118.192Z" fill="#1A4873"/>
<path d="M122.696 118.17C122.48 118.17 122.349 118.17 122.218 118.17C122.131 118.017 122.1 117.859 122.246 117.765C122.33 117.711 122.489 117.708 122.583 117.751C122.763 117.834 122.643 118.006 122.696 118.17Z" fill="#1A4873"/>
<path d="M150.998 118.188C150.935 117.859 150.977 117.713 151.271 117.728C151.49 117.738 151.535 117.868 151.495 118.021C151.411 118.331 151.18 118.115 150.998 118.188Z" fill="#1A4873"/>
<path d="M117.771 117.701C117.757 117.951 117.901 118.18 117.546 118.185C117.383 118.187 117.295 118.131 117.303 117.954C117.32 117.583 117.574 117.796 117.771 117.701Z" fill="#1A4873"/>
</g>
<defs>
<clipPath id="clip0_16_9257">
<rect width="104.607" height="58" fill="white" transform="translate(106 63)"/>
</clipPath>
</defs>
</svg>
