<svg width="315" height="184" viewBox="0 0 315 184" fill="none" xmlns="http://www.w3.org/2000/svg">
<g clip-path="url(#clip0_16_9220)">
<path d="M224.988 97.3243C224.899 97.3809 224.827 97.3605 224.759 97.3605C222.322 97.3618 219.885 97.3596 217.448 97.366C217.284 97.3664 217.196 97.3103 217.109 97.1794C215.911 95.3595 214.707 93.5434 213.51 91.723C213.435 91.6099 213.364 91.5589 213.224 91.5623C212.815 91.5725 212.406 91.5662 211.981 91.5662C211.981 93.4983 211.981 95.4135 211.981 97.3452C209.703 97.3452 207.44 97.3452 205.166 97.3452C205.166 90.6007 205.166 83.8465 205.166 77.0676C205.234 77.0676 205.301 77.0676 205.368 77.0676C208.847 77.0676 212.325 77.0442 215.803 77.0774C217.514 77.0939 219.192 77.372 220.735 78.1746C222.79 79.2437 223.975 80.9255 224.219 83.2381C224.353 84.5088 224.263 85.7603 223.765 86.9549C223.154 88.4216 222.086 89.4708 220.712 90.2304C220.576 90.3048 220.44 90.3767 220.283 90.4613C221.851 92.7492 223.415 95.0304 224.988 97.3243ZM211.995 82.7565C211.995 84.0871 211.995 85.3901 211.995 86.7041C213.038 86.7041 214.065 86.7071 215.09 86.7011C215.273 86.7003 215.456 86.6701 215.636 86.6408C216.732 86.4626 217.553 85.8284 217.485 84.5764C217.451 83.9451 217.183 83.4549 216.63 83.1374C216.101 82.8334 215.517 82.7578 214.919 82.7569C213.95 82.7552 212.98 82.7565 211.995 82.7565Z" fill="black"/>
<path d="M109.287 77.0672C109.388 77.0672 109.472 77.0672 109.557 77.0672C113 77.0672 116.444 77.0502 119.887 77.0752C121.381 77.0859 122.854 77.3103 124.244 77.8995C126.672 78.9287 128.091 80.7198 128.337 83.3801C128.451 84.6045 128.344 85.8007 127.872 86.9468C127.249 88.4637 126.135 89.5222 124.713 90.2874C124.62 90.3376 124.523 90.3805 124.428 90.4277C124.423 90.4307 124.418 90.4375 124.391 90.4643C125.955 92.7454 127.522 95.0313 129.089 97.3167C129.033 97.3881 128.964 97.3605 128.907 97.3605C126.448 97.3622 123.99 97.3605 121.531 97.366C121.381 97.3664 121.303 97.3086 121.227 97.193C120.029 95.3731 118.824 93.5566 117.628 91.7349C117.544 91.6074 117.46 91.5594 117.309 91.5632C116.906 91.5738 116.502 91.5666 116.076 91.5666C116.076 93.4958 116.076 95.416 116.076 97.349C113.804 97.349 111.554 97.349 109.288 97.349C109.287 90.5977 109.287 83.8456 109.287 77.0672ZM116.078 86.6909C116.123 86.6969 116.15 86.7037 116.177 86.7037C117.176 86.7045 118.175 86.7186 119.173 86.699C119.769 86.6875 120.344 86.5651 120.854 86.2191C121.927 85.4913 121.832 83.7087 120.685 83.1072C120.211 82.8589 119.701 82.7641 119.175 82.759C118.219 82.7493 117.262 82.7556 116.306 82.7578C116.232 82.7578 116.151 82.731 116.078 82.7918C116.078 84.0833 116.078 85.3769 116.078 86.6909Z" fill="black"/>
<path d="M203.336 97.3559C197.514 97.3559 191.714 97.3559 185.895 97.3559C185.895 90.6013 185.895 83.85 185.895 77.083C191.659 77.083 197.428 77.083 203.208 77.083C203.208 78.9314 203.208 80.7751 203.208 82.6363C199.678 82.6363 196.14 82.6363 192.587 82.6363C192.587 83.3139 192.587 83.975 192.587 84.6547C195.869 84.6547 199.159 84.6547 202.463 84.6547C202.463 86.3097 202.463 87.9464 202.463 89.5933C199.171 89.5933 195.886 89.5933 192.586 89.5933C192.586 90.3207 192.586 91.0374 192.586 91.7725C196.161 91.7725 199.742 91.7725 203.336 91.7725C203.336 93.6387 203.336 95.4871 203.336 97.3559Z" fill="black"/>
<path d="M129.846 77.0747C132.163 77.0747 134.449 77.0747 136.754 77.0747C136.754 77.1555 136.754 77.232 136.754 77.3081C136.754 80.9445 136.751 84.581 136.757 88.2174C136.758 88.8032 136.836 89.3818 137.051 89.9362C137.394 90.8196 138.011 91.3956 138.936 91.626C139.636 91.8007 140.339 91.7905 141.029 91.5809C142.156 91.2387 142.709 90.408 142.917 89.3027C142.987 88.935 143.005 88.5622 143.005 88.1872C143.003 84.5648 143.004 80.9424 143.004 77.3204C143.004 77.2435 143.004 77.1665 143.004 77.079C145.316 77.079 147.614 77.079 149.915 77.079C149.95 77.1436 149.933 77.2158 149.933 77.2851C149.933 80.9501 149.945 84.6146 149.928 88.2795C149.921 89.8809 149.695 91.4508 149.039 92.9345C148.337 94.5198 147.227 95.7241 145.689 96.5327C144.383 97.2192 142.978 97.5445 141.52 97.6818C140.874 97.7426 140.225 97.7787 139.577 97.7638C137.918 97.7264 136.289 97.5232 134.74 96.8779C132.608 95.9902 131.179 94.4488 130.432 92.2734C130.095 91.2948 129.916 90.2831 129.871 89.2517C129.811 87.8527 129.852 86.4523 129.848 85.0529C129.842 82.4847 129.847 79.9166 129.847 77.3485C129.846 77.2639 129.846 77.1801 129.846 77.0747Z" fill="black"/>
<path d="M107.75 82.8204C105.762 82.8204 103.787 82.8204 101.79 82.8204C101.79 87.6655 101.79 92.5012 101.79 97.3492C99.5114 97.3492 97.254 97.3492 94.9801 97.3492C94.9801 92.5212 94.9801 87.6863 94.9801 82.8268C92.9778 82.8268 90.9925 82.8268 89 82.8268C89 80.9015 89 79.0008 89 77.0835C95.2496 77.0835 101.494 77.0835 107.75 77.0835C107.75 78.9812 107.75 80.8887 107.75 82.8204Z" fill="black"/>
<path d="M158.675 84.5884C159.075 84.1212 159.424 83.6149 159.792 83.123C161.284 81.1284 162.773 79.1312 164.261 77.134C164.324 77.0502 164.382 77.0001 164.5 77.0005C167.086 77.0047 169.671 77.0039 172.257 77.0043C172.278 77.0043 172.299 77.0086 172.323 77.0111C172.344 77.1148 172.254 77.1612 172.207 77.2216C170.829 78.9573 169.449 80.6901 168.068 82.4241C167.185 83.5337 166.305 84.6453 165.416 85.7511C165.325 85.8654 165.326 85.9394 165.401 86.0606C167.326 89.1852 169.247 92.3123 171.168 95.4395C171.534 96.0346 171.9 96.6302 172.264 97.2262C172.292 97.2717 172.343 97.3108 172.325 97.3784C172.254 97.4218 172.175 97.4005 172.1 97.4005C169.528 97.4018 166.956 97.3997 164.385 97.4056C164.213 97.4061 164.125 97.3487 164.04 97.2045C162.702 94.9536 161.358 92.7068 160.016 90.4588C159.6 89.762 159.185 89.0649 158.77 88.3672C158.742 88.3196 158.719 88.2699 158.667 88.2418C158.658 88.1619 158.611 88.099 158.571 88.0327C158.326 87.6212 158.079 87.2105 157.835 86.7977C157.721 86.6043 157.503 86.4126 157.527 86.2145C157.551 86.0189 157.768 85.8476 157.897 85.6631C158.15 85.3 158.448 84.9706 158.675 84.5884Z" fill="#EE5126"/>
<path d="M185.359 77.0101C182.99 79.9881 180.642 82.9397 178.288 85.8985C180.635 89.7169 182.98 93.5331 185.325 97.3502C185.24 97.4246 185.159 97.3983 185.086 97.3983C182.508 97.4 179.929 97.3983 177.351 97.4025C177.199 97.4029 177.114 97.3579 177.034 97.2227C175.161 94.0739 173.282 90.9289 171.404 87.7826C171.133 87.3281 170.871 86.8673 170.588 86.4201C170.487 86.2602 170.506 86.1527 170.613 86.0107C171.666 84.6116 172.714 83.2088 173.763 81.8059C174.916 80.2619 176.069 78.717 177.22 77.1717C177.294 77.0731 177.36 76.9995 177.507 76.9995C180.078 77.005 182.649 77.0033 185.22 77.0038C185.254 77.0042 185.287 77.0067 185.359 77.0101Z" fill="#FAB016"/>
<path d="M158.675 84.5886C158.449 84.9708 158.15 85.3003 157.896 85.6629C157.768 85.8474 157.55 86.0187 157.527 86.2143C157.504 86.4124 157.721 86.6041 157.835 86.7975C158.079 87.2103 158.325 87.621 158.571 88.0325C158.611 88.0988 158.658 88.1613 158.667 88.2417C158.667 91.2889 158.667 94.3361 158.667 97.394C156.383 97.394 154.119 97.394 151.84 97.394C151.84 90.6015 151.84 83.8145 151.84 77.0156C154.109 77.0156 156.379 77.0156 158.65 77.0156C158.686 77.0904 158.668 77.1695 158.668 77.2456C158.669 79.6156 158.669 81.9857 158.669 84.3553C158.67 84.433 158.674 84.5108 158.675 84.5886Z" fill="black"/>
<path d="M199.859 103.214C199.486 104.425 199.123 105.594 198.768 106.765C198.729 106.895 198.677 106.945 198.537 106.94C198.219 106.928 197.9 106.936 197.566 106.936C197.006 105.128 196.447 103.324 195.883 101.502C196.268 101.502 196.635 101.496 197.001 101.505C197.176 101.51 197.318 101.6 197.365 101.778C197.652 102.868 197.934 103.959 198.218 105.05C198.226 105.084 198.228 105.119 198.237 105.181C198.511 104.294 198.777 103.432 199.044 102.572C199.121 102.323 199.201 102.075 199.279 101.826C199.283 101.812 199.283 101.797 199.288 101.785C199.373 101.571 199.54 101.489 199.759 101.502C200.028 101.519 200.369 101.403 200.487 101.768C200.843 102.871 201.179 103.981 201.533 105.12C201.623 104.779 201.707 104.46 201.791 104.14C201.993 103.37 202.194 102.6 202.397 101.831C202.452 101.621 202.591 101.506 202.808 101.503C203.134 101.498 203.46 101.502 203.82 101.502C203.256 103.322 202.697 105.127 202.139 106.93C201.75 106.93 201.375 106.93 200.991 106.93C200.618 105.703 200.245 104.479 199.859 103.214Z" fill="black"/>
<path d="M168.035 103.336C167.753 103.879 167.495 104.376 167.237 104.874C167.026 105.28 166.813 105.685 166.606 106.093C166.491 106.319 166.299 106.387 166.065 106.384C165.83 106.381 165.647 106.307 165.53 106.079C165.094 105.227 164.648 104.379 164.205 103.53C164.18 103.482 164.148 103.437 164.116 103.384C164.116 104.563 164.116 105.736 164.116 106.922C163.762 106.922 163.397 106.922 163.02 106.922C163.02 105.125 163.02 103.325 163.02 101.504C163.399 101.504 163.786 101.496 164.173 101.508C164.316 101.513 164.374 101.645 164.433 101.76C164.842 102.572 165.249 103.384 165.663 104.193C165.801 104.462 165.94 104.731 166.068 105.042C166.23 104.696 166.385 104.372 166.551 104.053C166.94 103.303 167.322 102.548 167.694 101.789C167.797 101.579 167.928 101.481 168.17 101.496C168.479 101.515 168.791 101.5 169.115 101.5C169.115 103.311 169.115 105.111 169.115 106.923C168.763 106.923 168.405 106.923 168.035 106.923C168.035 105.747 168.035 104.57 168.035 103.336Z" fill="black"/>
<path d="M101.756 106.936C101.519 106.936 101.293 106.94 101.067 106.934C100.906 106.929 100.775 106.862 100.67 106.729C99.8721 105.717 99.0707 104.708 98.2702 103.698C98.2286 103.646 98.1856 103.595 98.1104 103.502C98.1542 104.673 98.124 105.793 98.1355 106.924C97.7622 106.924 97.3966 106.924 97.0195 106.924C97.0195 105.125 97.0195 103.325 97.0195 101.504C97.2831 101.504 97.5497 101.496 97.8153 101.508C97.9399 101.514 98.0266 101.606 98.104 101.705C98.9198 102.739 99.7386 103.771 100.556 104.804C100.582 104.836 100.61 104.867 100.657 104.922C100.657 103.771 100.657 102.648 100.657 101.513C101.03 101.513 101.387 101.513 101.757 101.513C101.756 103.311 101.756 105.111 101.756 106.936Z" fill="black"/>
<path d="M184.125 101.501C184.377 101.501 184.617 101.5 184.857 101.502C185.012 101.503 185.116 101.588 185.209 101.705C186.025 102.739 186.843 103.772 187.661 104.804C187.687 104.837 187.715 104.867 187.762 104.923C187.762 103.773 187.762 102.649 187.762 101.514C188.135 101.514 188.492 101.514 188.862 101.514C188.862 103.311 188.862 105.11 188.862 106.932C188.614 106.932 188.362 106.943 188.11 106.928C187.977 106.92 187.865 106.844 187.775 106.73C186.978 105.718 186.177 104.709 185.376 103.699C185.334 103.647 185.292 103.595 185.216 103.502C185.26 104.673 185.229 105.793 185.241 106.924C184.868 106.924 184.503 106.924 184.125 106.924C184.125 105.126 184.125 103.326 184.125 101.501Z" fill="black"/>
<path d="M145.065 103.495C145.107 104.674 145.078 105.794 145.089 106.925C144.71 106.925 144.345 106.925 143.971 106.925C143.971 105.12 143.971 103.321 143.971 101.502C144.232 101.502 144.493 101.493 144.753 101.506C144.904 101.513 144.999 101.629 145.088 101.743C145.899 102.77 146.711 103.797 147.523 104.823C147.548 104.855 147.576 104.885 147.622 104.939C147.622 103.78 147.622 102.648 147.622 101.51C147.991 101.51 148.35 101.51 148.715 101.51C148.715 103.314 148.715 105.109 148.715 106.937C148.447 106.926 148.176 106.957 147.906 106.915C147.744 106.891 147.653 106.77 147.561 106.653C146.74 105.617 145.922 104.581 145.065 103.495Z" fill="black"/>
<path d="M218.624 106.925C218.243 106.925 217.868 106.926 217.494 106.925C217.255 106.925 217.105 106.795 216.993 106.595C216.752 106.165 216.482 105.75 216.266 105.308C216.096 104.961 215.851 104.857 215.473 104.942C215.473 105.593 215.473 106.254 215.473 106.925C215.036 106.925 214.622 106.925 214.199 106.925C214.199 105.118 214.199 103.318 214.199 101.492C215.123 101.555 216.047 101.387 216.951 101.623C217.73 101.826 218.125 102.282 218.16 103.049C218.189 103.701 217.858 104.309 217.172 104.609C217.147 104.62 217.124 104.638 217.082 104.666C217.438 104.843 217.574 105.186 217.762 105.487C218.052 105.953 218.339 106.421 218.626 106.889C218.629 106.894 218.626 106.902 218.624 106.925ZM215.476 104.059C215.74 104.085 215.987 104.077 216.23 104.043C216.661 103.982 216.928 103.653 216.931 103.203C216.934 102.799 216.686 102.528 216.248 102.457C215.99 102.415 215.731 102.441 215.466 102.436C215.466 102.957 215.466 103.458 215.466 103.958C215.466 103.986 215.471 104.013 215.476 104.059Z" fill="black"/>
<path d="M207.799 104.629C207.044 104.629 206.323 104.629 205.584 104.629C205.584 105.397 205.584 106.157 205.584 106.926C205.152 106.926 204.738 106.926 204.314 106.926C204.314 105.12 204.314 103.32 204.314 101.51C204.734 101.51 205.148 101.51 205.58 101.51C205.58 102.262 205.58 103.008 205.58 103.762C206.325 103.762 207.051 103.762 207.788 103.762C207.788 103.01 207.788 102.269 207.788 101.515C208.212 101.515 208.626 101.515 209.053 101.515C209.053 103.309 209.053 105.109 209.053 106.922C208.645 106.922 208.231 106.922 207.799 106.922C207.799 106.167 207.799 105.406 207.799 104.629Z" fill="black"/>
<path d="M114.951 104.942C114.951 105.596 114.951 106.252 114.951 106.922C114.527 106.922 114.114 106.922 113.686 106.922C113.686 105.13 113.686 103.331 113.686 101.518C113.72 101.478 113.781 101.501 113.833 101.502C114.589 101.518 115.348 101.451 116.101 101.547C116.488 101.596 116.85 101.723 117.16 101.98C117.847 102.549 117.797 103.822 117.023 104.393C116.882 104.497 116.727 104.574 116.556 104.667C116.91 104.833 117.043 105.163 117.223 105.454C117.523 105.937 117.822 106.421 118.142 106.938C117.694 106.926 117.281 106.959 116.868 106.913C116.681 106.892 116.573 106.766 116.485 106.613C116.234 106.173 115.982 105.734 115.729 105.294C115.504 104.903 115.424 104.867 114.951 104.942ZM114.955 104.066C115.286 104.067 115.609 104.101 115.92 103.979C116.255 103.849 116.437 103.536 116.404 103.151C116.371 102.77 116.192 102.563 115.822 102.475C115.537 102.407 115.25 102.444 114.955 102.435C114.955 102.987 114.955 103.521 114.955 104.066Z" fill="black"/>
<path d="M130.03 103.696C130.363 103.746 130.576 103.651 130.749 103.377C131.088 102.841 131.468 102.33 131.823 101.804C131.962 101.597 132.144 101.499 132.39 101.501C132.749 101.503 133.108 101.501 133.518 101.501C132.834 102.361 132.288 103.271 131.576 104.05C131.77 104.13 131.924 104.303 132.058 104.511C132.546 105.271 133.044 106.023 133.538 106.779C133.565 106.819 133.59 106.86 133.628 106.919C133.181 106.919 132.755 106.925 132.329 106.916C132.177 106.912 132.082 106.797 132.002 106.673C131.649 106.129 131.272 105.599 130.945 105.04C130.733 104.678 130.46 104.555 130.049 104.643C130.049 105.39 130.049 106.15 130.049 106.922C129.616 106.922 129.202 106.922 128.775 106.922C128.775 105.126 128.775 103.326 128.775 101.513C129.185 101.513 129.599 101.513 130.03 101.513C130.03 102.235 130.03 102.96 130.03 103.696Z" fill="black"/>
<path d="M121.748 101.51C122.18 101.51 122.594 101.51 123.024 101.51C123.024 102.054 123.032 102.59 123.022 103.126C123.009 103.804 123.076 104.484 122.982 105.159C122.845 106.153 122.069 106.882 121.068 106.978C120.488 107.034 119.928 106.984 119.41 106.69C118.739 106.308 118.381 105.71 118.357 104.962C118.32 103.818 118.348 102.672 118.348 101.514C118.762 101.514 119.169 101.514 119.601 101.514C119.601 101.586 119.601 101.661 119.601 101.735C119.601 102.732 119.597 103.73 119.603 104.727C119.605 105.112 119.685 105.482 120.015 105.727C120.373 105.992 120.775 106.013 121.176 105.828C121.58 105.641 121.74 105.283 121.745 104.865C121.757 103.818 121.748 102.771 121.748 101.724C121.748 101.655 121.748 101.586 121.748 101.51Z" fill="black"/>
<path d="M94.4629 101.502C95.1703 103.324 95.8696 105.125 96.5808 106.958C96.1944 106.952 95.8365 106.981 95.4811 106.932C95.334 106.913 95.2281 106.822 95.1792 106.671C95.0951 106.41 94.9998 106.152 94.9161 105.89C94.8799 105.777 94.8328 105.72 94.6963 105.722C94.1084 105.732 93.52 105.73 92.9321 105.723C92.8071 105.721 92.7573 105.769 92.7246 105.878C92.6511 106.12 92.5707 106.361 92.4899 106.601C92.4215 106.805 92.2944 106.941 92.0623 106.942C91.7383 106.943 91.4148 106.942 91.0684 106.942C91.2257 106.531 91.3795 106.125 91.5364 105.72C92.0636 104.363 92.592 103.007 93.1191 101.649C93.1497 101.57 93.1659 101.497 93.2853 101.499C93.6739 101.507 94.0633 101.502 94.4629 101.502ZM94.5641 104.868C94.3154 104.143 94.0769 103.448 93.8218 102.705C93.5617 103.459 93.3215 104.156 93.0758 104.868C93.5855 104.868 94.0565 104.868 94.5641 104.868Z" fill="black"/>
<path d="M143.512 106.958C143.128 106.95 142.776 106.98 142.426 106.933C142.269 106.912 142.16 106.823 142.109 106.662C142.026 106.401 141.93 106.143 141.845 105.882C141.812 105.779 141.771 105.72 141.641 105.722C141.046 105.73 140.451 105.729 139.856 105.723C139.742 105.722 139.692 105.764 139.66 105.865C139.589 106.093 139.512 106.319 139.436 106.546C139.332 106.86 139.237 106.941 138.902 106.954C138.613 106.966 138.322 106.957 137.996 106.957C138.117 106.637 138.23 106.331 138.348 106.028C138.911 104.579 139.476 103.13 140.035 101.68C140.084 101.552 140.136 101.491 140.288 101.496C140.655 101.511 141.022 101.501 141.394 101.501C142.1 103.319 142.801 105.125 143.512 106.958ZM140.755 102.702C140.494 103.457 140.254 104.154 140.009 104.861C140.519 104.861 140.994 104.861 141.493 104.861C141.249 104.147 141.011 103.452 140.755 102.702Z" fill="black"/>
<path d="M183.686 106.957C183.304 106.951 182.952 106.979 182.602 106.934C182.444 106.913 182.335 106.825 182.283 106.665C182.197 106.397 182.1 106.133 182.013 105.865C181.981 105.765 181.932 105.722 181.818 105.723C181.223 105.73 180.627 105.731 180.032 105.722C179.903 105.721 179.861 105.778 179.829 105.883C179.753 106.124 179.673 106.365 179.593 106.605C179.524 106.811 179.393 106.942 179.162 106.942C178.844 106.943 178.526 106.943 178.176 106.943C178.291 106.637 178.404 106.333 178.521 106.03C179.083 104.581 179.651 103.133 180.206 101.681C180.263 101.532 180.334 101.494 180.481 101.498C180.841 101.508 181.202 101.501 181.568 101.501C182.273 103.317 182.974 105.124 183.686 106.957ZM181.668 104.866C181.423 104.151 181.185 103.454 180.928 102.705C180.669 103.455 180.428 104.152 180.181 104.866C180.687 104.866 181.164 104.866 181.668 104.866Z" fill="black"/>
<path d="M170.053 101.507C171.218 101.507 172.37 101.507 173.535 101.507C173.535 101.826 173.535 102.14 173.535 102.47C172.809 102.47 172.075 102.47 171.329 102.47C171.329 102.892 171.329 103.299 171.329 103.728C171.888 103.728 172.451 103.728 173.026 103.728C173.026 104.044 173.026 104.337 173.026 104.654C172.466 104.654 171.904 104.654 171.329 104.654C171.329 105.097 171.329 105.517 171.329 105.955C172.061 105.955 172.794 105.955 173.537 105.955C173.537 106.286 173.537 106.601 173.537 106.925C172.381 106.925 171.222 106.925 170.053 106.925C170.053 105.125 170.053 103.325 170.053 101.507Z" fill="black"/>
<path d="M211.24 104.658C211.24 105.103 211.24 105.52 211.24 105.953C211.978 105.953 212.71 105.953 213.455 105.953C213.455 106.285 213.455 106.6 213.455 106.925C212.302 106.925 211.143 106.925 209.973 106.925C209.973 105.127 209.973 103.328 209.973 101.515C211.131 101.515 212.294 101.515 213.462 101.515C213.462 101.831 213.462 102.141 213.462 102.468C212.729 102.468 211.996 102.468 211.249 102.468C211.249 102.89 211.249 103.297 211.249 103.726C211.806 103.726 212.368 103.726 212.944 103.726C212.944 104.041 212.944 104.335 212.944 104.658C212.38 104.658 211.812 104.658 211.24 104.658Z" fill="black"/>
<path d="M222.662 106.935C221.509 106.935 220.376 106.935 219.244 106.935C219.223 106.935 219.203 106.928 219.174 106.922C219.174 105.121 219.174 103.321 219.174 101.511C220.333 101.511 221.492 101.511 222.661 101.511C222.661 101.828 222.661 102.142 222.661 102.473C221.926 102.473 221.194 102.473 220.45 102.473C220.45 102.897 220.45 103.303 220.45 103.723C221.018 103.723 221.576 103.723 222.147 103.723C222.147 104.042 222.147 104.348 222.147 104.666C221.583 104.666 221.026 104.666 220.454 104.666C220.454 105.098 220.454 105.518 220.454 105.956C221.188 105.956 221.92 105.956 222.661 105.956C222.662 106.288 222.662 106.602 222.662 106.935Z" fill="black"/>
<path d="M128.273 102.154C128.129 102.343 128.002 102.51 127.874 102.677C127.7 102.904 127.579 102.934 127.339 102.771C126.99 102.534 126.608 102.438 126.194 102.487C125.573 102.561 125.148 102.903 124.952 103.491C124.759 104.065 124.775 104.642 125.054 105.194C125.45 105.978 126.507 106.221 127.213 105.692C127.525 105.458 127.598 105.468 127.854 105.776C127.876 105.803 127.899 105.83 127.923 105.855C128.227 106.176 128.228 106.178 127.882 106.465C127.363 106.893 126.75 107.018 126.099 106.997C125.202 106.97 124.468 106.621 123.981 105.85C123.311 104.789 123.363 103.144 124.365 102.183C125.343 101.245 127.131 101.18 128.154 102.059C128.191 102.091 128.23 102.12 128.273 102.154Z" fill="black"/>
<path d="M102.139 101.502C102.537 101.502 102.904 101.502 103.27 101.501C103.474 101.501 103.595 101.618 103.677 101.788C104.022 102.498 104.365 103.208 104.71 103.917C104.719 103.935 104.736 103.949 104.76 103.976C105.084 103.301 105.416 102.638 105.722 101.964C105.866 101.646 106.05 101.46 106.428 101.496C106.722 101.524 107.022 101.501 107.352 101.501C107.17 101.813 106.999 102.107 106.827 102.401C106.373 103.179 105.92 103.959 105.461 104.735C105.404 104.831 105.38 104.922 105.38 105.032C105.383 105.66 105.382 106.288 105.382 106.926C104.954 106.926 104.54 106.926 104.107 106.926C104.107 106.372 104.09 105.822 104.113 105.274C104.127 104.968 104.036 104.717 103.884 104.463C103.303 103.491 102.733 102.512 102.139 101.502Z" fill="black"/>
<path d="M191.213 106.921C191.213 106.281 191.21 105.645 191.215 105.01C191.215 104.9 191.188 104.808 191.132 104.713C190.507 103.653 189.886 102.591 189.248 101.503C189.658 101.503 190.043 101.497 190.427 101.505C190.6 101.509 190.706 101.629 190.777 101.776C191.121 102.478 191.463 103.181 191.805 103.885C191.82 103.918 191.83 103.951 191.871 103.968C192.198 103.285 192.532 102.605 192.85 101.918C192.982 101.631 193.16 101.47 193.499 101.496C193.807 101.519 194.119 101.501 194.459 101.501C194.142 102.043 193.84 102.563 193.536 103.083C193.213 103.637 192.893 104.192 192.564 104.741C192.505 104.839 192.487 104.932 192.487 105.04C192.49 105.662 192.488 106.284 192.488 106.921C192.07 106.921 191.655 106.921 191.213 106.921Z" fill="black"/>
<path d="M151.707 103.988C151.94 103.503 152.169 103.03 152.397 102.556C152.519 102.302 152.64 102.047 152.763 101.795C152.863 101.592 153.02 101.493 153.255 101.499C153.594 101.509 153.934 101.502 154.306 101.502C154.173 101.729 154.051 101.939 153.928 102.149C153.424 103.012 152.921 103.876 152.412 104.737C152.355 104.833 152.334 104.927 152.334 105.036C152.337 105.664 152.336 106.292 152.336 106.928C151.905 106.928 151.49 106.928 151.06 106.928C151.06 106.355 151.048 105.79 151.066 105.226C151.074 104.959 150.999 104.737 150.865 104.513C150.301 103.57 149.748 102.621 149.192 101.674C149.164 101.627 149.144 101.576 149.109 101.504C149.517 101.504 149.904 101.495 150.29 101.509C150.469 101.515 150.567 101.658 150.641 101.809C150.993 102.529 151.346 103.25 151.707 103.988Z" fill="black"/>
<path d="M111.623 106.93C111.184 106.93 110.782 106.93 110.363 106.93C110.363 105.459 110.363 103.992 110.363 102.507C109.846 102.507 109.347 102.507 108.836 102.507C108.836 102.169 108.836 101.846 108.836 101.513C110.264 101.513 111.691 101.513 113.129 101.513C113.129 101.835 113.129 102.155 113.129 102.493C112.627 102.493 112.134 102.493 111.623 102.493C111.623 103.978 111.623 105.445 111.623 106.93Z" fill="black"/>
<path d="M158.561 102.493C158.561 103.988 158.561 105.45 158.561 106.924C158.145 106.924 157.737 106.924 157.31 106.924C157.31 105.456 157.31 103.989 157.31 102.506C156.797 102.506 156.305 102.506 155.795 102.506C155.795 102.167 155.795 101.846 155.795 101.513C157.212 101.513 158.64 101.513 160.08 101.513C160.08 101.831 160.08 102.152 160.08 102.493C159.583 102.493 159.085 102.493 158.561 102.493Z" fill="black"/>
<path d="M161.973 106.93C161.552 106.93 161.144 106.93 160.723 106.93C160.723 105.125 160.723 103.325 160.723 101.514C161.132 101.514 161.547 101.514 161.973 101.514C161.973 103.314 161.973 105.113 161.973 106.93Z" fill="black"/>
</g>
<defs>
<clipPath id="clip0_16_9220">
<rect width="135.989" height="30" fill="white" transform="translate(89 77)"/>
</clipPath>
</defs>
</svg>
